<svg version="1.1" xmlns="http://www.w3.org/2000/svg" xmlns:xlink="http://www.w3.org/1999/xlink" width="740.65131" height="759.76086" viewBox="0,0,740.65131,759.76086"><g transform="translate(140.83616,192.37292)"><g data-paper-data="{&quot;isPaintingLayer&quot;:true}" fill="#000000" fill-rule="nonzero" stroke="none" stroke-width="1" stroke-linecap="butt" stroke-linejoin="miter" stroke-miterlimit="10" stroke-dasharray="" stroke-dashoffset="0" style="mix-blend-mode: normal"><path d="M40.12595,-8.71124c1.24887,-85.96177 68.77103,-179.87167 170.30944,-183.57977c88.55025,-3.23379 167.55998,89.81161 168.06894,186.58278c0.441,83.85056 -54.57077,170.29353 -148.08268,176.54928c-1.89169,0.12655 151.81655,8.52943 150.43395,173.6808c-1.24374,148.56383 -68.12485,220.77505 -161.91303,222.84168c-59.87938,1.31944 -173.53545,-50.53065 -175.7389,-230.37483c-1.62573,-132.69072 166.74484,-165.94296 164.57067,-166.04094c-132.16283,-5.9559 -168.58962,-114.87286 -167.64839,-179.65899zM188.31514,-188.36109c-5.3,0 -14.9,2.3 -13.9,3.3c0.3,0.2 4.5,-0.4 9.4,-1.5c7.4,-1.5 8.2,-1.9 4.5,-1.8zM200.31514,-187.46109c-38.3,4.9 -73.2,21 -102.2,46.9c-3.2,2.8 -5.8,5.6 -5.8,6.2c0,0.5 2.7,-1.4 6.1,-4.4c15.4,-13.5 26.5,-21.1 42.6,-29.1c21.7,-10.9 45.3,-17.3 68.6,-18.4c7,-0.3 12.7,-1 12.7,-1.5c0,-1 -13.2,-0.8 -22,0.3zM262.81514,-188.16109c-4.2,-0.4 -3.6,-0.1 4,2c29.1,7.9 56,22 76.1,40c3.4,3 6.4,5.2 6.8,4.9c1.3,-1.4 -20.1,-18.1 -33.5,-26.1c-10.7,-6.4 -25.4,-13 -38.4,-17.2c-5.5,-1.7 -12.2,-3.4 -15,-3.6zM248.01514,-186.86109c-0.4,0.4 4.3,1.7 10.4,2.9c31.4,6.3 61,21.4 86.2,43.9c5.3,4.7 9.7,8.8 9.7,9.1c0,0.3 -3.7,-2.8 -8.2,-6.8c-4.6,-4 -11.2,-9.5 -14.8,-12.2c-3.6,-2.7 -7.1,-5.4 -7.7,-5.9c-0.8,-0.6 -1.3,-0.6 -1.3,0c0,0.6 4.2,4.2 9.3,8.1c9.3,7.2 16,13.4 18.1,17c0.6,1.1 4.2,5.5 8,9.8c18.8,21.6 33.5,51.1 39.6,79.2c6,28 5.1,59.7 -2.6,86.7c-2.8,9.8 -8.4,24.9 -9,24.3c-0.2,-0.2 0.6,-2.8 1.7,-5.7c3.3,-8.8 6.8,-21.6 8.3,-30.9c2.5,-15.1 2.6,-16.2 1.3,-16.2c-0.9,0 -1.2,-3.9 -1.3,-13.8c-0.2,-15.1 -1.6,-26.6 -4.4,-35.7c-6.5,-20.9 -8.7,-27.2 -13.5,-37.1c-14.4,-29.9 -39.5,-57.1 -68.1,-74c-7.8,-4.5 -17.5,-9.4 -19,-9.4c-0.2,0 -0.4,0.3 -0.4,0.7c0,0.5 2.1,1.6 4.6,2.7c6.3,2.6 23.6,13.1 31.4,19.1c31.7,24.4 54.4,60.4 62.8,99.5c5.7,26.6 5.6,53.7 -0.5,77.7c-2.4,9.6 -2.5,7 -0.2,-3.7c2.7,-12.4 3.7,-40.8 1.9,-54.7c-3.5,-28.1 -14.1,-55.3 -30.9,-78.7c-6.1,-8.5 -24.6,-28.6 -26.5,-28.6c-0.6,-0.1 -5.6,-3.4 -11.1,-7.6c-11.6,-8.6 -33.4,-19.9 -47.3,-24.4c-19.2,-6.2 -23.19549,-10.403 -45.1955,-10.403c-18.9,0.1 -36.6045,4.303 -37.9045,6.203c-0.3,0.4 -3.3,1.4 -6.6,2.1c-12.3,2.6 -36,11.2 -45,16.3c-23.9,13.4 -42.4,30.2 -57.3,51.6c-6.8,9.7 -17.3,30.9 -21.1,42.7c-1.7,4.9 -3,8.4 -3,7.6c-0.2,-3 7.2,-23 11.9,-32.4c15.1,-30.1 37,-53.8 65.9,-71.2c7,-4.2 24.8,-12.5 26.9,-12.5c0.6,0 1.2,-0.5 1.2,-1.1c0,-1.3 -2.3,-0.6 -11.5,3.4c-20.2,8.7 -39.5,22.5 -56.6,40.4c-5.1,5.4 -7.4,7.5 -5.2,4.8c18.8,-23 48.6,-43.3 76.5,-52.2c4.8,-1.5 8.8,-3.2 8.8,-3.7c0,-1.1 -3.7,-0.1 -15,4.1c-34.9,13 -65.7,38.2 -85.2,69.6c-7.4,11.9 -8.2,12.9 -6.2,8.8c3,-6.4 9.6,-16.6 16.3,-25.1c24.4,-31.4 59.7,-53.6 99.4,-62.4c1.5,-0.4 2.7,-1 2.7,-1.5c0,-1.1 -10.1,1.3 -21.5,5c-12.6,4.1 -35.2,15.6 -46.5,23.6c-5.2,3.8 -15.3,12.6 -22.5,19.7c-13.1,13 -13.1,12.4 0,-1.2c3.8,-3.9 6.4,-7.2 5.6,-7.2c-2.6,0 -18.7,18.1 -27,30.3c-52.4,77.7 -34.8,183.1 39.7,238.3c13.3,9.9 12.3,9.9 -2.3,0c-10.6,-7.2 -30.2,-25.8 -39,-37.1c-24.6,-31.5 -37.3,-63.8 -40.7,-103.6c-3.7,-43.2 10.3,-91 37,-126.9c10.9,-14.7 30.1,-33 45.7,-43.3c3.8,-2.6 6.4,-4.7 5.7,-4.7c-2.6,0 -17.7,10.9 -28.3,20.5c-29.4,26.4 -50.1,62.5 -58.4,101.8c-13.1,61.8 5.8,127 49.4,170.8c7,6.9 14.4,14.1 16.7,16c2.2,1.9 3.3,3 2.5,2.4c-4.4,-2.7 -19,-15.7 -26.5,-23.6c-37.8,-39.7 -57.1,-90.1 -55.3,-144.4c0.6,-18.7 2.3,-30.1 7.2,-47.8c3.6,-13.3 2.9,-16.1 -0.9,-3.5c-7.3,24.1 -10.2,52.9 -7.6,77c0.5,4.9 1.1,10.9 1.4,13.5c0.4,3.8 0.2,3.5 -0.9,-1.7c-2.2,-10.5 -3.7,-32.6 -3,-44c1.9,-30.7 9.3,-58.2 22.5,-83.7c3.5,-6.8 5.3,-11.4 4.6,-11.6c-0.6,-0.2 0.4,-2.7 2.7,-6c2,-3.2 3.3,-5.7 2.8,-5.7c-2.6,0 -17.5,28 -23.4,44c-5.9,15.8 -12.8,46.7 -10.7,48c0.4,0.3 0.4,5.9 0,12.5c-1.7,28.4 2.7,57.7 12.6,84.2c4.7,12.6 15,33 17.4,34.3c1,0.5 3.3,3.3 5,6.2c13.4,21.8 40.7,48.5 62.3,61.1c2.6,1.5 4.7,3 4.7,3.3c0,1.6 -18.9,-10.8 -31,-20.5c-32,-25.4 -57.6,-61.4 -69.4,-97.8c-9.4,-28.7 -12.1,-46.6 -11.3,-76.7c0.7,-28.9 4.8,-49.6 15.2,-75.2c1.8,-4.6 2.9,-8.4 2.4,-8.4c-1.1,0 -2.9,4.2 -7.9,18c-11.1,30.9 -15.4,71.7 -10.6,102.9c6.1,40.2 23.1,77.7 49.4,109.2c17.6,21 38.5,37.4 65.7,51.6c6.6,3.4 11.7,6.3 11.3,6.3c-0.4,0 -4.9,-1.8 -10,-4.1c-43.4,-19 -84.7,-55.5 -109.6,-96.9c-24,-39.8 -35.9,-84 -35,-130.3c0.2,-9.2 0,-16.7 -0.4,-16.7c-2.5,0 -2.1,36.3 0.7,56c1.4,9.9 6.9,33.7 9,39.3c0.6,1.3 0.3,1.6 -0.9,1.1c-1.4,-0.5 -1.1,0.8 1.3,7.2c4.1,11.3 4.5,12.6 1.6,6.6c-6.4,-13.5 -13.7,-39.3 -17,-60.2c-1,-5.8 -2,-18.4 -2.4,-28c-0.6,-15.3 -0.8,-16.8 -1.5,-11.5c-2,13.7 1.3,43.2 7.5,67.5c3.6,13.8 11.9,35.2 20,51c9.1,17.9 25.2,42 28.2,42c0.7,0 2.8,2.1 4.7,4.7c9.5,12.6 30.2,32.2 46,43.4c12.6,9 12.6,9 10.5,8c-1.1,-0.5 -6.5,-4 -12,-7.7c-49.9,-33.6 -86.6,-82.2 -105.5,-139.9c-1.3,-3.9 -2.5,-6.4 -2.8,-5.7c-0.2,0.7 0.3,3.3 1.2,5.9c0.9,2.6 1.6,5.1 1.5,5.7c-0.3,5 -10.7,-33.7 -12.9,-48.2c-0.7,-4.5 -1.6,-8.2 -2.1,-8.2c-0.5,0 -0.9,-0.9 -0.9,-2c0,-2.2 -1.5,-2.7 -2.6,-0.9c-2,3.4 2.5,27.1 9.1,47.8c2.4,7.4 4.3,13.7 4.1,13.8c-0.5,0.5 -6.2,-15.9 -9.1,-26.2c-1.4,-5 -3.6,-14.1 -4.8,-20.2c-1.2,-6.2 -2.4,-11.3 -2.7,-11.3c-0.3,0 -1,1.3 -1.6,2.8c-2.7,7.2 10.1,48.3 23.5,75.7c14.5,29.5 30.6,52.1 53.6,75.1c13.5,13.6 19.9,19.1 33,28.4c11.9,8.5 13,9.8 2.5,2.9c-9.7,-6.3 -22.4,-15.9 -30.6,-23c-3.1,-2.7 -5.2,-3.8 -6.4,-3.4c-2.4,0.8 -26.2,-22.8 -38.3,-38c-20.2,-25.3 -37.1,-53.9 -47.2,-80.2c-1.9,-4.9 -3.2,-7 -4.2,-6.6c-0.7,0.3 -1.3,0.1 -1.3,-0.5c0,-1.8 -3.1,-8.4 -3.7,-7.8c-1,1 8.8,24.7 16.8,40.4c4.2,8.4 12,21.7 17.1,29.5c9.7,14.6 22.9,31.8 25.2,32.7c0.7,0.3 4.9,4.5 9.4,9.5c9.6,10.4 23.2,23.1 35.1,32.4c12.2,9.6 13.5,10.9 5.6,5.5c-17.7,-12 -39.1,-30.8 -54,-47.4c-10.8,-12.1 -22.6,-26.9 -24.6,-30.8c-0.7,-1.5 -3.5,-5.9 -6.1,-9.9c-6.7,-10.1 -16.6,-27.9 -22.3,-40.3c-2.6,-5.8 -5.2,-11 -5.8,-11.5c-4.2,-4.4 12.5,29.7 23.8,48.5c13.1,21.7 22.9,34.3 42.5,54.3c12.4,12.8 24.9,23.9 37.3,33.1c4.2,3.2 7.7,6 7.7,6.3c0,0.8 -15.3,-10.2 -25.8,-18.7c-5.9,-4.7 -15,-12.6 -20.3,-17.7c-5.3,-5.1 -9.9,-9 -10.3,-8.6c-0.4,0.4 2.4,3.8 6.1,7.7l6.8,7l-8.5,-7.8c-25,-23 -46.3,-50.1 -67.1,-85.5c-1.1,-1.8 -2.2,-3.1 -2.5,-2.8c-0.6,0.5 9.1,17.6 14.8,25.9c2.1,3.2 3.6,5.8 3.4,5.8c-0.7,0 -9.7,-13.4 -15.7,-23.3c-2.7,-4.5 -4.9,-7.4 -4.9,-6.3c0,4.5 22.1,37.4 37.4,55.6c10.5,12.5 26.6,29 38,38.7c12.2,10.4 15.7,13.8 9.6,9.3c-18.1,-13.6 -44.5,-39.1 -59.1,-57c-11.4,-14 -19.9,-25.6 -19.2,-26.3c0.4,-0.5 -10.5,-18.7 -11.2,-18.7c-0.1,0 -0.2,1.2 -0.2,2.7c-0.1,2.6 4.1,9.1 20.7,33.3c15.6,22.4 51.5,57.3 79,76.6c4.4,3.1 8,5.8 8,6c0,0.7 -1.2,0 -13.5,-8.5c-32.4,-22.3 -65.2,-54 -90.5,-87.6c-4.5,-6.1 -8.4,-11.2 -8.6,-11.4c-0.2,-0.2 -0.4,0.3 -0.4,1.1c0,2.3 16,23.3 28.8,37.9c6.1,7 16.6,18 23.4,24.4c8.2,7.9 9.8,9.7 4.8,5.5c-11.8,-10.1 -34.5,-33.4 -46,-47.3c-5.8,-7 -11.1,-12.7 -11.8,-12.7c-2.5,0 16.6,22.8 34.8,41.5c13.6,14 13.9,14.4 4.6,6c-10.3,-9.3 -27.1,-27.2 -37.2,-39.5c-3.2,-3.9 -6,-6.6 -6.2,-6c-0.9,2.6 26.7,33.3 45.4,50.3c29,26.5 60,48 94.9,65.6c7.7,3.9 13.7,7.1 13.3,7.1c-1.2,0 -17.9,-7.5 -29.9,-13.5c-42.2,-21.2 -81.1,-49.1 -116.2,-83.5c-7,-6.9 -12.7,-12.1 -12.7,-11.5c0,1.6 27.4,28 40,38.6c27.1,22.7 52.3,39.6 84,56.3c6.9,3.6 12.1,6.6 11.5,6.6c-1.9,0 -36.1,-17.5 -43.5,-22.3c-29.9,-19.3 -38.8,-25.3 -48.5,-32.6c-12.3,-9.4 -23.3,-18.6 -36.3,-30.2c-4.8,-4.4 -9.1,-7.9 -9.7,-7.9c-0.5,0 0.3,1.2 2,2.7c1.6,1.4 3.4,3.5 4,4.7c1.3,2.6 16.7,16.2 31.5,27.7c13.7,10.7 41.2,29.2 56.5,38c14.8,8.4 46.2,23.6 61.2,29.5c6.8,2.6 12.1,4.9 11.9,5.1c-0.2,0.2 -6.3,-1.7 -13.7,-4.3c-28.9,-10 -67.4,-28 -94.7,-44.3c-7.2,-4.3 -13.2,-7.4 -13.2,-7c0,1.8 23.2,15.5 45.6,26.9c17.1,8.8 14,8.1 -5.2,-1c-25.8,-12.3 -59.7,-32.2 -84.1,-49.6c-5.1,-3.6 -9.3,-6.1 -9.3,-5.6c0,1.9 36.2,26.2 57.1,38.3c14,8 49.8,25.9 63.4,31.5c5,2 17.6,6.8 28,10.5c10.5,3.8 18.4,6.8 17.7,6.9c-2.5,0 -45.9,-14.8 -61.2,-21c-29.3,-11.9 -57.4,-25.5 -82.9,-40.4c-6.3,-3.6 -11.6,-6.4 -11.9,-6.1c-0.7,0.6 -1.1,0.3 8,5.8c32.4,19.4 72.1,38 111.8,52.3c9.6,3.5 16.9,6.3 16.2,6.4c-0.8,0 -12,-3.5 -25,-7.9c-39.3,-13 -65.5,-24 -102.9,-43.1c-12.8,-6.6 -23.3,-11.6 -23.3,-11.2c0,1.4 38.2,21.2 58.2,30.2c5.4,2.4 9.6,4.5 9.4,4.7c-0.7,0.7 -31.3,-13 -51.8,-23.2c-11.5,-5.7 -20.8,-10 -20.8,-9.5c0,1 32.6,17.5 50.5,25.5c43,19.3 88.7,34.6 136.5,45.9c21.9,5.2 14.1,4.3 -16.9,-2c-15.2,-3.1 -29.1,-5.8 -31,-6c-4.1,-0.6 -34.2,-8.3 -45.6,-11.7c-34.8,-10.5 -81.1,-26.8 -80.8,-28.4c0.1,-0.6 -2.7,-2.2 -6.2,-3.6c-3.6,-1.4 -6.5,-2.1 -6.5,-1.6c0,0.5 -1.1,0.7 -2.5,0.3c-4.7,-1.2 -2.5,1.1 3.3,3.4c24.5,10 70.9,26.1 88.5,30.7c3.7,1 6.5,2 6.3,2.2c-1.3,1.3 -82.4,-23.6 -99,-30.3c-1.3,-0.5 -1.7,-0.4 -1.3,0.3c0.4,0.6 8,3.7 16.9,6.9c9,3.1 16.5,6.1 16.8,6.4c0.3,0.4 4.4,2 9.2,3.6c4.8,1.5 8.6,3 8.4,3.2c-0.4,0.3 -27.3,-7.6 -31.7,-9.3c-1,-0.3 -2,-0.2 -2.3,0.3c-0.3,0.6 -3.7,0 -8.3,-1.4c-4.3,-1.3 -8.2,-2.2 -8.8,-2c-0.5,0.2 -0.3,0.6 0.5,1c4,1.6 34.3,10.8 48.2,14.6c8.7,2.4 15.6,4.5 15.4,4.7c-0.6,0.6 -45,-10.9 -62.9,-16.3c-1.4,-0.4 -1.8,-0.1 -1.5,1.2c0.2,1.2 2.3,2.3 6.8,3.6c14.4,4.2 47.9,12.9 50.8,13.3c5,0.6 32.2,6.9 31.8,7.3c-0.5,0.4 -15.8,-2.6 -35.6,-7c-7.4,-1.6 -15.3,-3.1 -17.5,-3.4c-2.2,-0.2 -11.2,-2.2 -20,-4.3c-14,-3.4 -18,-4.1 -16.4,-2.7c1.8,1.6 63,15.4 97.9,22.1c24.4,4.7 26.5,5.6 5.7,2.5c-7.3,-1 -14.3,-1.9 -15.7,-1.8c-8.8,0.3 -65.3,-8.5 -68,-10.7c-0.8,-0.7 -6.4,-2.2 -12.5,-3.4c-12.5,-2.4 -12.8,-2.4 -12.1,-1.2c0.4,0.5 2.5,1.2 4.9,1.6c2.3,0.4 4.9,1.3 5.7,2c1.3,1.1 15,3.8 55.5,10.9c4.4,0.7 7,1.4 5.8,1.5c-2.3,0.1 -35.4,-4.6 -58,-8.2c-14.2,-2.3 -18.7,-2.2 -9.5,0.2c2.6,0.7 11.9,2.5 20.7,4.1l16,2.8l-9.5,-0.4c-5.2,-0.3 -14.4,-1.1 -20.3,-1.9c-12.8,-1.8 -11.7,-1.7 -11.7,-0.5c0,0.5 1.3,1 2.9,1c1.6,0 3.1,0.5 3.3,1c0.2,0.6 8.6,2 18.8,3.3l18.5,2.3l-7,0.7c-4.3,0.5 -12.7,0.2 -21.5,-0.7c-13.3,-1.4 -16.1,-1.4 -14.9,-0.2c0.5,0.5 48.1,5.2 63.2,6.2c5.4,0.4 10,1 10.2,1.4c0.4,0.7 -0.7,0.6 -32.4,-1.5c-19.6,-1.3 -23.3,-1.3 -22,-0.1c0.2,0.3 9.2,1.1 19.9,2l19.5,1.5l-18,-0.5c-9.9,-0.2 -23.1,-0.7 -29.4,-1.1c-10.7,-0.6 -11.3,-0.5 -10.9,1.3c0.3,1.8 2,2 22.3,3.1l22,1.1l-18.7,-0.4c-12.2,-0.3 -18.8,-0.1 -18.8,0.5c0,0.6 4.3,1.2 10.3,1.4c7.4,0.3 6.5,0.3 -3.6,0.3c-12.3,-0.1 -13.7,0.1 -13.7,1.6c0,1.4 1.2,1.8 6.8,2.1l6.7,0.3l-6.7,0.2c-5.2,0.2 -6.8,0.5 -6.8,1.6c0,1.1 1.4,1.6 4.8,1.9l4.7,0.3l-4.7,0.2c-3.6,0.2 -4.8,0.6 -4.8,1.8c0,1.4 2.1,1.5 19.3,1l19.2,-0.5l-18.5,1.4c-10.2,0.7 -18.8,1.4 -19.2,1.4c-0.5,0.1 -0.8,0.4 -0.8,0.8c0,0.5 6,0.8 13.2,0.7c10.5,-0.1 11.8,0 6.1,0.6c-7.6,0.7 -11.1,2 -5.2,2c1.9,0 15.1,-0.9 29.4,-2c38.9,-3 41.2,-2.2 4.7,1.5c-17.8,1.9 -32.6,3.6 -33,3.9c-1.2,1.2 0.7,1.3 11.8,0.1c6.3,-0.6 12,-1 12.6,-0.8c0.6,0.2 7.8,-0.3 15.9,-1.1c22.6,-2.4 22.3,-1.7 -0.5,1.4c-27.2,3.7 -54.2,7.9 -54.8,8.5c-1.3,1.3 1.9,1 23.8,-2c32.2,-4.4 32,-4.4 32,-3.6c0,0.3 -12.1,2.6 -27,5c-14.8,2.4 -27,4.8 -27,5.3c0,0.6 1,0.8 2.3,0.5c1.2,-0.3 5.8,-1.1 10.2,-1.7c4.4,-0.6 12.1,-1.8 17.1,-2.6c5,-0.8 9.7,-1.4 10.4,-1.4c3.7,0 -1.3,1.1 -19.5,4.4c-22.8,4.2 -24.1,4.5 -20.5,5.6c2.4,0.8 2.4,0.8 0.3,0.9c-1.3,0.1 -2.3,0.6 -2.3,1.1c0,0.6 1,0.8 2.3,0.5c1.2,-0.3 7.4,-1.6 13.7,-3c6.3,-1.3 14.5,-3.1 18.2,-3.9c10.2,-2.4 61.8,-10.8 63.1,-10.3c0.7,0.2 -1,0.7 -3.8,1.1c-13.6,2 -85.8,17 -92.4,19.2c-0.8,0.2 -1.1,0.7 -0.8,1c0.3,0.3 4.9,-0.4 10.2,-1.6c5.3,-1.2 9.9,-2 10.1,-1.7c0.3,0.2 -1.2,0.8 -3.3,1.2c-4.9,0.9 -6.1,1.7 -3.9,2.5c1.2,0.4 -0.8,1.3 -5.8,2.5c-4.2,1 -7.6,2.3 -7.6,2.7c0,1.2 7.2,1 11,-0.4c2.3,-0.8 3.5,-0.8 3.7,-0.1c0.3,0.7 4.4,-0.1 11.1,-1.9c17.4,-4.7 54.2,-13.4 75.7,-17.8c21.6,-4.4 59,-11.1 61.5,-10.9c0.8,0 -7.7,2 -19,4.4c-11.3,2.3 -26.3,5.7 -33.4,7.4c-9.1,2.2 -13.2,2.8 -13.6,2c-0.5,-0.7 -8.1,0.8 -24.4,5c-21.5,5.6 -66.5,18.7 -67.5,19.7c-1.6,1.5 2.1,0.8 13.4,-2.7c17.9,-5.5 52.7,-15 53.8,-14.6c0.5,0.1 -4.5,1.8 -11,3.6c-17.4,5 -54.7,17.1 -55.7,18.2c-2.7,2.5 2.2,1.4 21.9,-5c29,-9.6 80,-23.9 81.1,-22.9c0.2,0.2 -5.8,2.1 -13.4,4.2c-29.9,8.3 -89.2,29.1 -90,31.5c-0.3,1 0.2,1.1 1.9,0.6c4.1,-1.3 4.5,-1.2 1.2,0.3c-1.8,0.8 -3.3,2 -3.3,2.7c0,0.7 5.8,-1.2 14.6,-4.6c8.1,-3.2 15.6,-5.8 16.8,-5.7c1.1,0 8.2,-2.2 15.6,-5c28.9,-10.7 92,-29.5 93.6,-27.9c0.2,0.2 -4.9,1.8 -11.4,3.7c-31.5,9 -76.9,26 -115.7,43.3c-7.6,3.4 -9.2,4.4 -8.3,5.2c0.3,0.3 2.6,-0.4 5.2,-1.5c6.9,-2.9 7,-2.4 0.4,1.1c-3.2,1.6 -5.8,3.3 -5.8,3.8c0,0.5 6.6,-2.2 14.6,-6c8,-3.9 14.8,-6.9 15,-6.7c0.2,0.2 -6.4,3.7 -14.6,7.8c-8.3,4.1 -15,7.8 -15,8.2c0,0.5 2.7,-0.5 6,-2.2c3.3,-1.6 6.7,-3 7.5,-3c0.9,0 3,-0.7 4.6,-1.6c1.7,-0.8 3.9,-1.7 4.9,-1.9c1,-0.2 8.1,-3.3 15.7,-6.8c21.7,-10.1 61,-26.3 61.9,-25.5c0.1,0.2 -6.6,3.2 -14.9,6.7c-28.2,11.8 -84.4,40.6 -85.5,43.9c-0.2,0.6 4.8,-1.9 11,-5.4c15,-8.6 51.8,-26.8 69.3,-34.2c16,-6.8 49.6,-19.5 50.1,-18.9c0.2,0.2 -4.7,2.3 -10.9,4.6c-28.6,11.1 -62.9,27.6 -90.1,43.6c-21,12.2 -24.6,14.7 -24.6,16.8c0,2.3 -1,2.8 14.7,-7c7.3,-4.6 21.9,-13 32.5,-18.7c10.6,-5.7 21.2,-11.6 23.4,-13c9.7,-6.1 46.1,-20.9 74.1,-30.2c10.6,-3.5 19.9,-6.4 20.5,-6.4c0.7,0.1 -5.9,2.7 -14.7,5.8c-20.5,7.4 -36.7,14.4 -58,24.8c-18.4,9 -43.8,23.1 -44.3,24.6c-0.2,0.5 -6.5,4.9 -14,9.9c-15.7,10.4 -34.2,24 -34.2,25.1c0,1.5 2.9,0.8 5.7,-1.5c4.6,-3.7 13.3,-9.9 13.3,-9.4c0,0.2 -3.1,2.8 -7,5.8c-3.8,2.9 -7,5.7 -7,6.2c0,0.5 1.5,-0.2 3.3,-1.5c29.7,-22.5 69,-47.7 72.3,-46.4c0.8,0.3 4.2,-1.1 7.6,-3c6.8,-3.9 15.3,-8.1 12.8,-6.4c-0.8,0.6 -8.6,5.3 -17.2,10.4c-8.6,5.1 -21,13.1 -27.5,17.6c-6.4,4.5 -12.8,8.6 -14.1,9.1c-2.8,1.1 -18.5,13 -29.4,22.3c-5.1,4.5 -7.6,7.3 -7.5,8.6c0.1,1.1 0.3,2 0.4,2c0.2,0 4,-3.2 8.5,-7c19,-16.5 49,-37.8 73.7,-52.4c10.2,-6.1 22.1,-12 22.1,-11.1c0,0.2 -2.6,1.8 -5.7,3.5c-9.7,5.5 -30.2,19.2 -42.8,28.7c-19.3,14.5 -34.1,27 -33.2,28c0.3,0.3 4.5,-2.9 9.4,-7.1c4.8,-4.1 9,-7 9.2,-6.4c0.2,0.7 -1.1,2.4 -2.9,4c-1.9,1.5 -3.1,3 -2.8,3.3c0.3,0.4 5.7,-3.6 12,-8.7c24.8,-20.4 58.9,-42.7 83.8,-54.7c8.2,-3.9 6.4,-2.7 -7.9,5.5c-15.8,8.9 -32.1,19.8 -48.3,32.1c-11.8,9 -15.4,12.3 -13.3,12.3c0.2,0 5,-3.6 10.7,-8.1c10.5,-8.2 37.3,-26.4 46.3,-31.4c7.3,-4.1 4.4,-1.7 -6,5c-31.2,20 -67.5,52.2 -91.3,81c-8,9.6 -10.5,14 -4.2,7.3l3.2,-3.3l-3.3,4.2c-1.8,2.4 -3,4.5 -2.7,4.8c0.3,0.3 1.8,-1.1 3.4,-3.2c1.6,-2.1 5.9,-7.4 9.7,-11.7c3.7,-4.3 7.4,-9.3 8.1,-11c1.4,-3.3 23.3,-24.7 37.1,-36.1c15.2,-12.6 37.8,-28.8 51,-36.5c6.2,-3.6 3,-1 -8,6.5c-20.7,14.1 -42.1,32.2 -59.5,50.2c-13.2,13.7 -41.5,49.3 -39.2,49.3c0.5,0 3.8,-3.9 7.4,-8.8c11.7,-15.5 22.9,-28.3 39.8,-45.2c23.1,-23 42.7,-38.4 70.2,-55.2c26.3,-15.9 67.4,-34.4 93.3,-41.8c6.1,-1.7 11.7,-3.3 12.5,-3.6c0.8,-0.3 1.1,-0.2 0.8,0.2c-0.4,0.3 -4.9,2.1 -10,3.9c-74.9,26.2 -134,73.3 -175.8,139.8c-3.4,5.4 -5.8,10.2 -5.4,10.5c0.3,0.4 0.9,0.2 1.1,-0.5c0.2,-0.6 4.4,-7.2 9.2,-14.5c20.2,-30.7 47.2,-60.1 73.5,-79.9c8.9,-6.7 7.4,-5.1 -8.9,9.1c-27.9,24.4 -49.1,50.6 -67.4,83.2c-8.1,14.5 -16.9,33.6 -17.7,38.1c-0.3,1.8 1.2,-0.9 3.4,-5.8c8.4,-19.3 24.1,-47.5 29.8,-53.5c1.3,-1.4 5.7,-7.1 9.9,-12.7c4.1,-5.7 7.7,-10.3 8.1,-10.3c0.3,0 -1.5,2.6 -3.9,5.8c-6.1,7.8 -16.2,23.6 -23,35.8c-8.4,15.1 -20.3,42.1 -19.5,44.5c0.2,0.6 1.7,-2.2 3.2,-6.2c10.4,-26.7 26.5,-54.7 46,-79.9c9.6,-12.5 37.7,-40.9 49.4,-50c13.1,-10.2 24.4,-18.1 36,-25c11.1,-6.8 38.8,-21 40.6,-21c0.6,0 -4.5,2.8 -11.4,6.3c-13,6.5 -23.7,12.9 -25.5,15.2c-0.6,0.7 -4.9,4.1 -9.5,7.6c-37,27.3 -67.4,64.1 -87,105.2c-6.3,13.2 -13.2,30.9 -11.9,30.5c0.6,-0.2 2.6,-4.2 4.4,-8.9c7.2,-18.7 23.6,-49.5 31,-58.4c1.4,-1.7 0,1 -3,6c-11.4,18.4 -22.4,42.1 -28.8,62c-4.4,13.6 -5.6,18.4 -4.8,18.9c0.4,0.3 2.5,-5.2 4.5,-12.2c2.1,-7.1 4.2,-13.5 4.7,-14.3c0.8,-1 0.8,-0.7 0.3,1.1c-0.4,1.4 -0.7,3.4 -0.7,4.5c0,1.1 -1.2,6.9 -2.8,13c-2.4,9.5 -4.3,19 -6.5,32.2c-0.3,1.8 -0.1,3.3 0.4,3.3c0.5,0 1.5,-3.5 2.1,-7.8c8,-53.9 34.3,-106.5 73.2,-146.4l10,-10.3l-9.1,10.4c-16.3,18.5 -35.5,45.5 -31.3,44c0.6,-0.2 4.2,-5.1 8.1,-10.9c18.1,-26.9 40.7,-49.9 68.5,-69.4c3.7,-2.6 6.7,-4.6 6.7,-4.3c0,0.3 -2.1,2 -4.7,3.9c-2.7,1.9 -10.3,8 -17,13.7c-36.7,30.8 -64.5,75.5 -76.8,123.6c-1.8,7.1 -3.6,15.2 -4,18c-0.4,2.7 -1.1,5.5 -1.6,6.1c-3.7,4.7 -5.2,66.3 -1.5,65.1c0.8,-0.3 1.1,-7.1 1.1,-23.8c0,-23.6 1.7,-43 4,-45.2c0.6,-0.7 1.9,-5 2.9,-9.6c12.1,-56.9 44.3,-108 90.1,-143c3.5,-2.7 -0.2,0.9 -8.3,8.2c-9.7,8.6 -20.8,20.9 -30,33.2c-4.1,5.5 -8,10.4 -8.7,11c-4.2,3.3 -18.4,30.5 -24.7,47.3c-4.7,12.7 -9.9,32.5 -12.5,47.7c-2.5,15 -2.5,55.3 0,69.8c2.4,13.8 5,24.7 5.9,24.7c1,0 1.1,0.4 -1.2,-9.2c-3.5,-15.1 -5,-30.7 -4.8,-51.6l0.2,-19.7l0.6,22c0.4,12.1 1.3,25.6 2,30c1.5,9.8 3.4,12.7 2.6,4c-0.5,-5.1 -0.3,-4.7 1.3,3.1c2.8,13.3 6.2,25.3 7.4,26.1c0.7,0.4 0.8,-0.2 0.3,-1.8c-4.9,-17.2 -8.3,-35.1 -9.3,-50c-0.6,-9.3 -1.3,-11.6 -2.7,-8.7c-0.3,0.7 -0.3,-5 0,-12.7c0.9,-24.2 4.6,-45 11.5,-65.8c3.9,-11.7 12.2,-31.3 14.1,-33.2c1.1,-1.2 0.2,1.4 -3.7,10c-6.6,14.6 -13,36.5 -16.2,56c-3.2,19.9 -1.9,73.5 1.9,73.5c0.5,0 0.7,-1.2 0.4,-2.7c-1.7,-8.6 -2.6,-21.9 -2.4,-38.3l0.1,-18.5l0.8,22c0.9,30.2 3.3,42.1 14.5,73.2c4.8,13.3 4.2,7.5 -0.7,-7c-14.5,-42.8 -15.6,-89.1 -3.4,-131.8c4.3,-14.9 12.9,-36.2 19,-47c5,-8.8 14.2,-22.9 15,-22.9c0.3,0 -1.8,3.5 -4.6,7.7c-7.6,11.6 -17.2,32 -22.3,47.3c-13.2,39.7 -14.9,79.9 -5,121.2c1.4,5.9 3,10.8 3.6,10.8c0.5,0 0.7,-0.8 0.4,-1.8c-4.5,-15.2 -7.7,-35.6 -8.3,-53.2c-1.8,-49.4 13.2,-97.1 43.1,-137c16.6,-22.1 42.5,-45.3 64.6,-57.8c7.7,-4.3 9.8,-2.7 2.7,2.1c-9.7,6.4 -25.3,19.4 -32.6,27.3c-23.8,25.5 -39.2,55.5 -46.8,91.4c-2.5,11.5 -2.7,14.4 -2.8,36c0,25.3 1.1,33.9 7,54.3c4.6,15.7 14.7,37.4 23.7,50.5c4.5,6.6 4.6,4.1 0.1,-3c-8.5,-13.5 -8.2,-14.5 0.4,-1.3c18.7,28.4 42.9,49.9 73.2,65.1c10.5,5.2 13.8,6.4 12.6,4.5c-0.3,-0.6 3.2,0.4 7.7,2c11.1,4.1 26,7.6 39.6,9.4c13.4,1.8 12.2,1.7 12.2,0.6c0,-0.5 -3.3,-1.2 -7.2,-1.6c-28.2,-2.7 -58.3,-13.3 -82,-28.8c-10.7,-6.9 -23.7,-17.3 -24.5,-19.5c-0.4,-0.9 -4.5,-5.8 -9.2,-10.8c-11.8,-12.4 -20.8,-25.4 -29.1,-41.8c-22.1,-43.8 -25.9,-91.6 -11,-138.1c1.8,-5.5 4.3,-12.5 5.7,-15.4c1.3,-3 2.1,-6.1 1.8,-6.9c-0.3,-0.8 1.8,-5.5 4.6,-10.4c11.3,-19.8 30.1,-41.7 47.2,-54.9c8.9,-6.9 20.5,-14.4 21.2,-13.7c0.2,0.2 -3.3,3 -7.8,6.3c-13.3,9.8 -31.1,28.2 -40,41.5c-12,18.1 -21.1,39.6 -25.1,58.9c-0.8,4.1 -2,7.7 -2.7,8.1c-3,1.9 -4.8,29.9 -2.9,46.5c0.6,6 1.3,13.1 1.5,15.7c0.5,6 4.5,20.9 8.5,31.3c17.8,46.1 55.8,83.3 102.8,100.5c4.8,1.7 8.2,2.5 8,1.8c-0.2,-0.6 -2.9,-2 -5.9,-3c-8.2,-2.7 -19.9,-8 -19.9,-8.9c0,-0.4 -4.2,-3.2 -9.2,-6.2c-16.7,-9.8 -29.1,-20 -41.6,-34c-27.5,-30.8 -43.7,-74.1 -43,-114.9c0.1,-8.6 0.2,-8.2 0.9,4.7c1.8,35.1 10.9,62.3 30.3,91c8.4,12.6 31.4,35.5 43.7,43.5c9.8,6.5 27.7,15.8 34.3,18c2.7,0.9 3.4,1.5 2.5,2.1c-1.6,0.9 0,1.6 10.6,4.7c40.7,11.9 85.4,8.2 122.8,-10.4c11.4,-5.6 20.7,-11.3 20.7,-12.6c0,-0.6 -1,-0.4 -2.2,0.4c-7.7,5 -21.7,12.3 -30.5,15.8c-5.7,2.2 -10.5,4 -10.8,4c-2,0 3.9,-4 8,-5.4c12.6,-4.6 34.2,-16.8 44.9,-25.5c2.1,-1.7 4.4,-3.1 5.1,-3.1c2.6,0 23.8,-23.5 31.1,-34.5c24,-36.2 33.6,-79.3 26.8,-121.5c-0.7,-4.7 -0.9,-8.6 -0.4,-8.8c1,-0.4 -2.1,-12 -6,-22.1c-3.8,-9.7 -3.1,-10.4 0.8,-0.9c8.7,21.1 12.2,37.8 12.9,61.8c0.7,24.1 -1.7,41.2 -8.6,61.8c-2.1,6 -1.1,8.1 1.2,2.4c2.2,-5.4 7.5,-27.6 8.7,-35.7l0.9,-7l-0.5,7c-1.6,24.4 -14.9,59.7 -30.9,82c-8.7,12.1 -23,28.2 -31.3,35.1c-8.8,7.4 -22.7,16.6 -32.7,21.7c-4.4,2.2 -7.4,4.2 -6.8,4.4c0.7,0.3 5.9,-1.9 11.5,-4.8c5.7,-2.9 11.3,-5.7 12.5,-6.2c4.3,-1.9 19.3,-13.9 27.9,-22.4c41.6,-41 61,-98.5 52,-154.2c-7.5,-46.1 -28.2,-84.3 -60.8,-111.9c-13.1,-11.1 -13.6,-11.6 -7.8,-7.7c14.5,9.9 29.4,24.3 41,39.6c41.2,54.7 51.1,123.6 26.6,186.7c-4,10.4 -3.6,13.3 0.5,3.7c8.8,-20.6 12.8,-40.2 15.3,-75c0.2,-2.8 0.2,1.3 0,9c-0.2,7.7 -0.8,17.4 -1.4,21.5c-3.2,23.2 -12.8,49.9 -25.4,71.4c-15.1,25.7 -38,49.4 -63.1,65.5c-4.4,2.8 -7.4,5.1 -6.7,5.1c1.6,0 13.5,-7.6 21.5,-13.7c8.6,-6.6 25.5,-21.8 29.6,-26.6c27.8,-32 43.8,-71.2 47.4,-116.2c0.3,-2.9 0.4,-2.4 0.5,1.9c0.7,22.5 -11.9,65.2 -25.8,87.8c-1.7,2.8 -2.9,5.3 -2.5,5.6c0.9,0.9 3.1,-2.7 9.4,-15.3c7.2,-14.4 11.3,-25.2 15.2,-40.3c8.6,-33.4 7.8,-73.8 -2.1,-105.9c-1.1,-3.6 -1.8,-6.8 -1.6,-7.1c0.6,-0.5 5,13.9 7.5,24.8c2,8.5 3.4,18.3 4.6,31.7c0.4,4 1.1,7.3 1.6,7.3c2.1,0 -1.8,-30.2 -6.1,-46.5c-3.9,-15 -8.2,-26.6 -15.1,-40.3c-6,-12 -7.2,-15.8 -2.4,-7.6c13.5,23.1 22.9,49.6 27.1,76.9c3.3,21.5 1.8,57.4 -3,73.2c-0.8,2.6 -2.8,9.6 -4.5,15.4c-7.1,24.8 -24.6,57.7 -38.2,71.7c-2.3,2.3 -2.7,3.2 -1.6,3.2c0.9,0 2.1,-0.9 2.7,-2c0.6,-1.1 2.2,-3.2 3.6,-4.7c8.4,-9 23.4,-35.2 30,-52.5c2,-5.1 3.9,-9.8 4.4,-10.3c0.4,-0.6 1.6,-4.2 2.6,-8c1,-3.9 2,-6.3 2.2,-5.4c0.6,3.1 -9.6,31.8 -15.6,43.8c-3.3,6.6 -8.6,15.9 -11.7,20.7c-9.7,14.9 -9.2,14.1 -7.2,12.5c3.1,-2.5 13,-18.2 19.7,-31.6c14.1,-27.7 21,-54.5 22.6,-87.5c0.5,-11.1 0.2,-16.3 -1.5,-28.9c-4.4,-30.8 -9.5,-48.9 -20.1,-70.9c-3.3,-6.7 -5.6,-12.1 -5.1,-11.8c1.4,0.9 12.9,25 16.5,34.9c4.8,12.7 8,25.1 10.8,40.6c2.9,16.8 3.2,49 0.5,65.6c-2.2,13.3 -5.6,26.9 -9.7,38.9c-1.6,4.9 -2.8,9.2 -2.5,9.4c0.8,0.8 1.1,0.2 4.3,-9.3c8.3,-24.5 11.6,-44.7 11.6,-71c-0.1,-26 -3.2,-45.7 -11.1,-69.1c-2.4,-7.3 -3.2,-10.9 -2.4,-11.3c1.5,-1 -10.7,-25.1 -19.1,-37.6c-3.6,-5.5 -9.9,-14.1 -13.9,-19c-4,-5 -6.5,-8.3 -5.5,-7.5c3.9,3.1 18.2,21 25.5,32c18,26.9 29.8,56.8 35.2,89.1c1.2,7.3 2.7,13.7 3.3,14.1c0.8,0.5 1.1,8.7 1.1,26c-0.1,28.4 -1.3,38 -8,62.2c-1.9,7.1 -3.3,13.1 -3.1,13.3c0.9,0.9 6.6,-18.8 9,-30.9c2.9,-14.3 4.6,-29.6 4.6,-41.3c0,-5.4 0.4,-8.5 1.1,-8.7c2.7,-0.9 -2.5,-38.3 -8.1,-58c-8.3,-29.6 -25.6,-62.5 -45.1,-85.8c-3.4,-4.1 -5.2,-6.6 -3.9,-5.5c10.4,9 37.7,48.6 38.5,55.9c0.2,1.1 2.3,6.8 4.7,12.6c12.4,29 17.7,53.8 18.5,86.1c0.6,22.7 -0.5,37.3 -4.1,54.9c-1.3,6.1 -1.9,11 -1.5,11c0.4,0 1,-0.8 1.2,-1.8c0.4,-1.6 0.5,-1.6 0.6,0.1c0.3,4.4 2,-0.1 3.6,-9c0.9,-5.4 2.1,-10.5 2.5,-11.5c3.4,-6.4 3.7,-49.1 0.5,-69.3c-6.5,-41.7 -22.7,-80 -47.5,-112.5c-9.9,-13 -22.2,-26.2 -23.7,-25.5c-0.9,0.3 -4.4,-2.2 -9.1,-6.6c-4.3,-3.9 -12.2,-10.4 -17.7,-14.5c-5.5,-4.1 -10.9,-8.2 -11.9,-9.1c-1.1,-0.9 -5.6,-3.8 -10,-6.4c-10.6,-6.4 -9.1,-6.3 2.6,0.2c20.8,11.5 37.8,24.7 57.3,44.3c26.5,26.7 44.1,53.5 57.5,87.8c2.6,6.6 5,11.7 5.3,11.2c0.9,-1.5 -6.7,-20.6 -13.7,-34.9c-7.7,-15.4 -19.1,-33.1 -30.3,-47c-8.9,-11 -29.3,-31.3 -39,-38.9c-6.7,-5.2 -8.8,-7.7 -2.5,-3c19.8,14.8 44.1,38.5 57,55.7c27.2,36.1 45.5,78.9 51.7,120.7c2,13 2.5,15.2 3.2,13.2c0.7,-1.9 -1.3,-15.5 -4.3,-29.2c-2.8,-12.3 -10.2,-36.1 -14,-44.9c-1.4,-3 -2.2,-5.6 -2,-5.8c0.6,-0.6 7.3,16 11.2,27.7c6.5,19.4 13.4,52.8 13.4,65.2c0,2.1 0.5,3.8 1.1,3.8c1.3,0 0.6,-8 -2.2,-26.2c-4.7,-29.9 -14.2,-59.1 -27.5,-84.6c-4.2,-8.1 -5.9,-12.2 -5,-12.2c1.6,0 7.7,10.2 15.1,25c5.3,10.6 5.3,10.6 6.1,9.7c1.1,-1.1 -14.2,-29.3 -23.7,-43.7c-30.5,-45.7 -72.9,-81.3 -122.9,-103.1c-5.5,-2.4 -9.8,-4.5 -9.6,-4.7c0.7,-0.6 24.1,9 35.1,14.5c15.7,7.8 38.6,21.6 38.1,22.9c-0.3,0.6 5,5.4 11.7,10.5c14.9,11.5 40.6,36.7 51.7,50.8c22.5,28.6 41.1,63.3 52.1,97.5c6.6,20.6 6.2,19.6 6.6,16.6c0.2,-1.4 -1.8,-9.3 -4.5,-17.5c-11.9,-36.2 -29.3,-68.5 -52.8,-98c-8.7,-10.8 -30,-33 -41.9,-43.5c-5.2,-4.6 -5.3,-4.8 -1,-1.5c9.2,7.1 23.9,20.2 31.9,28.4c4.3,4.5 8.1,8.1 8.5,8.2c1,0.1 12.4,13.8 21.2,25.6c13.9,18.5 28,42.7 37,63.3c3.7,8.5 3.7,8.5 4.4,7.8c0.8,-0.8 -6.6,-17.3 -13.2,-29.8c-18.1,-34.1 -43.1,-66.4 -69.9,-90.3c-6.2,-5.6 -11.4,-10.7 -11.4,-11.2c-0.1,-2.4 -29.1,-22.2 -47.5,-32.4c-14.6,-8.1 -12.4,-7.8 3.2,0.5c40.4,21.3 70.5,44.3 98.7,75.2c21.9,24 37.4,45.4 52,71.7c3.6,6.6 6.6,11.3 6.6,10.6c0,-3.6 -16.3,-31.3 -29.1,-49.3c-4.3,-6.2 -6.5,-9.7 -4.9,-7.8c3.7,4.2 19.6,26.4 20.3,28.2c0.2,0.7 0.7,1 1.1,0.6c1.4,-1.3 -16.2,-26.1 -31.2,-43.8l-6.3,-7.5l7.1,7.5c12.8,13.5 30.5,37.4 43.2,58.4c2.6,4.5 4.8,7.5 4.8,6.7c0,-1.8 -8.2,-15.5 -17.4,-29.1c-16.2,-23.9 -42,-52.8 -64.5,-72.3c-8.7,-7.4 -22.4,-18.1 -36.1,-28c-6.2,-4.4 1.6,0.4 12.3,7.6c24,16.4 54.4,43 71.7,63c3.6,4.1 6.8,7.3 7.3,7c1.1,-0.6 -9.4,-12.5 -24.3,-27.3c-6.9,-6.8 -12.4,-13 -12.2,-13.6c0.3,-1.4 -8,-8.7 -21.9,-19c-16.6,-12.4 -17.3,-13.1 -4.1,-4.3c6.7,4.5 18.2,13 25.5,18.8c15.6,12.5 46.6,43 59.7,58.9c5.1,6.2 9.5,11.1 9.7,10.8c0.8,-0.8 -13.4,-17.9 -26.5,-32.1c-42.7,-46.3 -103,-86.6 -159.7,-106.4c-8.3,-3 -13.2,-5.3 -7.5,-3.6c17.8,5.2 54.7,20.6 75.9,31.6c9.1,4.8 15.7,7.6 16,7c0.7,-1.1 19.7,9.6 36.2,20.4c20.7,13.5 45.3,32.8 63.7,49.7c4.6,4.3 8.8,7.8 9.5,7.8c0.6,0 2.3,1.2 3.9,2.7c1.5,1.4 3,2.4 3.3,2.1c1.3,-1.2 -33.7,-32.1 -51.5,-45.4c-12.7,-9.5 -31.6,-22.4 -32.8,-22.4c-0.5,0 -5.9,-3 -11.8,-6.7c-6,-3.7 -19.4,-11.1 -29.9,-16.5c-10.4,-5.3 -18.7,-9.8 -18.3,-9.8c0.4,0 7.2,2.9 15,6.5c23.7,10.9 51.4,26.4 73,41.1c6,4 11,6.9 11.3,6.4c0.3,-0.4 -5.9,-5 -13.8,-10.2c-45.8,-30.5 -93.6,-52.5 -146.2,-67.3c-10.4,-3 -18.2,-5.4 -17.2,-5.4c2.8,-0.1 42.7,10.3 59.7,15.6c9.3,2.9 15.5,5.3 15.5,6.1c0,0.7 7.8,4.3 17.5,8.2c9.6,3.9 28.3,12.4 41.5,18.9c23.1,11.5 50.6,27.2 51.3,29.2c0.2,0.6 5.8,4.6 12.4,9c6.6,4.5 16.7,11.7 22.5,16.1c10.1,7.6 12.2,8.7 11,5.4c-1.5,-3.8 -42.6,-31.9 -68.2,-46.6c-17,-9.7 -44,-23.2 -59.2,-29.6c-5.1,-2.1 -9,-4 -8.9,-4.2c0.5,-0.4 22.9,8.7 36.6,14.9c6.5,2.9 10.9,4.4 11.6,3.8c1.3,-1.1 33.1,14.6 54.7,27c15.9,9.2 17.3,9.8 16.3,8.2c-0.6,-1 -23.5,-14.5 -30.3,-18c-2.4,-1.2 -4.3,-2.7 -4.3,-3.5c0,-1.1 -29,-15.8 -39.8,-20.1c-2.4,-1 -4.1,-1.9 -3.9,-2.2c1.6,-1.5 62.3,27.3 86.6,41.2c13.8,7.9 19.7,9.9 7.2,2.5c-3.9,-2.3 -7.1,-4.4 -7.1,-4.7c0,-0.2 3.3,1.4 7.4,3.6c4,2.3 8,4.1 8.7,4.1c2.3,0 -22.2,-13.5 -45.5,-25.1c-12,-6 -22.2,-10.6 -22.7,-10.3c-0.5,0.3 -9.8,-3.3 -20.6,-7.9c-18.2,-7.8 -57.9,-22.7 -60.4,-22.7c-0.5,0 -2.9,-0.9 -5.2,-1.9c-2.3,-1.1 -10.4,-3.6 -18,-5.7c-7.7,-2.1 -13.4,-4 -12.9,-4.2c3.8,-1.2 84.9,21.6 98.7,27.8c2.2,1 10.3,4.2 18,7c15,5.7 43.3,17.7 60.8,25.9c5.9,2.7 10.7,4.7 10.7,4.3c0,-1.4 -40.3,-20.4 -59,-27.9c-23.5,-9.5 -62.6,-22.6 -88.9,-29.7c-11.2,-3.1 -21.1,-5.6 -21.9,-5.6c-0.8,0 -1.3,-0.3 -0.9,-0.6c0.7,-0.8 27.9,5.3 51.8,11.7c20.3,5.4 19.9,5.3 19.9,4.1c0,-0.5 -5.5,-2.4 -12.2,-4.2c-6.8,-1.8 -12.7,-3.6 -13.3,-4.1c-0.5,-0.4 -2.8,-1.1 -5,-1.5c-2.2,-0.4 -3.5,-0.9 -2.8,-1.1c1.6,-0.6 62.1,14.4 82.3,20.3c8.5,2.5 24.2,7.5 34.9,11c10.6,3.6 19.6,6.2 19.9,6c0.7,-0.7 -1.9,-1.6 -26,-9.7c-20.3,-6.7 -58.2,-17.9 -72.6,-21.4c-4,-0.9 -7.1,-1.9 -6.8,-2.2c1,-1.1 58.9,14 89.5,23.3c7.9,2.4 14.9,4.4 15.5,4.4c2.6,-0.1 -3.2,-2.2 -19.9,-7.4c-49.6,-15.3 -110.5,-29.3 -165,-38c-20.9,-3.4 -15.3,-3.2 13.1,0.4c47.4,6 110,16.7 111.4,19c0.4,0.6 6.7,2.4 14.1,4.1c7.4,1.6 21.7,5 31.8,7.4c10.1,2.5 18.8,4.5 19.5,4.5c3.8,-0.1 -4.8,-2.6 -25.1,-7.6c-12.8,-3.1 -23.1,-6 -22.8,-6.4c0.7,-1.1 0.2,-1.3 -26,-6.4c-24.3,-4.8 -64.2,-11.5 -81,-13.7c-5.5,-0.8 -9.2,-1.5 -8.3,-1.7c4.9,-1 92.1,11.4 136.3,19.3c25.8,4.6 28.3,5 27.1,3.8c-0.3,-0.4 -10.9,-2.6 -23.4,-4.9c-27.6,-5.2 -26.4,-5.7 2.2,-0.9c18.6,3.1 23,3.5 21.5,2.1c-0.7,-0.6 -55.3,-9.4 -81.4,-13c-32.4,-4.5 -88.3,-10.8 -91,-10.3c-1.1,0.3 -6.7,-0.1 -12.5,-0.8l-10.5,-1.3l10.3,0.5c6.7,0.4 10.2,0.2 10.2,-0.5c0,-1 -7.2,-1.7 -31.3,-3.2c-10.8,-0.6 -11.3,-0.7 -4.2,-0.8c13.8,-0.3 132.5,3.2 152.8,4.4c6,0.3 9.7,0.2 9.7,-0.4c0,-1 -7.7,-1.5 -64,-3.7l-33.5,-1.4l60.5,0.5c33.3,0.2 66,0.7 72.8,1c10.8,0.6 12.2,0.5 12.2,-0.9c0,-1.5 -3.9,-1.7 -37.7,-2.1c-20.8,-0.3 -45.9,-0.9 -55.8,-1.3c-17.4,-0.8 -16.5,-0.8 30.4,-2c26.6,-0.7 48.6,-1.5 48.9,-1.8c0.3,-0.3 0.3,-0.7 0.1,-0.9c-0.2,-0.2 -14.3,0 -31.4,0.5c-29.9,1 -94,0.4 -97.1,-0.8c-0.8,-0.3 -15.3,-0.1 -32.2,0.5c-16.9,0.5 -38.3,1 -47.7,1c-16.9,-0.1 -16.9,-0.1 -6.5,-0.9c17.3,-1.4 41.3,-3.9 61.9,-6.5c10.6,-1.3 20.8,-2.2 22.5,-1.9c8.7,1.7 144.6,-19.7 144.6,-22.7c0,-0.5 -0.8,-0.7 -1.7,-0.4c-3.3,1 -46.7,8.4 -69.8,12c-31.1,4.8 -38,5.3 -15.5,1.2c22.5,-4.1 32.9,-6.2 57,-11.6c10.2,-2.2 19.4,-3.8 20.6,-3.6c1.1,0.3 3.8,0 6,-0.6l3.9,-1.1l-3.8,-0.9c-3.1,-0.6 -8.4,0.1 -25,3.6c-40.4,8.5 -60.3,12.2 -92.7,17.1c-20.2,3 -54.8,7.5 -56.9,7.4c-0.9,0 8.5,-1.8 20.9,-3.9c25,-4.3 53.1,-9.8 53.9,-10.5c1.4,-1.5 -1.6,-1.3 -10.4,0.5c-17.7,3.6 -13.4,2 7.7,-3c24.4,-5.7 56.5,-14.4 76.8,-20.7c8,-2.5 16.6,-5.2 19.3,-5.9c2.6,-0.8 4.7,-1.9 4.7,-2.3c0,-0.5 -7.1,1.3 -15.7,4c-8.7,2.7 -16.2,4.8 -16.6,4.6c-0.5,-0.1 5.3,-2.2 12.7,-4.7c7.4,-2.4 13.3,-4.7 13,-5.1c-0.2,-0.4 -3.7,0.3 -7.7,1.7c-38.3,13.2 -103.4,29.5 -154.6,38.9c-23.4,4.2 -28.8,4.5 -10.1,0.4c35.8,-7.8 66.3,-16.2 102.5,-28.4c27.9,-9.3 32.5,-11.1 32.5,-12.5c0,-0.5 -1.5,-0.3 -3.2,0.5c-7.8,3.2 -46.9,16.1 -63.9,21c-27.7,8 -75.7,19.7 -80.1,19.4c-0.7,0 7.2,-2.3 17.6,-5c10.3,-2.7 24.7,-6.7 32,-9c7.2,-2.2 14.8,-4.2 16.9,-4.5c7.8,-1 52.7,-17.7 82.2,-30.6c26.6,-11.7 37.4,-17.4 37.2,-19.8c-0.1,-1.1 -0.3,-2 -0.4,-2c-0.2,0 -4.9,2.3 -10.6,5.1c-23.4,11.8 -67.8,31 -59.7,25.9c0.8,-0.5 1.2,-1.1 0.9,-1.4c-0.3,-0.4 -5,1.2 -10.5,3.5c-9.8,4 -44.8,16.9 -45.9,16.9c-0.3,0 -0.5,-0.6 -0.5,-1.4c0,-1 -4.8,0.2 -17.7,4.5c-9.7,3.3 -18.1,5.9 -18.7,5.9c-0.6,0 7.2,-3.1 17.4,-6.9c39.5,-14.5 73.9,-30.8 109.3,-51.8c6,-3.6 10.6,-6.7 10.3,-7c-0.2,-0.3 -7.4,3.4 -15.8,8.3c-35.8,20.6 -74.3,38.2 -112.2,51.3c-14.5,5 -44.5,14.1 -46.2,14.1c-0.5,-0.1 6.8,-2.7 16.1,-5.9c37.9,-13 63,-24.3 91.9,-41.1c6.6,-3.9 12.1,-7 12.4,-7c0.7,0 17.9,-10.8 27.7,-17.3c10,-6.7 29.2,-20.7 37.3,-27.4c9.2,-7.4 3.2,-4.7 -7.3,3.3c-35.5,27.1 -75.6,50.9 -114,67.9c-7.1,3.1 -15.7,7 -19,8.5c-14.5,6.6 -55.1,19.8 -79.2,25.6c-18.1,4.4 -20.4,4.3 -4.3,-0.2c30.8,-8.6 57.8,-18.8 84.4,-32c8.3,-4.1 15.6,-7.2 16.3,-6.9c2.8,1 41.1,-21.9 62.3,-37.3c20.7,-15.1 56,-45 56,-47.5c0,-0.5 -2.6,1.4 -5.7,4.3c-28.5,25.5 -57,47.2 -78.8,60c-6.2,3.6 -3,1 8,-6.5c14.8,-10.1 26.7,-19.3 25.8,-19.8c-0.5,-0.3 -4.4,2.2 -8.8,5.4c-9.8,7.4 -28.5,20.2 -28.5,19.5c0,-0.2 3.7,-3 8.3,-6.2c9.9,-6.9 22.5,-16.6 32.7,-25.3c11.4,-9.6 31.2,-28.3 30.6,-28.9c-0.3,-0.3 -5.4,4 -11.3,9.5c-32.2,29.7 -61,50.5 -99.5,71.7c-3.8,2.1 -6.8,3.5 -6.8,3.3c0,-0.3 3,-2.2 6.8,-4.3c15.7,-8.7 52.6,-34.2 57.7,-39.9c1.1,-1.2 7.4,-6.9 14,-12.7c17.3,-15.2 49.4,-49.2 47.9,-50.8c-0.3,-0.3 -1.7,0.8 -3.1,2.5c-30.3,36.2 -71.3,71.5 -109.8,94.4c-22.3,13.2 -26.3,14.8 -6.5,2.5c25.2,-15.7 48.9,-34.5 72.2,-57.3c9.3,-9 16.8,-17 16.8,-17.8c0,-0.8 2.6,-4.4 5.8,-8.1c3.2,-3.7 8.6,-10.6 12.1,-15.2c3.6,-4.7 6.9,-9.1 7.5,-9.9c0.8,-1 0.8,-1.3 0,-1c-0.6,0.2 -4.6,4.9 -8.9,10.4c-37.4,48.1 -85.1,87.2 -139.6,114.5c-16.7,8.4 -34,16.2 -34.5,15.7c-0.3,-0.2 1.8,-1.4 4.6,-2.5c2.7,-1.1 5,-2.7 5,-3.4c0,-0.8 2.5,-2.6 5.6,-4.1c3.1,-1.6 11.3,-6.2 18.1,-10.3c6.8,-4.1 12.8,-7.2 13.4,-6.9c1.1,0.7 14.7,-8.6 30,-20.5c19.5,-15 45.5,-40.9 61.4,-61c13.3,-16.7 33.7,-48.2 32.2,-49.6c-0.3,-0.3 -1.3,0.9 -2.3,2.8c-2.7,5.4 -18,28.4 -24.6,37.2c-16.8,22.2 -40.9,47.4 -59.8,62.5c-7,5.5 -8.4,6.4 -4,2.5c28.8,-25.8 55.5,-56.7 70.9,-82.2c6.8,-11.3 4.3,-9.5 -3.6,2.5c-8,12.3 -17.9,25.6 -26.5,35.8c-7.8,9.2 -29.8,31.5 -31.1,31.5c-0.5,0 -4.2,2.9 -8.1,6.3c-10,9 -25.4,20.8 -37.1,28.7c-15.1,10.1 -17.7,11 -4,1.5c18.8,-13.1 39.8,-31.6 54.3,-47.8c10.9,-12.2 21.2,-24.8 21.2,-26c0,-1.9 -2.1,0.1 -9,8.9c-4.1,5.2 -9.3,11.1 -11.5,13.2l-3.9,3.7l4,-4.5c13.9,-15.7 31.6,-42 42.2,-62.7c9.6,-18.7 16.5,-34.9 13.6,-32c-0.3,0.3 -3.2,6.4 -6.4,13.6c-10.5,23.4 -25.5,48.1 -42,69.1c-10.4,13.2 -38.4,41.3 -51.5,51.6c-9.7,7.7 -26.9,19.7 -35,24.4c-5.9,3.4 -3.3,1.3 8.3,-6.9c10.9,-7.7 18.1,-13.5 29.4,-23.6c3.9,-3.5 7.6,-6.1 8.3,-5.9c1.5,0.6 19.1,-17.9 30.1,-31.6c22.7,-28.4 42.7,-65.3 53.4,-98.6c3.4,-10.7 3.5,-11.4 1.6,-11.4c-0.8,0 -1.9,2 -2.6,4.7c-2.2,9 -11.2,31.8 -18,45.8c-6.7,13.8 -18.7,34.6 -21.7,37.5c-0.8,0.8 0.1,-1 2,-4c4.2,-6.8 11.7,-20.4 11.7,-21.4c0,-1.9 -2.2,1.1 -6,8.1c-6.3,11.3 -19.9,31.1 -29.7,43.1c-10.1,12.4 -31.8,34.1 -38.9,39.1c-3.7,2.6 -2.5,1.1 4.7,-5.7c16.4,-15.5 33,-35.8 45.6,-55.5c11.6,-18.3 29.3,-56.5 30.9,-67c0.6,-4.4 -0.6,-1.8 -5.1,10.8c-9.1,25.2 -28,58.5 -46,81c-8.6,10.8 -29.6,32.3 -38.5,39.5c-3,2.5 0.2,-1.1 7.3,-8c11.6,-11.4 15.3,-16.2 11.1,-14.6c-0.8,0.3 0.4,-1.8 2.9,-4.7c11.1,-13.1 24.9,-34 32.6,-49.5c1.7,-3.4 3.5,-6.2 4,-6.2c1.1,0 9.1,-18.8 13.3,-30.9c4.1,-12.1 8.4,-29.1 10.7,-42.4c2.2,-12.3 3.7,-32 2.2,-27.7c-0.5,1.4 -0.9,4.7 -1,7.4c-0.1,3.5 -0.4,4.7 -1.4,4.3c-1,-0.4 -1.6,2 -2.5,9.2c-1.8,14.3 -5.7,30.8 -11.1,47.1c-4.8,14.3 -14.9,38.1 -17.7,41.7c-0.8,1 0.1,-1.4 1.9,-5.2c13.6,-27.8 23.1,-63.1 25.6,-95.4c1.3,-16.2 1.3,-16.1 0.2,-16.1c-0.4,0 -1.1,5.1 -1.5,11.3c-3.6,60.5 -28.1,117.6 -70.1,163.8c-4.4,4.8 -9.3,9.8 -11,11.1c-1.6,1.2 0.8,-1.8 5.5,-6.8c16.6,-17.6 29.7,-36.9 41.5,-60.9c7.7,-15.7 9.2,-19.5 7.8,-19.5c-0.5,0 -2,2.6 -3.2,5.7c-10.8,26.9 -32.8,59 -55.7,81.3l-10.8,10.5l8.5,-9c16.5,-17.7 30.2,-36.6 40.5,-56c2.6,-5 5.6,-10.1 6.5,-11.3c2.6,-3.4 11.2,-25.9 14.7,-38.7c7.2,-25.8 9.8,-47.5 8.8,-75.5c-0.6,-19.9 -1.2,-26 -2.6,-26c-0.4,0 -0.5,2.1 -0.2,4.6c0.2,2.5 0.1,4.9 -0.5,5.3c-0.5,0.3 -0.7,5.6 -0.3,13.1c0.7,13.6 -0.5,40.7 -2,45.5c-0.6,2.2 -0.8,1.2 -0.4,-4c0.3,-3.9 0.7,-8 1,-9.3c0.2,-1.2 0,-2.2 -0.5,-2.2c-0.5,0 -1.2,2.6 -1.6,5.7c-3.6,33.3 -10.6,58.3 -24,85.8c-12.8,26.1 -28.1,47.2 -49.2,67.5c-19.5,18.8 -36.8,31.2 -59.1,42.4c-13,6.5 -16,7.4 -5.3,1.5c34.9,-19 64,-46.7 83.1,-79c2.9,-4.9 5.9,-8.9 6.5,-8.9c1.7,0 12.1,-22.2 16.5,-35.5c4.3,-12.7 8.2,-29.4 10.2,-43c1.9,-13.4 1.6,-45.5 -0.6,-59.5c-3.3,-21.1 -12.4,-51.5 -16.6,-55c-0.9,-0.8 -2.6,-3.4 -3.6,-5.8c-1,-2.3 -2.1,-4.2 -2.6,-4.2c-0.4,0 0.4,2.6 1.8,5.7c7.9,17.7 14.9,40.5 17.5,57.8c0.7,4.4 1.7,8.3 2.3,8.7c2,1.3 1.4,43.4 -0.7,56.3c-2,11.7 -6.7,31.8 -7.3,31.2c-0.3,-0.2 0.5,-4.2 1.6,-8.8c4.5,-19.1 5.4,-27.7 5.4,-50.4c0,-16.3 -0.5,-24.6 -1.7,-32c-2,-11.6 -2.5,-13.5 -3.6,-13.5c-0.5,0 -0.3,2.8 0.4,6.2c4.9,23.2 4.6,55.1 -0.6,81c-2.7,13.7 -8.3,31.4 -9.7,31c-0.7,-0.1 -1.2,0.3 -1.2,0.9c0,1.6 -9.2,23.1 -9.6,22.6c-0.3,-0.2 0.9,-3.4 2.5,-7c1.6,-3.6 4.6,-11.7 6.5,-17.9c2,-6.2 4,-12 4.6,-12.9c0.5,-1 1.8,-6.4 2.9,-12c9.9,-51.5 0.5,-103.8 -26.7,-149.2c-2.7,-4.4 -5.2,-7.5 -5.9,-7.3c-0.7,0.3 -2,-0.8 -3,-2.4c-0.9,-1.7 -2.1,-3 -2.6,-3c-0.5,0 -0.1,1.2 0.9,2.7c15.6,23.7 26.6,47.4 31.4,68.3c0.7,3 1.8,6.2 2.6,7c1.4,1.7 3.3,12.6 3.1,18.5c0,2.2 0.2,11 0.5,19.5c0.4,8.5 0.4,13.8 0.2,11.7c-0.9,-6.5 -2.4,-4 -2.4,3.9c0,10.5 -2,26.7 -3.4,27.9c-0.6,0.5 -2.2,5.7 -3.4,11.5c-10.8,49.3 -42.6,96.5 -83.5,123.8c-8.6,5.8 -9.7,6.4 -9.7,5.9c0,-0.3 3.3,-2.9 7.3,-5.9c4,-3 10.8,-8.6 15.1,-12.4c4.3,-3.8 8.4,-6.8 9.1,-6.6c0.8,0.1 5.2,-4.1 10,-9.5c20.3,-22.9 35.5,-51.7 42.9,-80.8c11.3,-45.1 6.3,-94 -13.6,-134c-5.1,-10.1 -11.4,-20.9 -13.3,-22.8c-0.8,-0.9 -3.9,-4.7 -6.8,-8.7c-3,-3.9 -8.6,-10.7 -12.6,-15c-7.7,-8.5 -26.8,-25 -28.9,-25c-0.7,0 2.2,2.8 6.5,6.2c27.2,21.4 51.1,55 62.3,87.4c8.4,24.2 12.1,52.6 10.1,76.4c-2.2,26.2 -8.8,50.5 -19.7,72.3c-5.1,10.1 -15.7,27.7 -16.8,27.7c-0.2,0 2.5,-4.8 6,-10.7c10.6,-17.8 19.6,-42.4 23.4,-63.8c4.6,-26.5 2.6,-57.8 -5.4,-85.7c-2.6,-8.9 -11.7,-30.9 -14.1,-34.2c-3,-4 -2.2,-0.8 2.2,8.3c16.9,35.4 22,77.8 14.2,116.6c-2,10 -7.7,28.4 -10.4,34c-1.7,3.4 -1.5,2.6 2.6,-9.8c10.4,-31.8 11.5,-69.4 2.9,-102.2c-1.2,-4.4 -2.5,-8.2 -2.9,-8.5c-0.4,-0.3 -1.8,-3.4 -3,-7c-3.7,-10.2 -10.2,-23.7 -16.5,-33.7c-3.1,-5.1 -5.5,-9.7 -5.2,-10.2c0.9,-1.4 -9.2,-14 -19.8,-24.7c-25.4,-25.3 -55.7,-41.9 -90.8,-49.8c-13.1,-2.9 -12.2,-2.8 -13.1,-1.9zM168.31514,-183.46109c-6.8,0.2 -31.6,11.3 -45.8,20.5c-10,6.5 -9.7,6.2 -9,6.9c0.2,0.3 4.2,-2 8.8,-5c11,-7.2 26,-14.6 38.5,-19c5.5,-1.9 8.9,-3.5 7.5,-3.4zM130.31514,-178.56109c-0.5,0 -1,0.5 -1,1.1c0,0.5 0.5,0.7 1,0.4c0.6,-0.3 1,-0.8 1,-1.1c0,-0.2 -0.4,-0.4 -1,-0.4zM328.21514,-178.56109c-0.5,0 -0.7,0.4 -0.4,1c0.3,0.5 0.8,1 1.1,1c0.2,0 0.4,-0.5 0.4,-1c0,-0.6 -0.5,-1 -1.1,-1zM186.31514,-171.56109c-12.2,2.6 -25.7,6.7 -26.6,8.2c-0.5,0.7 -0.1,0.9 1.2,0.5c22.3,-7.2 35.4,-9.6 55.4,-10.4c14.9757,-0.51463 29.92491,0.85113 44.27519,4.00186c13.53445,2.97161 26.53614,7.531 38.52481,13.59814c3.4,1.7 6.2,2.6 6.2,2c0,-1.3 -13.6,-7.7 -25.1,-11.7c-11.3,-4 -29,-7.9 -41.8,-9.2c-17.4,-1.7 -34.4,-0.7 -52.1,3zM360.71514,-159.36109c18.8,19 34.5,42.8 43.6,66.3c2.4,6.2 4,8.9 4,6.6c0,-2.3 -6.1,-16.5 -11.2,-26.1c-9.8,-18.4 -28.8,-43.3 -40.4,-52.8c-6.9,-5.7 -5.4,-3.4 4,6zM86.61514,-157.36109c-25.4,24.4 -45.1,58.2 -53.7,92.3c-3.1,12.4 -5.6,29.2 -5.6,37.5c0,9.5 1.2,6.4 2.1,-5.5c2.2,-28.2 12.4,-59.8 27,-84c7.2,-12 17.7,-25.4 28.3,-36.2c11,-11.3 12.4,-14.1 1.9,-4.1zM365.21514,-162.56109c-0.5,0 2.5,3.9 6.7,8.7c19.8,23 34.9,51.5 42.3,80.4c4.7,17.9 6.3,31.3 6.4,51.1c0,9.8 0.4,17.8 0.9,17.8c1.4,0 0.9,-34.7 -0.7,-45.5c-5.6,-39.5 -22.2,-75.4 -48.8,-105.8c-3.2,-3.7 -6.3,-6.7 -6.8,-6.7zM75.31514,-158.56109c-0.5,0 -1,0.5 -1,1.1c0,0.5 0.5,0.7 1,0.4c0.6,-0.3 1,-0.8 1,-1.1c0,-0.2 -0.4,-0.4 -1,-0.4zM71.41514,-153.56109c-1.9,0 -20.6,25.2 -19.4,26.3c0.3,0.4 3.2,-3.2 6.5,-8c3.2,-4.7 7.7,-10.8 9.9,-13.4c2.3,-2.7 3.6,-4.9 3,-4.9zM46.41514,-143.56109c-1,0 -2.4,3 -1.7,3.7c0.2,0.3 0.9,-0.5 1.6,-1.6c0.6,-1.2 0.7,-2.1 0.1,-2.1zM410.71514,-143.56109c-0.2,0 -0.4,0.4 -0.4,1c0,0.5 0.5,1 1.1,1c0.5,0 0.7,-0.5 0.4,-1c-0.3,-0.6 -0.8,-1 -1.1,-1zM43.21514,-138.56109c-1.2,0 -13.4,24.7 -17.3,35.3c-8.7,23.3 -12.6,45.5 -12.6,71.8c0,17.9 1.7,35.9 3.3,35.9c0.6,0 0.7,-1.9 0.3,-4.8c-6.1,-43.6 0.7,-85.3 20,-124c3.9,-7.8 6.8,-14.2 6.3,-14.2zM436.61514,-128.56109c-0.3,0 -0.3,0.8 0,1.7c10.7,36.4 14.2,62.4 12,90.4c-0.6,7.9 -1,14.6 -0.7,14.8c1,1.1 1.5,-1.5 2.5,-14c2,-26 -1.6,-56.3 -9.7,-82c-1.9,-6 -3.7,-10.9 -4.1,-10.9zM456.11514,-113.56109c-0.6,0 -0.8,1 -0.4,2.3c1.4,5.6 3.7,24.1 4.3,33.9c0.3,6.1 1,10.8 1.6,10.8c1.7,0 -0.3,-21.8 -3.9,-43.3c-0.4,-2 -1.1,-3.7 -1.6,-3.7zM-11.58486,-98.56109c-0.5,0 -1.1,1.5 -1.5,3.2c-2.4,13.1 -3.5,43.8 -1.6,43.8c0.6,0 1,-4.9 1,-12.8c0,-11.4 1.1,-25.8 2.5,-32c0.3,-1.2 0.1,-2.2 -0.4,-2.2zM478.51514,-89.56109c-0.8,-3.8 -1,-2.3 -1.1,9c-0.1,12.3 -1,25 -2.7,38.5c-0.4,3.4 -0.3,4.7 0.4,4c1.2,-1.3 3,-17 3.8,-34c0.3,-7.2 0.1,-15 -0.4,-17.5zM-43.78486,-68.06109c-1.1,-1.1 -1.2,2.3 -0.3,8.9c1,6.9 2.3,5.6 1.7,-1.7c-0.3,-3.4 -0.9,-6.6 -1.4,-7.2zM501.51514,-68.56109c-0.5,0 -1.2,2.6 -1.6,5.7c-0.4,3.1 -0.9,6.7 -1.2,8c-0.4,1.3 -0.2,2.3 0.4,2.3c0.5,0 1.3,-2.1 1.6,-4.8c0.4,-2.6 1,-6.2 1.3,-8c0.3,-1.8 0.1,-3.2 -0.5,-3.2zM510.81514,-55.86109c-2.2,9.9 -8.3,30.1 -11.9,39.9c-2.4,6.3 -4,11.7 -3.6,11.9c1.2,0.8 9.6,-23 14,-39.4c2.1,-8 3.9,-13.9 3.9,-13.1c0,0.8 -0.6,3.9 -1.3,6.7c-0.8,2.9 -1,5.3 -0.5,5.3c1.1,0 3.1,-7.6 2.7,-10.7c-0.4,-3.7 -2.6,-4 -3.3,-0.6zM-69.68486,-38.56109c-1.8,0 9.6,30.3 16.6,44.2c4.5,8.9 5.7,8.2 1.4,-0.9c-5.1,-10.7 -11.4,-26.1 -14.4,-35.1c-1.5,-4.5 -3.2,-8.2 -3.6,-8.2zM537.51514,-23.26109c-1.4,-0.1 -3.2,2.6 -7.1,10.5c-6.6,13.3 -16.6,29.9 -26.2,43.4c-7.5,10.5 -24.5,31.3 -29.3,35.7c-2.7,2.5 -3.3,4.1 -1.7,4.1c1.3,0 18.6,-20.2 27.2,-31.8c3.8,-5 7.3,-9.2 7.8,-9.2c1,0 12.4,-17.4 18.8,-28.5c3.7,-6.4 12.3,-23 12.3,-23.8c0,-0.1 -0.8,-0.3 -1.8,-0.4zM549.11514,-6.36109c-0.1,-0.4 -3.4,3.9 -7.1,9.6c-3.7,5.7 -6.2,10.2 -5.5,10c0.7,-0.3 3.9,-4.6 7.1,-9.6c3.3,-5 5.7,-9.5 5.5,-10zM554.21514,2.93891c-0.3,-0.2 -2.4,2.2 -4.7,5.4c-2.3,3.3 -7.8,10.5 -12.3,16.1c-4.4,5.6 -7.5,10 -6.8,9.8c1.4,-0.4 14.2,-16.3 20.6,-25.6c2,-2.8 3.4,-5.4 3.2,-5.7zM-105.98486,27.83891c1.6,2.8 19.5,21.6 20.5,21.6c0.6,0 -1.8,-3 -5.3,-6.8c-3.5,-3.7 -8.3,-8.8 -10.7,-11.5c-4.2,-4.7 -6,-6 -4.5,-3.3zM564.61514,26.43891c-0.5,0 -1.8,0.9 -2.8,2c-1,1.1 -1.4,2 -0.8,2c0.5,0 1.8,-0.9 2.8,-2c1,-1.1 1.4,-2 0.8,-2zM568.81514,41.53891c-1.3,0 -17.3,14.8 -16,14.9c0.6,0 4.6,-3.4 9,-7.5c4.4,-4 7.6,-7.4 7,-7.4zM-105.08486,54.63891c-5.9,-5.2 -10.6,-8.8 -10.4,-8.1c0.7,2.1 25.1,22.9 26.8,22.9c0.8,0 0,-1.2 -2,-2.8c-1.9,-1.5 -8.4,-6.9 -14.4,-12zM-116.18486,51.43891c-1.2,0.1 0.1,1.2 16.1,14.1c20.4,16.4 51.7,37.9 53.2,36.4c0.4,-0.3 -0.1,-1.1 -1.1,-1.6c-10.6,-6 -44.1,-30 -59.7,-42.7c-4.1,-3.4 -7.9,-6.2 -8.5,-6.2zM-122.18486,68.63891c-1.9,-1.2 -3.5,-1.8 -3.5,-1.3c0,1.1 4.9,4.3 6,3.9c0.5,-0.2 -0.6,-1.3 -2.5,-2.6zM579.61514,68.53891c-1.8,1.2 -3.3,2.5 -3.3,3c0,0.5 1.8,-0.3 4,-1.7c2.2,-1.5 4,-2.8 4,-3c0,-0.9 -1.7,-0.2 -4.7,1.7zM567.31514,88.13891c-14.1,7.9 -41.6,21.5 -54.7,27.1c-5.2,2.2 -7.7,5.1 -2.9,3.2c14,-5.3 74.6,-36.6 74.6,-38.5c0,-1.1 -2.2,0 -17,8.2zM-125.38486,97.83891c-2.9,-1.3 -5.3,-2 -5.3,-1.5c0,1.5 44.5,21.4 46.4,20.8c0.6,-0.3 0,-0.9 -1.4,-1.6c-1.4,-0.6 -9.7,-4.3 -18.5,-8.2c-8.8,-3.9 -18.4,-8.2 -21.2,-9.5zM571.41514,110.83891c-8.5,3.3 -14.7,6.2 -13.9,6.4c1.7,0.3 29.6,-10.3 31.3,-11.9c1.9,-1.9 -2.4,-0.5 -17.4,5.5zM572.11514,153.83891c-13.1,1.7 -23.8,3.4 -23.8,3.8c0,1.2 1.7,1 25.5,-2.2c12.1,-1.6 22.8,-3 23.8,-3c0.9,0 1.7,-0.5 1.7,-1c0,-1.2 1.1,-1.3 -27.2,2.4zM570.61514,175.53891c-19,-0.1 -29.3,0.3 -29.3,0.9c0,1.2 45.9,1.2 53.5,0c3.1,-0.4 -6.2,-0.8 -24.2,-0.9zM518.31514,190.23891c0,0.5 6.4,1.4 14.3,2.1c7.8,0.7 25.2,2.3 38.7,3.7c27.1,2.6 29.3,2.8 27,1.5c-1.6,-0.9 -10,-1.8 -50,-5.6c-29.8,-2.8 -30,-2.8 -30,-1.7zM584.31514,193.23891c0,0.5 3.3,1.2 7.3,1.4c6.9,0.5 8.5,0.3 7.6,-0.6c-1,-1 -14.9,-1.8 -14.9,-0.8zM597.71514,215.43891c-0.2,0 -0.4,0.4 -0.4,1c0,0.5 0.5,1 1.1,1c0.5,0 0.7,-0.5 0.4,-1c-0.3,-0.6 -0.8,-1 -1.1,-1zM538.31514,226.83891c0,0.2 6.4,2.6 14.3,5.2c7.8,2.6 20.2,6.9 27.6,9.6c7.4,2.6 13.6,4.6 13.9,4.3c0.8,-0.8 -7.5,-4 -30.9,-12c-20.4,-6.9 -24.9,-8.2 -24.9,-7.1zM21.11514,253.33891c-0.5,-1.6 -23.1,20.8 -33,32.7c-24.7,29.9 -45.6,67.5 -56.2,101.2c-4.4,14 -2.8,14.5 1.9,0.6c16.3,-48.4 44.2,-92.6 78.6,-124.8c5,-4.6 8.9,-9 8.7,-9.7zM580.81514,261.63891c-4.7,-2.3 -8.5,-3.8 -8.5,-3.4c0,0.4 3.8,2.7 8.5,5c4.7,2.3 8.5,3.8 8.5,3.4c0,-0.4 -3.8,-2.7 -8.5,-5zM-120.28486,284.43891c-0.7,0 -2.2,0.9 -3.5,2c-3.1,2.5 -1.2,2.6 2.1,0c1.4,-1.1 2,-2 1.4,-2zM512.01514,286.03891c-0.3,0.3 3.8,4.5 9.1,9.4c13.4,12.2 31.3,30.8 40,41.5c1.7,2.2 3.2,3.4 3.2,2.7c0,-1.9 -11.7,-15.1 -27.9,-31.5c-15.6,-15.8 -23.5,-23 -24.4,-22.1zM552.81514,293.43891c-1.4,0 -0.1,1.8 3.3,4.5c2,1.6 7,5.8 11,9.3c3.9,3.4 7.2,5.8 7.2,5.3c0,-0.6 -4.7,-5.1 -10.5,-10.1c-5.8,-4.9 -10.8,-9 -11,-9zM-107.78486,307.93891c-0.3,-0.2 -2.3,1.3 -4.4,3.5c-2.1,2.2 -3.6,4.2 -3.4,4.5c0.3,0.2 2.3,-1.3 4.4,-3.5c2.1,-2.2 3.6,-4.2 3.4,-4.5zM-28.58486,320.93891c-13.4,22.9 -23.6,48 -30.7,75.3c-3.6,14.2 -3.8,15.2 -2.6,15.2c0.4,0 1.8,-4.6 3,-10.3c6.5,-28.2 20.2,-61.3 35.3,-85.3c2.2,-3.4 3.9,-6.4 3.9,-6.8c0,-2.4 -2.6,1 -8.9,11.9zM-64.78486,324.23891c-12.1,17 -25.9,40.2 -25.9,43.3c0,0.8 2.8,-3.6 6.3,-9.6c8,-14.1 12.2,-20.6 21.3,-33.2c4.1,-5.6 7.4,-10.4 7.4,-10.7c0,-2 -2.4,0.7 -9.1,10.2zM534.11514,322.43891c-0.6,0 0.1,1.5 1.6,3.2c1.4,1.8 7.4,9.5 13.1,17.1c5.8,7.7 10.5,13.4 10.5,12.8c0,-1.3 -7.5,-11.8 -17.3,-24.4c-3.8,-4.8 -7.3,-8.7 -7.9,-8.7zM510.01514,337.73891c-1.6,-1 -0.6,1 7.2,14.7c3.9,6.9 9.2,17.3 11.8,23.2c4.3,9.7 6.3,12.8 6.3,9.7c0,-1.4 -14,-29.3 -19.7,-39.1c-2.5,-4.3 -5,-8.1 -5.6,-8.5zM43.91514,343.53891c-1.8,9 0.1,33.3 4,50.8c10.2,45.7 37.4,84.9 76.7,110.6c4.9,3.1 9.1,5.4 9.4,5.1c0.7,-0.7 1.2,-0.4 -5.7,-4.6c-34.5,-21.3 -61,-55.3 -74,-95c-6.1,-18.5 -8.3,-32.3 -8.4,-52.7c-0.1,-16.7 -0.7,-20.7 -2,-14.2zM468.21514,341.83891c-1.6,-1 -0.9,1.9 2.6,11.4c8.2,21.6 13.8,49.1 15.6,76c0.6,9.2 1.3,16.9 1.6,17.2c0.3,0.3 0.3,-6.7 0,-15.5c-1,-25.8 -4.6,-45.1 -13.4,-71.7c-3,-9.3 -5.9,-17 -6.4,-17.4zM-92.28486,347.73891c-1.1,1.8 -2.9,4.4 -3.8,5.9c-1,1.6 -1.4,2.8 -0.9,2.8c0.6,0 2.4,-2.3 4.2,-5.1c3.4,-5.6 3.9,-8.9 0.5,-3.6zM20.51514,344.43891c-4.1,0 -6,46 -2.8,67.5c3,19.8 8.2,37.8 15.9,55c8.8,19.8 25,44.7 28.6,44c1.1,-0.2 2.9,0.7 4.2,2.3c2.3,2.6 2.3,2.6 0.2,0.8c-1.3,-1.1 -2.3,-1.4 -2.3,-0.9c0,1.5 2.2,3 4.3,3c2.1,0 2.2,-1.1 0.1,-2.8c-1.9,-1.5 -12.1,-14.8 -14.9,-19.4c-2.9,-4.7 -1.3,-2.7 5.4,6.2c7.3,9.9 13,16.3 14.4,16.3c0.6,0 -0.5,-1.7 -2.4,-3.8c-4.9,-5.1 -9.8,-11.3 -15.7,-20c-2.8,-4 -5.2,-6.7 -5.4,-6c-0.3,0.7 -2.1,-1.7 -4.1,-5.2c-8.7,-15.7 -16.5,-35.4 -20.3,-51.3c-1.7,-7.5 -2.9,-9.5 -3.6,-6c-0.2,1 -1.2,-3.8 -2.3,-10.7c-3,-19.3 -2.4,-52 1.2,-66.8c0.3,-1.2 0.1,-2.2 -0.5,-2.2zM550.81514,353.13891c-1.9,-2.8 -3.5,-4.6 -3.5,-3.9c0,0.7 1.6,3.6 3.5,6.5c1.9,2.8 3.5,4.6 3.5,3.9c0,-0.7 -1.6,-3.6 -3.5,-6.5zM-21.78486,354.43891c-1.3,0 -2.5,3.4 -5.9,16.9c-5.1,20.5 -8,42.2 -8,60.8c0,16 1.7,10.1 2.3,-8c0.8,-22.9 4.9,-47.2 10.8,-64.5c1,-2.8 1.4,-5.2 0.8,-5.2zM500.31514,365.43891c-0.5,0 0.5,3.7 2.2,8.2c6.9,18.9 12,38.2 11.1,41.6c-0.4,1.8 -0.2,2.1 1.1,1.6c0.9,-0.3 1.6,-1.1 1.6,-1.6c0,-3.6 -7.9,-30.6 -12.2,-42.1c-1.6,-4.2 -3.4,-7.7 -3.8,-7.7zM469.11514,375.43891c-0.6,0 -0.8,1.3 -0.4,3.2c4.4,21.9 6,40.5 5.3,61.9c-0.4,9.6 -0.9,18.3 -1.3,19.2c-0.3,0.9 -0.2,1.7 0.4,1.7c1.7,0 2.7,-12.2 2.6,-31.5c-0.1,-18 -1.1,-29.3 -4,-45.8c-0.9,-4.8 -2.1,-8.7 -2.6,-8.7zM26.31514,376.43891c-1.5,0 -1.2,11.4 0.6,24.1c6,43 25.7,82.5 56.6,113.1c5.9,6 11.3,10.8 11.9,10.8c0.6,0 -3.3,-4.4 -8.8,-9.8c-12.2,-11.8 -18.5,-19.5 -27.6,-33.2c-18.9,-28.6 -31.6,-67.8 -31.7,-97.8c0,-4.1 -0.4,-7.2 -1,-7.2zM-48.98486,378.13891c-1.2,1.9 -8.7,34.3 -8.7,37.4c0,0.5 0.4,0.9 0.8,0.9c0.4,0 1.3,-3.3 2,-7.3c0.7,-3.9 2.6,-12.5 4.3,-19.1c2.6,-10.6 3.2,-14.5 1.6,-11.9zM494.41514,387.43891c-0.4,0 0.3,4.6 1.6,10.2c1.3,5.7 3.1,15.6 4,22c1,6.5 2.1,11.8 2.6,11.8c0.4,0 0.5,-2.4 0.1,-5.3c-0.9,-7.2 -5.1,-30.4 -6.4,-35c-0.6,-2 -1.4,-3.7 -1.9,-3.7zM-42.08486,421.53891c-0.9,4.8 -0.7,9.9 0.4,9.9c0.6,0 1,-2.8 1,-6.5c0,-7.1 -0.4,-8.2 -1.4,-3.4zM484.51514,433.43891c-0.4,0 -0.6,2.1 -0.4,4.7c0.5,8.3 0.9,9 1.1,2c0,-3.7 -0.2,-6.7 -0.7,-6.7zM443.61514,436.43891c-0.5,0 -1.8,5.2 -3,11.5c-2.4,12.1 -7.4,28.6 -12.3,40.6c-3.6,8.6 -3.1,10.7 0.5,2.5c6.1,-13.8 15.5,-45.9 15.5,-53c0,-0.9 -0.3,-1.6 -0.7,-1.6zM-21.68486,446.53891c0,3.9 1.2,9.9 1.9,9.9c0.4,0 0.4,-2.5 0.1,-5.5c-0.6,-5.6 -2,-8.7 -2,-4.4zM484.01514,448.13891c-0.3,-0.6 -0.5,-0.1 -0.5,1.3c0,1.4 0.2,1.9 0.5,1.2c0.2,-0.6 0.2,-1.8 0,-2.5zM49.11514,450.43891c-1.2,0 -1,0.6 2.2,7.1c14.1,27.8 38.9,55.2 65.8,72.6c4.6,3 9.3,5.8 10.5,6.3c1.2,0.5 3.6,1.8 5.2,2.9c1.7,1.2 3.9,2.1 5,2.1c1.1,0 -1.6,-2 -6,-4.3c-33.4,-18 -62.5,-47.5 -78.1,-79c-2.1,-4.3 -4.2,-7.7 -4.6,-7.7zM388.51514,466.13891c-0.4,-0.3 -2,1.6 -3.5,4.3c-1.5,2.7 -5.5,8.7 -8.9,13.2c-17.9,24.3 -41,44 -67.4,57.4c-5.9,3 -9.9,5.4 -9,5.4c2.1,0 14,-6 23.8,-12.1c25.2,-15.6 48.8,-39.3 63.7,-64.1c1.2,-2 1.8,-3.9 1.3,-4.1zM330.81514,484.13891c-6.6,5.8 -21.3,15.3 -32.5,20.9c-27.3,13.7 -59.9,20 -89.4,17.4c-7.2,-0.6 -14.8,-1.5 -16.9,-1.9c-2,-0.5 -3.7,-0.5 -3.7,-0.1c0,4.4 47.3,5.2 67.2,1.1c18.8,-3.8 43.8,-13.7 58.2,-22.9c7.6,-4.9 22.6,-16.3 22.6,-17.3c0,-1.6 -1.4,-0.9 -5.5,2.8zM360.21514,489.23891c-4.2,4.8 -8.2,8.6 -8.8,8.4c-0.6,-0.1 -5.3,3.2 -10.4,7.5c-28.2,23.6 -61,37.7 -97.7,42.3c-4.6,0.5 -10.8,1 -13.7,1c-3.3,0 -5.3,0.4 -5.3,1.1c0,1.2 7,0.9 21.5,-0.7c3.7,-0.4 4.6,-0.3 3.5,0.5c-2.4,1.7 1.7,1.4 12.6,-1c28.2,-6.1 58,-20.7 80.6,-39.6c7.9,-6.6 26.8,-26 26.8,-27.5c0,-1.9 -1.9,-0.2 -9.1,8zM438.91514,488.73891c-0.3,-0.4 -0.6,0.2 -0.5,1.3c0,1.1 0.3,1.4 0.6,0.6c0.3,-0.7 0.2,-1.6 -0.1,-1.9zM26.21514,489.43891c-0.5,0 -0.7,0.4 -0.4,1c0.3,0.5 0.8,1 1.1,1c0.2,0 0.4,-0.5 0.4,-1c0,-0.6 -0.5,-1 -1.1,-1zM96.31514,518.63891c7.8,7 24.6,18.5 25.6,17.5c0.2,-0.2 -2.6,-2.4 -6.3,-4.8c-3.8,-2.4 -10.3,-7.2 -14.6,-10.6c-8.7,-7.1 -11.6,-8.4 -4.7,-2.1zM74.61514,519.23891c0,1 0.9,1.9 2,1.9c1.8,0.2 1.8,0.1 0.2,-1.8c-2.2,-2.3 -2.4,-2.4 -2.2,-0.1zM116.91514,520.43891c-5.1,0 22.4,15 39.3,21.5c5.1,1.9 11.2,3.7 13.4,4c2.8,0.4 0.6,-0.6 -6.3,-3c-12.3,-4.2 -28.6,-11.8 -38.6,-18.1c-4,-2.4 -7.4,-4.4 -7.8,-4.4zM305.41514,534.93891c-10.2,5.2 -28.5,12 -40.6,15l-6,1.5l5.2,-0.5c10.1,-0.8 44.6,-14.1 51.8,-19.8c3.5,-2.9 0.2,-1.6 -10.4,3.8zM174.91514,547.33891c1.4,1.5 15.8,4.1 21.1,4c3.2,-0.1 3.8,-0.3 1.8,-0.6c-1.6,-0.2 -7.5,-1.3 -12.9,-2.3c-11.4,-2.3 -11.3,-2.3 -10,-1.1z"/><path d="M262.27663,-154.7052c6.4,1.7 12.6,3.2 13.8,3.5c4.3,0.8 20.2,8.2 28.3,13c13,7.8 23.8,16.4 35.6,28.6c27.3,28.2 43.5,65.2 46.9,107.3c1.1,13.9 -2.8,45.6 -5.9,48c-0.7,0.6 -2.1,3.7 -3,7c-2.1,7.3 -9.7,26.8 -10.2,26.3c-0.2,-0.2 1,-3.9 2.6,-8.1c21.2,-54.5 10.9,-116.7 -26.8,-161.8c-9.7,-11.5 -21.6,-22.3 -33.7,-30.3c-9,-6 -22.4,-13 -23.3,-12.2c-0.3,0.3 -0.3,0.7 -0.1,0.8c0.2,0.2 3.8,2.1 7.9,4.2c33.7,17.6 62.5,50.6 75.4,86.4c6.2,17.3 9.7,37.5 9.4,55.2c-0.1,10.5 -0.1,10.5 -0.9,-4c-1.8,-36 -12.5,-64.3 -35.5,-93.9c-35.5,-45.7 -98.5,-67.9 -156.5,-55.1c-74.9,16.5 -128.3,85.8 -124.6,162c0.4,6.9 0.9,14.3 1.2,16.5l0.5,4l-1,-3.5c-0.5,-1.9 -1.4,-9 -2,-15.8c-3.7,-44.9 12.7,-90.1 44.8,-123.4c5.8,-6 10.2,-11.1 9.9,-11.5c-1.2,-1.1 -20,19 -27,28.8c-8.3,11.6 -17.5,29.9 -22.2,44c-12.7,38.3 -9.9,82.5 7.5,119.6c2.1,4.5 3.7,8.3 3.4,8.3c-1,0 -10.6,-20.6 -13.7,-29.6c-9,-25.7 -11.4,-59.9 -6.2,-85.9c4.4,-22 15.4,-47.6 28.2,-65.5c7.1,-9.8 24.2,-28 30.4,-32.1c1.9,-1.3 7.8,-5.3 13,-8.8c22.3,-15 50,-24.7 77.4,-27c18.1,-1.6 37.6,0.2 56.4,5zM202.07663,-157.8052c-34.7,4.4 -67.1,18.8 -92,40.8c-9.2,8.1 -20.9,21.1 -20.1,22.3c0.3,0.5 2.7,-1.7 5.3,-4.9c18.4,-21.9 46.5,-40.6 74.9,-49.6c20.4,-6.4 47.9,-9.2 67.6,-6.7c9.1,1.1 14.7,0.2 6.6,-1.1c-7.5,-1.2 -35.1,-1.7 -42.3,-0.8z"/><path d="M393.67663,-151.7052c0.1,0.2 0.9,1.3 1.7,2.4c1.4,1.9 1.4,1.9 -0.2,0.6c-1,-0.7 -1.8,-1.8 -1.8,-2.4c0,-0.6 0.1,-0.8 0.3,-0.6z"/><path d="M222.87663,-140.4052c21.5,0.5 30.8,1.9 46.2,7.1c23.8,8.1 42.8,20 61.4,38.5c18.1,18 29.2,35.6 37.3,58.9c5.9,17 7.7,27.2 8.1,47.6l0.3,18l-0.8,-14c-2.1,-34.9 -10.1,-59.6 -27.3,-84c-24.1,-34 -57.3,-56 -97.7,-64.6c-8.6,-1.9 -13.8,-2.3 -29,-2.3c-19,-0.1 -34,1.5 -36.4,3.9c-0.7,0.7 -2.8,1.6 -4.7,2c-5.5,1.2 -21.7,7.4 -30,11.5c-9.8,5 -26.1,15.9 -25.4,17.1c0.4,0.5 2.9,-0.8 5.8,-2.9c45.1,-33 105.4,-38 156.3,-13.1c28.5,13.9 52.6,37.2 67.4,65c2.7,5.2 5,9.8 5,10.4c0,0.5 -2,-2.6 -4.4,-7.1c-6.1,-11.4 -13.1,-21.5 -22,-31.7c-6.8,-7.7 -9.6,-10.1 -9.6,-8.1c0,0.3 3.2,4 7.1,8.2c26.8,29.1 41.9,70.9 39.4,109.2c-1.2,18.3 -2.1,19.1 -1.7,1.5c0.3,-12.7 0,-19.8 -1.2,-27.5c-2.1,-13.4 -5.6,-26 -7.1,-26c-0.8,0 -0.5,2.5 1.2,8.2c5.6,19.2 6.9,43.5 3.4,64c-1.1,6.2 -2.5,12.4 -3.1,13.8l-1.1,2.5l0.6,-2.5c10.8,-49.5 -2.7,-98.4 -37.1,-134c-13.5,-13.9 -34.2,-28.6 -43.7,-31c-1.8,-0.5 -7.7,-2.4 -13.2,-4.3c-17.3,-6 -24.6,-7.2 -46.5,-7.2c-15.1,0 -21.4,0.4 -28,1.8c-20.5,4.4 -40.3,13 -56.1,24.3c-8.7,6.3 -23,19.1 -22.6,20.3c0.1,0.5 -2.1,3.7 -4.9,7.2c-9.4,11.9 -19.1,28 -17.9,30c0.4,0.6 2.8,-2.7 5.4,-7.5c12.7,-23.7 36,-46.4 60.1,-58.6c9.2,-4.6 24,-9.8 35,-12.1c15.3,-3.3 42.1,-3.4 56.9,-0.1c16.9,3.8 33.3,10.3 45.4,17.9c2.1,1.3 4.8,2.6 5.8,2.8c5,1 29.3,23.7 37.2,34.8c10.5,14.6 18.9,34.3 23.3,54.7c2.9,13.3 2.7,42 -0.4,55.9c-3,13.2 -7.2,25.2 -13,36.6c-4,8.1 -11.7,20.5 -12.6,20.5c-0.3,0 2.1,-4.2 5.2,-9.3c13.5,-22.3 19.5,-44.4 19.4,-71.2c0,-14 -0.3,-16.1 -4,-31c-6.9,-27.4 -20,-49.9 -40.2,-68.8c-18.3,-17.2 -47.6,-32.4 -64,-33.2c-3,-0.2 -8.9,-0.8 -13.1,-1.4c-9.1,-1.2 -31.8,0 -43.6,2.5c-54.2,11.1 -95,51.2 -107.4,105.4c-2.4,10.3 -3.8,35 -2,35c0.7,0 1.1,-2.7 1.1,-8.3c0,-18.7 4.9,-38.6 13.9,-57.2c18.6,-38 51.9,-63.9 94.3,-73.2c11.8,-2.5 40.9,-2.5 52.7,0.1c12.4,2.7 22.4,6.1 33.1,11.3c5.2,2.6 10.1,4.8 10.7,4.9c4.3,0.8 28.3,21.2 28.3,24.1c0,0.8 -3,-1.2 -6.7,-4.7c-13.6,-12.3 -32.5,-23.4 -49.2,-29c-13.4,-4.5 -24.9,-6.3 -40.6,-6.4c-15.2,-0.1 -31.5,1.8 -31.5,3.6c0,0.6 1.3,0.8 3.1,0.4c22.7,-4.5 47.8,-2.7 70.1,5c19.7,6.9 35.3,16.7 50.3,31.8c19.6,19.7 32.4,44.4 36.9,71.5c2.9,17.5 1.3,51.1 -2.5,51.1c-0.6,0 -0.7,-2.8 -0.2,-7.8c4,-38.8 -7.8,-75.2 -33.1,-102.9c-7.5,-8.2 -19,-17.7 -20.7,-17.1c-0.7,0.2 1.7,2.7 5.2,5.5c10,8 20.3,19.3 17.5,19.3c-0.2,0 -4.1,-3.6 -8.6,-8c-17.4,-17 -40.8,-29.2 -65.5,-34.1c-10.3,-2.1 -36.8,-1.8 -47.2,0.4c-14.4,3.1 -32.3,10.1 -42,16.4c-4.5,3 -1.1,3.2 3.6,0.3c18.9,-11.7 43.1,-17.6 67.6,-16.7c38.4,1.5 72.4,19.5 95.1,50.2c16.1,21.8 23.8,45.4 23.8,73c0.1,16.7 -1.2,25.5 -5.6,39.5c-2.8,8.7 -10.1,25 -11.3,25c-0.3,0 1,-3 2.9,-6.8c3.8,-7.7 8.8,-22.7 10.7,-32.2c1.7,-8.6 1.7,-31.6 0,-41c-6.8,-37.9 -30.8,-70.4 -64.7,-87.7c-12.1,-6.2 -23,-9.9 -24.7,-8.5c-0.8,0.7 -3.4,0.5 -7.7,-0.5c-10.6,-2.5 -37.2,-2.2 -48.8,0.5c-16.9,3.9 -33,11.3 -47.2,21.8c-7.6,5.6 -21.3,19.1 -20.5,20.4c0.3,0.4 -1.9,4.4 -4.9,8.7c-4.7,6.9 -10.6,17.3 -10.6,18.8c0,0.3 0.4,0.5 0.9,0.5c0.5,0 2.8,-3.5 5.1,-7.8c16.1,-30 46.4,-52.1 80.7,-58.9c11.9,-2.3 32.9,-2.3 44.3,0.1c10.9,2.3 23.6,6.8 32.5,11.4c6.2,3.3 22.5,14.5 22.5,15.6c0,1.5 -5.5,-0.9 -11.5,-4.9c-13.2,-8.9 -27.6,-15 -42,-17.8c-13,-2.5 -15.7,-2.7 -15.2,-1.4c0.2,0.7 3.1,1.5 6.5,1.9c34.4,3.8 68.3,27.2 85.6,58.9c7.4,13.5 13.8,36.2 13.5,47.7c-0.1,3.9 -0.3,3.4 -1,-2.8c-4.1,-37.8 -28,-72 -62.4,-89.3c-25.7,-12.9 -59.1,-15.3 -86.4,-6.1c-10.9,3.7 -24.1,10.4 -24.1,12.3c0,0.9 -2.4,3.2 -5.2,5.1c-2.9,1.9 -8.4,6.4 -12.2,10c-24.7,23.1 -38.4,59.4 -34.8,92c1,9.2 5.3,27.4 6.8,28.9c1.3,1.3 1,-1.3 -1.2,-9.3c-16.8,-62.9 21.2,-124.5 85.1,-138.1c11,-2.4 31.3,-2.4 42.5,-0.1c34.3,7.3 62.2,28.6 77.1,59.1c20.6,42.4 14,90.7 -17.1,124.5l-5,5.5l6.2,-8.5c15.2,-20.5 21.8,-40.4 21.8,-65.2c0,-11.4 -2.2,-26.7 -4,-27.8c-0.5,-0.3 -1.8,-2.9 -2.9,-5.7c-6.1,-15.4 -16.4,-30.9 -26.9,-40.4c-41.3,-37.1 -102.3,-36.4 -142.1,1.6c-14.5,13.8 -24.2,30.8 -28.3,49.5c-3.4,15.6 -3.2,36.6 0.5,50.5c3.6,13.3 11.1,28.1 19.7,38.8c3.8,4.8 7,9.1 7.1,9.5c0.1,0.4 1.5,1.5 3.2,2.5c5.2,3.2 13.9,9.9 13.4,10.3c-0.3,0.3 -5.1,-0.7 -10.8,-2.1c-16,-4 -26.8,-11.1 -43,-28c-11.8,-12.4 -16.9,-19.1 -24.7,-32.5c-10.5,-18.1 -17.6,-38.6 -20.3,-58.7c-1.7,-12.8 -0.6,-41.3 2,-52.8c7.5,-32.5 21.4,-57.1 45.3,-80.1c22.2,-21.4 50.7,-36 80.8,-41.4c8.6,-1.6 13.9,-1.9 29.5,-1.6zM173.67663,-118.3052c-52.2,17 -89.8,59.9 -101,115c-2.7,13.7 -2.5,43.4 0.5,57.2c2.6,11.9 3.9,15.6 5.1,14.9c0.4,-0.3 0,-3.6 -1,-7.3c-7.4,-26.4 -6.1,-59.5 3.2,-86c18.4,-52.2 63.6,-89.6 118.2,-97.7c5.8,-0.9 12.3,-1.6 14.6,-1.6c2.2,0 4.1,-0.5 4.1,-1c0,-2.8 -27.7,1.3 -43.7,6.5zM188.47663,-118.2052c-15.7,3.4 -41.1,13.8 -41.1,16.7c0,0.6 -4.3,4 -9.4,7.5c-22.7,14.9 -42.6,39.2 -53,64.3c-3.8,9.2 -8.6,24.9 -8.6,28c0,4.3 1.7,1.4 3.4,-5.9c8.5,-36.6 34.3,-71 68.1,-90.5c31.6,-18.4 70.2,-24 105.7,-15.4c5.7,1.4 10.1,2 10.6,1.5c1.2,-1.2 12.1,3 24.2,9.3c12,6.3 24.4,15.5 34.6,25.7c7.5,7.5 18.6,21.4 20.7,25.9c1.1,2.4 2.7,3.1 2.7,1.2c0,-2.8 -11.6,-17.5 -22,-27.9c-21.9,-22 -45.9,-34.9 -76,-41c-18.4,-3.7 -41.5,-3.5 -59.9,0.6z"/><path d="M210.37663,-119.6052c1.4,0 1.9,0.2 1.3,0.5c-0.7,0.2 -1.9,0.2 -2.5,0c-0.7,-0.3 -0.2,-0.5 1.2,-0.5z"/><path d="M229.37663,-119.6052c1.4,0 1.9,0.2 1.3,0.5c-0.7,0.2 -1.9,0.2 -2.5,0c-0.7,-0.3 -0.2,-0.5 1.2,-0.5z"/><path d="M42.87663,-135.8052c0.3,0 -0.4,1.8 -1.5,4c-1.1,2.2 -2.3,4 -2.5,4c-0.3,0 0.4,-1.8 1.5,-4c1.1,-2.2 2.3,-4 2.5,-4z"/><path d="M355.57663,-130.8052c0.3,0 1.3,0.9 2.3,2c1,1.1 1.6,2 1.3,2c-0.3,0 -1.3,-0.9 -2.3,-2c-1,-1.1 -1.6,-2 -1.3,-2z"/><path d="M83.37663,-108.4052c0,0.2 -0.8,1 -1.7,1.7c-1.6,1.3 -1.7,1.2 -0.4,-0.4c1.3,-1.6 2.1,-2.1 2.1,-1.3z"/><path d="M85.37663,-102.4052c0,0.2 -0.8,1 -1.7,1.7c-1.6,1.3 -1.7,1.2 -0.4,-0.4c1.3,-1.6 2.1,-2.1 2.1,-1.3z"/><path d="M465.07663,-95.1052c0.2,0.7 0.2,2.1 0,3c-0.3,1 -0.5,0.4 -0.5,-1.2c0,-1.7 0.2,-2.4 0.5,-1.8z"/><path d="M-50.92337,-63.1052c0.2,0.7 0.2,1.9 0,2.5c-0.3,0.7 -0.5,0.2 -0.5,-1.2c0,-1.4 0.2,-1.9 0.5,-1.3z"/><path d="M57.67663,-61.5052c1,0 0.5,2.7 -2.1,10.6c-2.3,7 -3.5,13 -3.7,17.6c-0.2,3.8 -0.8,10.1 -1.4,14c-1.3,8.5 -1.4,18.5 -0.2,18.5c0.4,0 1.1,6.6 1.4,14.7c0.7,16.2 2.8,27.9 7.7,43.2c3.6,10.9 11.9,29 17.4,37.5c2,3.2 3.2,5.5 2.7,5.1c-1.8,-1 -12.3,-18.7 -16.8,-28.1c-5.5,-11.8 -10.6,-27.3 -13.5,-41.6c-2,-9.8 -2.3,-14.2 -2.2,-32.8c0,-23.1 1.2,-32 6.8,-50.4c1.6,-5.1 3.1,-8.3 3.9,-8.3z"/><path d="M-55.92337,-58.1052c0.2,0.7 0.2,1.9 0,2.5c-0.3,0.7 -0.5,0.2 -0.5,-1.2c0,-1.4 0.2,-1.9 0.5,-1.3z"/><path d="M-50.02337,-56.5052c0.3,0.3 0.4,1.2 0.1,1.9c-0.3,0.8 -0.6,0.5 -0.6,-0.6c-0.1,-1.1 0.2,-1.7 0.5,-1.3z"/><path d="M-54.92337,-53.1052c0.2,0.7 0.2,1.9 0,2.5c-0.3,0.7 -0.5,0.2 -0.5,-1.2c0,-1.4 0.2,-1.9 0.5,-1.3z"/><path d="M-54.02337,-48.5052c0.3,0.3 0.4,1.2 0.1,1.9c-0.3,0.8 -0.6,0.5 -0.6,-0.6c-0.1,-1.1 0.2,-1.7 0.5,-1.3z"/><path d="M362.77663,-32.8052c0.3,1.4 -0.3,0.7 -1.3,-1.5c-1.1,-2.2 -2,-4.5 -2,-5c0,-1.5 2.6,3.7 3.3,6.5z"/><path d="M55.97663,-37.5052c0.3,0.3 0.4,1.2 0.1,1.9c-0.3,0.8 -0.6,0.5 -0.6,-0.6c-0.1,-1.1 0.2,-1.7 0.5,-1.3z"/><path d="M54.97663,-33.5052c0.3,0.3 0.4,1.2 0.1,1.9c-0.3,0.8 -0.6,0.5 -0.6,-0.6c-0.1,-1.1 0.2,-1.7 0.5,-1.3z"/><path d="M-44.62337,-32.8052c0.5,0 1.4,1.9 2,4.2c4.3,16.3 11.5,36 17.9,48.6c1.7,3.4 2.9,6.2 2.5,6.2c-2,0 -17.2,-37 -21.3,-51.9c-1.1,-3.9 -1.6,-7.1 -1.1,-7.1z"/><path d="M53.97663,-28.5052c0.3,0.3 0.4,1.2 0.1,1.9c-0.3,0.8 -0.6,0.5 -0.6,-0.6c-0.1,-1.1 0.2,-1.7 0.5,-1.3z"/><path d="M223.37663,-27.8052c0,0.6 -3.1,1 -7.2,1c-7.2,0.1 -20.2,2.1 -21.5,3.3c-1.5,1.5 0.8,1.8 4.8,0.5c2.9,-0.8 10.2,-1.2 20.9,-1.2c13.8,0 17.8,0.4 24.5,2.2c10.4,2.9 26.3,10.7 34.7,17.1c24.9,18.9 40.5,53.1 38.4,84c-0.3,5.3 -1,11.2 -1.6,13.1c-0.9,3.2 -0.9,3.2 -0.4,-1.2c1,-9.2 0.4,-26.7 -1.2,-34.5c-5.7,-28 -24.2,-52.2 -50,-65.6c-13.6,-7 -24.3,-9.8 -39.7,-10.4c-23.2,-1 -41.2,3.9 -59.2,16c-7.4,5 -17.7,14.6 -16.9,15.9c0.3,0.5 3.3,-1.6 6.5,-4.7c11.9,-11 25.3,-18.4 41,-22.7c7.1,-1.9 10.8,-2.3 23.9,-2.3c13.1,0 16.7,0.4 23.3,2.3c11.5,3.3 19.2,6.8 28.5,12.8c30.6,20 47.3,57.1 41.8,93c-2.2,14.9 -9.7,33.4 -16.6,41.5c-1.1,1.3 -0.5,-0.3 1.5,-3.6c17.3,-29.5 16.5,-69 -2,-97c-8,-12.1 -21.7,-24.6 -33.3,-30.4c-6.8,-3.5 -7.1,-1.2 -0.3,2.4c31,16.6 50.1,52.8 46.1,87.3c-0.5,4.8 -1.4,10 -1.9,11.7c-0.8,2.2 -0.8,1.6 -0.3,-2.5c0.4,-3 0.7,-10.7 0.6,-17c-0.3,-33.4 -18.4,-62 -49.1,-77.4c-12.7,-6.3 -20.8,-8.1 -37.3,-8.1c-13.5,0 -24.6,1.4 -28.1,3.6c-3,1.8 0.4,2 6.8,0.3c9.6,-2.6 29.8,-2.4 40.8,0.5c40.2,10.5 67.3,46.9 65.2,87.6c-0.9,17 -2.4,19.4 -1.9,3c0.4,-11.8 0.1,-15.4 -1.7,-22.9c-7.3,-30.4 -29.8,-54.2 -59.3,-62.6c-9.5,-2.8 -26.3,-3.7 -36.5,-2c-31.5,5 -57,27.2 -66.8,58c-2.2,6.8 -2.8,11.1 -3.3,21.6c-0.5,14.4 0.8,22.9 5.3,34.5c2.8,7 11.1,20.9 12.6,20.9c0.6,0 -0.4,-2.1 -2.2,-4.6c-4.5,-6.5 -10.4,-19.7 -12.5,-27.9c-2.6,-10.2 -2.4,-29.4 0.4,-39.8c7.7,-28.3 30.1,-50.7 58.7,-58.9c11.4,-3.2 31.6,-3.2 42.8,0c23.1,6.6 42.5,22.7 53.2,44c3.5,7.1 7.6,20.6 7.4,24.6c-0.1,1.2 -0.7,-0.4 -1.3,-3.4c-6.9,-30.9 -29.1,-54.6 -59.3,-63.2c-11.3,-3.2 -31.5,-3.2 -42.8,0c-15.9,4.6 -31.2,14.2 -40.6,25.4c-4.6,5.6 -5.9,7.9 -4.1,7.7c0.4,0 2.8,-2.6 5.4,-5.8c8.9,-11.1 24.2,-20.7 40.3,-25.3c6.5,-1.8 10.4,-2.2 20.5,-2.2c17.6,0.1 29.8,3.7 44.3,13c8.4,5.5 20.3,17.2 18.8,18.7c-0.7,0.7 -0.1,2.2 1.8,4.6c4.1,5.2 8.7,14.9 11.1,23.3c2.7,9.2 3.7,26.1 2.1,35.2c-1.3,7.5 -6.4,22.4 -8.7,25.2c-1.2,1.5 -1.1,1.1 0.2,-2.1c4.6,-11.2 5.7,-16.2 6.2,-28.6c0.3,-10.5 0.1,-13.9 -1.7,-21c-6.7,-27 -26.3,-47.7 -53.1,-56.1c-6.3,-1.9 -9.6,-2.3 -21,-2.3c-11.4,0 -14.7,0.4 -21,2.3c-20.9,6.6 -37.4,20.3 -47,39.1c-3,6 -5.1,12.1 -4.1,12.1c0.5,0 1.8,-2.6 2.9,-5.8c6.2,-16.7 22.2,-32.8 40.4,-40.4c39.4,-16.6 85.6,4 99.3,44.2c1.4,4 2.5,8.1 2.4,8.9c0,0.9 -0.8,-0.9 -1.8,-3.9c-4.3,-13.4 -13.9,-27.6 -24.6,-36.3c-7.2,-5.8 -19.5,-12 -28.5,-14.4c-9,-2.4 -28.3,-2.4 -36.5,0.1c-6.9,2 -21.5,8.6 -21.5,9.6c0,0.4 -2.5,2.6 -5.5,4.9c-11.6,8.8 -22.7,26 -25.9,40.1c-2.3,10.1 -3,18 -1.7,18c0.6,0 1.1,-1.6 1.1,-3.5c0,-6.6 3.1,-18.9 6.5,-26.3c9.3,-19.9 24.1,-32.7 45.5,-39.4c6.2,-1.9 9.7,-2.3 20,-2.3c10.3,0 13.8,0.4 20,2.3c20.1,6.3 34.8,18.4 44.2,36.5c5.3,9.9 7,17.2 7.3,30.7l0.3,12.5l-0.7,-10c-1.3,-15.6 -5.4,-27.5 -13.2,-38.2c-5.1,-6.8 -11.6,-13.3 -17.3,-17.2c-5.4,-3.7 -14.6,-8.3 -14.6,-7.4c0,0.5 2.6,2.1 5.7,3.8c11.3,5.9 22.1,16.1 28.1,26.7c3.2,5.6 8.2,19.4 8.2,22.5c-0.1,1 -1.1,-1.4 -2.4,-5.2c-3.7,-11.6 -8.4,-19.3 -17.1,-28.1c-8.6,-8.7 -17.5,-14.4 -27.6,-17.5c-6.9,-2.2 -21.6,-4.2 -23.3,-3.2c-0.6,0.4 3.5,1.3 9.1,2c17.9,2.3 31.1,8.8 42.7,21.5c24.9,26.8 22.9,69.9 -4.3,95.1c-3.4,3.1 -7.7,6.4 -9.4,7.3l-3.2,1.5l3.1,-2.5c4.8,-3.9 12.1,-15.6 14.9,-23.9c3,-9.1 3.4,-22.2 0.9,-30.8c-5.6,-18.6 -19,-31.9 -37.8,-37.4c-7.7,-2.3 -22.8,-1.7 -30.6,1.2c-6.8,2.4 -15.6,7.8 -14.2,8.7c0.5,0.3 1.5,0 2.1,-0.8c2.1,-2.5 14.6,-7.5 21.6,-8.6c20.1,-3.2 42.8,7.4 51.8,24.1c1.5,2.9 1.5,3 0.1,0.9c-2.8,-4 -16,-16.7 -17.5,-16.8c-0.8,0 -4.3,-1.3 -7.9,-2.8c-4.2,-1.7 -8.8,-2.8 -13,-3l-6.5,-0.3l5,1c14.4,2.8 21.7,6.2 29.7,13.7c10.4,9.7 15,20.6 15.2,35.7c0.1,8 -0.4,11.3 -2.2,16.6c-2.4,7 -9.3,17.9 -13,20.5c-1.9,1.3 -1.7,0.8 0.9,-3.1c6.2,-9.1 8.8,-21 7,-31c-3.7,-20.3 -21.3,-35.5 -41.1,-35.5c-7.4,0 -17.5,3.1 -22.9,7.1c-5.2,3.7 -4.8,5 0.4,1.5c7.4,-5 14.1,-6.8 24,-6.4c12.3,0.6 19.4,3.8 27.4,12.4c5.4,5.7 10.2,14.7 10.1,18.7c-0.1,0.7 -0.9,-0.9 -1.9,-3.5c-2.4,-6 -8,-13.8 -12.6,-17.2c-1.9,-1.5 -6.1,-3.9 -9.3,-5.4c-4.9,-2.3 -7,-2.7 -15.2,-2.7c-8.2,0 -10.3,0.4 -15.2,2.7c-6.6,3.1 -14.9,10.4 -18.3,16.3c-3.7,6.2 -5.7,15.1 -4.9,21.7c0.3,3.2 0.9,5.8 1.2,5.8c0.4,0 0.7,-3.9 0.7,-8.8c0,-11.2 3.2,-18.7 11.1,-26.2c8.2,-7.8 12.8,-9.5 25.4,-9.5c9.6,0 11,0.3 16.4,2.9c3.3,1.6 8,4.9 10.4,7.3c5,5 9.9,14.7 10.7,21.3l0.5,4.5l-1.5,-5.5c-0.9,-3 -2.7,-7.3 -4,-9.5c-5.4,-9.3 -17.8,-17.4 -28,-18.3c-6.6,-0.6 -5.4,0.5 2.1,1.9c11.4,2.1 21.1,9.7 26,20.2c2.6,5.9 4,14.8 3,20c-0.6,3.4 -0.8,3.5 -3.6,2.7c-4.5,-1.3 -34,2.3 -34,4.2c0,0.5 0.8,0.7 1.8,0.4c3.4,-1 28,-3.8 30.7,-3.4c1.6,0.2 3,0.8 3.2,1.4c0.2,0.6 -1.5,3.3 -3.7,6c-2.3,2.7 -5.2,7.2 -6.5,10.1c-1.3,2.8 -3.1,5.6 -4.2,6.1c-2,1 -24.7,0.1 -25.9,-1.1c-0.4,-0.4 0.7,-0.7 2.4,-0.7c1.8,0 3.2,-0.5 3.2,-1c0,-0.7 -1.8,-0.8 -5.2,-0.3c-10.2,1.5 -12.5,1 -36.8,-8.7c-21.5,-8.5 -23.9,-9.8 -28.8,-14.4c-11.5,-10.9 -20.6,-26.1 -25.8,-43.1c-2.5,-8.3 -2.8,-10.4 -2.8,-26c0,-14.5 0.3,-18.2 2.1,-25c11,-40.3 42.2,-68.9 81.8,-75.1c10,-1.5 18.5,-1.7 18.5,-0.4z"/><path d="M-70.62337,-26.8052c0.5,0.8 1,1.9 1,2.5c0,0.5 -0.5,0.3 -1,-0.5c-0.5,-0.8 -1,-2 -1,-2.5c0,-0.6 0.5,-0.3 1,0.5z"/><path d="M-68.62337,-21.8052c0.5,0.8 1,1.9 1,2.5c0,0.5 -0.5,0.3 -1,-0.5c-0.5,-0.8 -1,-2 -1,-2.5c0,-0.6 0.5,-0.3 1,0.5z"/><path d="M52.97663,-22.5052c0.3,0.3 0.4,1.2 0.1,1.9c-0.3,0.8 -0.6,0.5 -0.6,-0.6c-0.1,-1.1 0.2,-1.7 0.5,-1.3z"/><path d="M-32.62338,-4.8052c0.5,0.8 1,1.9 1,2.5c0,0.5 -0.5,0.3 -1,-0.5c-0.5,-0.8 -1,-2 -1,-2.5c0,-0.6 0.5,-0.3 1,0.5z"/><path d="M-37.62338,-2.8052c0.5,0.8 1,1.9 1,2.5c0,0.5 -0.5,0.3 -1,-0.5c-0.5,-0.8 -1,-2 -1,-2.5c0,-0.6 0.5,-0.3 1,0.5z"/><path d="M-35.62338,2.1948c0.5,0.8 1,1.9 1,2.5c0,0.5 -0.5,0.3 -1,-0.5c-0.5,-0.8 -1,-2 -1,-2.5c0,-0.6 0.5,-0.3 1,0.5z"/><path d="M22.07663,10.8948c0.2,0.7 0.2,1.9 0,2.5c-0.3,0.7 -0.5,0.2 -0.5,-1.2c0,-1.4 0.2,-1.9 0.5,-1.3z"/><path d="M372.67663,11.1948c0.4,0 0.6,4.2 0.5,9.2c-0.1,9.5 -0.5,8.3 -1,-3c-0.2,-3.4 0,-6.2 0.5,-6.2z"/><path d="M22.97663,15.4948c0.3,0.3 0.4,1.2 0.1,1.9c-0.3,0.8 -0.6,0.5 -0.6,-0.6c-0.1,-1.1 0.2,-1.7 0.5,-1.3z"/><path d="M23.97663,19.4948c0.3,0.3 0.4,1.2 0.1,1.9c-0.3,0.8 -0.6,0.5 -0.6,-0.6c-0.1,-1.1 0.2,-1.7 0.5,-1.3z"/><path d="M-8.12337,25.1948c0.8,1.4 1.4,2.9 1.4,3.5c0,0.5 -0.6,-0.1 -1.4,-1.5c-0.8,-1.4 -1.4,-3 -1.4,-3.5c0,-0.6 0.6,0.1 1.4,1.5z"/><path d="M375.07663,31.8948c0.2,1.3 0.2,3.3 0,4.5c-0.2,1.3 -0.4,0.3 -0.4,-2.2c0,-2.5 0.2,-3.5 0.4,-2.3z"/><path d="M372.07663,33.3948c0.2,1 0.2,2.6 0,3.5c-0.3,1 -0.5,0.2 -0.5,-1.7c0,-1.9 0.2,-2.7 0.5,-1.8z"/><path d="M373.97663,40.4948c0.3,0.3 0.4,1.2 0.1,1.9c-0.3,0.8 -0.6,0.5 -0.6,-0.6c-0.1,-1.1 0.2,-1.7 0.5,-1.3z"/><path d="M64.07663,43.8948c0.2,0.7 0.2,1.9 0,2.5c-0.3,0.7 -0.5,0.2 -0.5,-1.2c0,-1.4 0.2,-1.9 0.5,-1.3z"/><path d="M469.17663,46.5948c0.5,0.6 -13.8,18.6 -16.5,20.7c-1,0.8 0.3,-1.1 2.8,-4.1c2.5,-3 6.5,-8.1 8.9,-11.3c2.3,-3.2 4.5,-5.5 4.8,-5.3z"/><path d="M366.97663,49.4948c0.3,0.3 0.4,1.2 0.1,1.9c-0.3,0.8 -0.6,0.5 -0.6,-0.6c-0.1,-1.1 0.2,-1.7 0.5,-1.3z"/><path d="M384.07663,49.4948c0.2,0.3 0.1,1.7 -0.3,3.1c-0.3,1.5 -0.8,2.5 -1.1,2.3c-0.2,-0.3 -0.1,-1.7 0.3,-3.1c0.3,-1.5 0.8,-2.5 1.1,-2.3z"/><path d="M289.77663,50.1948c0.3,0 1.2,1.3 2.1,3c0.9,1.6 1.3,3 1.1,3c-0.3,0 -1.2,-1.4 -2.1,-3c-0.9,-1.7 -1.3,-3 -1.1,-3z"/><path d="M334.07662,66.3948c0.2,1 0.2,2.6 0,3.5c-0.3,1 -0.5,0.2 -0.5,-1.7c0,-1.9 0.2,-2.7 0.5,-1.8z"/><path d="M359.97663,66.4948c0.3,0.3 0.4,1.2 0.1,1.9c-0.3,0.8 -0.6,0.5 -0.6,-0.6c-0.1,-1.1 0.2,-1.7 0.5,-1.3z"/><path d="M463.07663,66.1948c0.8,0 0.1,0.8 -2.9,3.6l-3.3,2.9l2.9,-3.3c1.7,-1.7 3.1,-3.2 3.3,-3.2z"/><path d="M382.07663,68.5948c0.3,0.2 0,1.3 -0.6,2.3c-1.2,2 -1.4,1.4 -0.5,-1.2c0.4,-0.9 0.9,-1.4 1.1,-1.1z"/><path d="M332.97663,75.4948c0.3,0.3 0.4,1.2 0.1,1.9c-0.3,0.8 -0.6,0.5 -0.6,-0.6c-0.1,-1.1 0.2,-1.7 0.5,-1.3z"/><path d="M365.27663,76.4948c1,2.4 -17.7,33.8 -22.3,37.7c-1,0.8 0.9,-2.4 4.3,-7c3.4,-4.7 8.7,-13.7 11.9,-20c3.1,-6.4 5.9,-11.2 6.1,-10.7z"/><path d="M-37.42337,78.1948c0.3,0 1.3,0.9 2.3,2c1,1.1 1.6,2 1.3,2c-0.3,0 -1.3,-0.9 -2.3,-2c-1,-1.1 -1.6,-2 -1.3,-2z"/><path d="M303.07662,84.8948c0.2,1.8 0.2,5 0,7c-0.2,2.1 -0.4,0.6 -0.4,-3.2c0,-3.9 0.2,-5.5 0.4,-3.8z"/><path d="M424.37663,82.4948c0,0.2 -1.7,1.9 -3.7,3.8l-3.8,3.4l3.4,-3.8c3.3,-3.4 4.1,-4.2 4.1,-3.4z"/><path d="M294.07662,83.8948c0.2,0.7 0.2,1.9 0,2.5c-0.3,0.7 -0.5,0.2 -0.5,-1.2c0,-1.4 0.2,-1.9 0.5,-1.3z"/><path d="M-10.42337,85.1948c0.3,0 1.3,0.9 2.3,2c1,1.1 1.6,2 1.3,2c-0.3,0 -1.3,-0.9 -2.3,-2c-1,-1.1 -1.6,-2 -1.3,-2z"/><path d="M586.27663,85.5948c-1,0.9 -8.9,4.6 -8.9,4.1c0,-0.2 1.7,-1.3 3.8,-2.4c3.3,-1.8 6.3,-2.8 5.1,-1.7z"/><path d="M295.07662,92.3948c0.2,1.5 0.2,4.2 0,6c-0.2,1.8 -0.4,0.6 -0.4,-2.7c0,-3.3 0.2,-4.8 0.4,-3.3z"/><path d="M289.07662,93.3948c0.2,1 0.2,2.6 0,3.5c-0.3,1 -0.5,0.2 -0.5,-1.7c0,-1.9 0.2,-2.7 0.5,-1.8z"/><path d="M444.37663,95.5948c0,0.2 -0.8,1 -1.7,1.7c-1.6,1.3 -1.7,1.2 -0.4,-0.4c1.3,-1.6 2.1,-2.1 2.1,-1.3z"/><path d="M314.97663,96.4948c0.3,0.3 0.4,1.2 0.1,1.9c-0.3,0.8 -0.6,0.5 -0.6,-0.6c-0.1,-1.1 0.2,-1.7 0.5,-1.3z"/><path d="M22.47663,99.8948c1.3,1.6 1.2,1.7 -0.3,0.4c-1,-0.7 -1.8,-1.5 -1.8,-1.7c0,-0.8 0.8,-0.3 2.1,1.3z"/><path d="M478.37663,99.6948c0,0.2 -1,0.9 -2.2,1.5c-2.2,1.1 -2.2,1 -0.4,-0.4c2.1,-1.7 2.6,-1.9 2.6,-1.1z"/><path d="M313.97663,100.4948c0.3,0.3 0.4,1.2 0.1,1.9c-0.3,0.8 -0.6,0.5 -0.6,-0.6c-0.1,-1.1 0.2,-1.7 0.5,-1.3z"/><path d="M305.97663,106.4948c0.3,0.3 0.4,1.2 0.1,1.9c-0.3,0.8 -0.6,0.5 -0.6,-0.6c-0.1,-1.1 0.2,-1.7 0.5,-1.3z"/><path d="M302.97663,107.4948c0.3,0.3 0.4,1.2 0.1,1.9c-0.3,0.8 -0.6,0.5 -0.6,-0.6c-0.1,-1.1 0.2,-1.7 0.5,-1.3z"/><path d="M290.97663,111.4948c0.3,0.3 0.4,1.2 0.1,1.9c-0.3,0.8 -0.6,0.5 -0.6,-0.6c-0.1,-1.1 0.2,-1.7 0.5,-1.3z"/><path d="M379.37663,115.5948c0,0.2 -0.8,1 -1.7,1.7c-1.6,1.3 -1.7,1.2 -0.4,-0.4c1.3,-1.6 2.1,-2.1 2.1,-1.3z"/><path d="M333.37663,116.5948c0,0.2 -0.8,1 -1.7,1.7c-1.6,1.3 -1.7,1.2 -0.4,-0.4c1.3,-1.6 2.1,-2.1 2.1,-1.3z"/><path d="M341.07663,116.1948c0.8,0 0.1,0.8 -2.4,3.1l-2.8,2.4l2.4,-2.8c1.4,-1.5 2.6,-2.7 2.8,-2.7z"/><path d="M-58.12337,117.1948c0.6,0 1.7,0.5 2.5,1c0.8,0.5 1.1,1 0.5,1c-0.5,0 -1.7,-0.5 -2.5,-1c-0.8,-0.5 -1,-1 -0.5,-1z"/><path d="M557.37663,123.2948c0.9,0 0.8,0.4 -0.5,0.9c-1.1,0.5 -2.7,0.9 -3.5,0.9c-0.9,0 -0.8,-0.4 0.5,-0.9c1.1,-0.5 2.7,-0.9 3.5,-0.9z"/><path d="M261.07662,124.8948c0.2,0.7 0.2,1.9 0,2.5c-0.3,0.7 -0.5,0.2 -0.5,-1.2c0,-1.4 0.2,-1.9 0.5,-1.3z"/><path d="M333.27663,125.7948c0.7,0.7 -3.8,5 -10.3,10c-5.9,4.5 -5.8,4.4 1.9,-2.9c4.4,-4.1 8.2,-7.3 8.4,-7.1z"/><path d="M383.37663,127.6948c0,0.2 -1,0.9 -2.2,1.5c-2.2,1.1 -2.2,1 -0.4,-0.4c2.1,-1.7 2.6,-1.9 2.6,-1.1z"/><path d="M-83.22337,129.2948c1.1,-0.1 1.7,0.2 1.3,0.5c-0.3,0.3 -1.2,0.4 -1.9,0.1c-0.8,-0.3 -0.5,-0.6 0.6,-0.6z"/><path d="M287.97663,133.1948c0.2,0 0,0.9 -0.6,2c-0.6,1.1 -1.3,2 -1.6,2c-0.2,0 0,-0.9 0.6,-2c0.6,-1.1 1.3,-2 1.6,-2z"/><path d="M295.37663,135.5948c0,0.2 -0.8,1 -1.7,1.7c-1.6,1.3 -1.7,1.2 -0.4,-0.4c1.3,-1.6 2.1,-2.1 2.1,-1.3z"/><path d="M-70.22337,137.2948c1.1,-0.1 1.7,0.2 1.3,0.5c-0.3,0.3 -1.2,0.4 -1.9,0.1c-0.8,-0.3 -0.5,-0.6 0.6,-0.6z"/><path d="M-66.22337,138.2948c1.1,-0.1 1.7,0.2 1.3,0.5c-0.3,0.3 -1.2,0.4 -1.9,0.1c-0.8,-0.3 -0.5,-0.6 0.6,-0.6z"/><path d="M95.37663,140.1948c1.1,0.6 2,1.3 2,1.6c0,0.2 -0.9,0 -2,-0.6c-1.1,-0.6 -2,-1.3 -2,-1.6c0,-0.2 0.9,0 2,0.6z"/><path d="M316.37663,140.5948c0,0.2 -0.8,1 -1.7,1.7c-1.6,1.3 -1.7,1.2 -0.4,-0.4c1.3,-1.6 2.1,-2.1 2.1,-1.3z"/><path d="M369.87663,143.1948c0.6,0 0.3,0.5 -0.5,1c-0.8,0.5 -1.9,1 -2.5,1c-0.5,0 -0.3,-0.5 0.5,-1c0.8,-0.5 2,-1 2.5,-1z"/><path d="M29.77663,145.2948c1.1,-0.1 1.7,0.2 1.3,0.5c-0.3,0.3 -1.2,0.4 -1.9,0.1c-0.8,-0.3 -0.5,-0.6 0.6,-0.6z"/><path d="M364.87663,145.1948c0.6,0 0.3,0.5 -0.5,1c-0.8,0.5 -1.9,1 -2.5,1c-0.5,0 -0.3,-0.5 0.5,-1c0.8,-0.5 2,-1 2.5,-1z"/><path d="M-44.62337,146.3948c1.4,0 1.9,0.2 1.3,0.5c-0.7,0.2 -1.9,0.2 -2.5,0c-0.7,-0.3 -0.2,-0.5 1.2,-0.5z"/><path d="M359.87663,147.2948c1.5,0 -1.7,1.6 -4.5,2.3c-2.1,0.5 -2,0.3 0.5,-0.9c1.7,-0.8 3.5,-1.4 4,-1.4z"/><path d="M468.77663,148.2948c1.1,-0.1 1.7,0.2 1.3,0.5c-0.3,0.3 -1.2,0.4 -1.9,0.1c-0.8,-0.3 -0.5,-0.6 0.6,-0.6z"/><path d="M459.37663,149.9948c0,0.8 -18.3,4.3 -21.2,4.1c-0.7,-0.1 3.4,-1.1 9.2,-2.4c12.8,-2.8 12,-2.7 12,-1.7z"/><path d="M463.77663,149.2948c1.1,-0.1 1.7,0.2 1.3,0.5c-0.3,0.3 -1.2,0.4 -1.9,0.1c-0.8,-0.3 -0.5,-0.6 0.6,-0.6z"/><path d="M161.37662,151.0948c18.6,7.4 32.3,13 31.5,13c-2.1,0.2 -19.2,-4.9 -23.5,-6.8c-2.5,-1.2 -5.8,-3.2 -7.5,-4.6c-2.8,-2.4 -2.8,-2.5 -0.5,-1.6z"/><path d="M-97.62337,151.3948c1.9,0 2.7,0.2 1.8,0.5c-1,0.2 -2.6,0.2 -3.5,0c-1,-0.3 -0.2,-0.5 1.7,-0.5z"/><path d="M-90.12337,152.3948c1.7,0 2.4,0.2 1.8,0.5c-0.7,0.2 -2.1,0.2 -3,0c-1,-0.3 -0.4,-0.5 1.2,-0.5z"/><path d="M-64.62337,152.3948c1.9,0 2.7,0.2 1.8,0.5c-1,0.2 -2.6,0.2 -3.5,0c-1,-0.3 -0.2,-0.5 1.7,-0.5z"/><path d="M-82.62337,153.3948c1.4,0 1.9,0.2 1.3,0.5c-0.7,0.2 -1.9,0.2 -2.5,0c-0.7,-0.3 -0.2,-0.5 1.2,-0.5z"/><path d="M-57.62337,153.3948c1.4,0 1.9,0.2 1.3,0.5c-0.7,0.2 -1.9,0.2 -2.5,0c-0.7,-0.3 -0.2,-0.5 1.2,-0.5z"/><path d="M488.87663,153.3948c1.7,0 2.4,0.2 1.8,0.5c-0.7,0.2 -2.1,0.2 -3,0c-1,-0.3 -0.4,-0.5 1.2,-0.5z"/><path d="M397.77663,154.2948c1.1,-0.1 1.7,0.2 1.3,0.5c-0.3,0.3 -1.2,0.4 -1.9,0.1c-0.8,-0.3 -0.5,-0.6 0.6,-0.6z"/><path d="M434.37663,154.3948c1.4,0 1.9,0.2 1.3,0.5c-0.7,0.2 -1.9,0.2 -2.5,0c-0.7,-0.3 -0.2,-0.5 1.2,-0.5z"/><path d="M482.37663,154.3948c1.4,0 1.9,0.2 1.3,0.5c-0.7,0.2 -1.9,0.2 -2.5,0c-0.7,-0.3 -0.2,-0.5 1.2,-0.5z"/><path d="M-14.12337,155.3948c1.7,0 2.4,0.2 1.8,0.5c-0.7,0.2 -2.1,0.2 -3,0c-1,-0.3 -0.4,-0.5 1.2,-0.5z"/><path d="M428.77663,155.2948c1.1,-0.1 1.7,0.2 1.3,0.5c-0.3,0.3 -1.2,0.4 -1.9,0.1c-0.8,-0.3 -0.5,-0.6 0.6,-0.6z"/><path d="M-95.12337,156.4948c2.2,-0.1 3.2,0.1 2.3,0.4c-1,0.2 -2.8,0.2 -4,0c-1.3,-0.2 -0.5,-0.4 1.7,-0.4z"/><path d="M-7.62337,156.3948c1.4,0 1.9,0.2 1.3,0.5c-0.7,0.2 -1.9,0.2 -2.5,0c-0.7,-0.3 -0.2,-0.5 1.2,-0.5z"/><path d="M167.27663,159.6948c7.4,1.9 13.7,3.5 13.9,3.5c0.3,0 0.3,0.2 0,0.5c-0.8,0.8 -23.8,-4.5 -26.8,-6.1c-3.8,-2 -1.7,-1.7 12.9,2.1z"/><path d="M-85.62337,157.3948c1.9,0 2.7,0.2 1.8,0.5c-1,0.2 -2.6,0.2 -3.5,0c-1,-0.3 -0.2,-0.5 1.7,-0.5z"/><path d="M397.37663,157.3948c1.4,0 1.9,0.2 1.3,0.5c-0.7,0.2 -1.9,0.2 -2.5,0c-0.7,-0.3 -0.2,-0.5 1.2,-0.5z"/><path d="M71.37663,159.3948c1.4,0 1.9,0.2 1.3,0.5c-0.7,0.2 -1.9,0.2 -2.5,0c-0.7,-0.3 -0.2,-0.5 1.2,-0.5z"/><path d="M333.77663,160.2948c1.1,-0.1 1.7,0.2 1.3,0.5c-0.3,0.3 -1.2,0.4 -1.9,0.1c-0.8,-0.3 -0.5,-0.6 0.6,-0.6z"/><path d="M364.37663,160.3948c1.4,0 1.9,0.2 1.3,0.5c-0.7,0.2 -1.9,0.2 -2.5,0c-0.7,-0.3 -0.2,-0.5 1.2,-0.5z"/><path d="M413.37663,160.3948c1.4,0 1.9,0.2 1.3,0.5c-0.7,0.2 -1.9,0.2 -2.5,0c-0.7,-0.3 -0.2,-0.5 1.2,-0.5z"/><path d="M359.37663,161.3948c1.4,0 1.9,0.2 1.3,0.5c-0.7,0.2 -1.9,0.2 -2.5,0c-0.7,-0.3 -0.2,-0.5 1.2,-0.5z"/><path d="M-74.62337,165.4948c3.6,0 5,0.2 3.3,0.4c-1.8,0.2 -4.8,0.2 -6.5,0c-1.8,-0.2 -0.4,-0.4 3.2,-0.4z"/><path d="M352.87663,169.3948c1.7,0 2.4,0.2 1.8,0.5c-0.7,0.2 -2.1,0.2 -3,0c-1,-0.3 -0.4,-0.5 1.2,-0.5z"/><path d="M225.87663,170.4948c2.8,0 4,0.2 2.8,0.4c-1.3,0.2 -3.5,0.2 -5,0c-1.6,-0.2 -0.5,-0.4 2.2,-0.4z"/><path d="M424.37663,174.4948c2.5,0 3.5,0.2 2.3,0.4c-1.3,0.2 -3.3,0.2 -4.5,0c-1.3,-0.2 -0.3,-0.4 2.2,-0.4z"/><path d="M361.87663,175.4948c3.3,0 4.8,0.2 3.3,0.4c-1.5,0.2 -4.2,0.2 -6,0c-1.8,-0.2 -0.6,-0.4 2.7,-0.4z"/><path d="M232.07663,176.3948c0.7,-0.1 3,0.5 5.2,1.4c4.4,1.7 3.8,0.1 5.7,18c0.6,6.1 -0.6,9.7 -4.2,12c-2.3,1.6 -3.4,1.6 -9.3,0.6c-3.6,-0.7 -7.7,-1.5 -9.1,-1.8c-1.7,-0.5 -2.2,-0.3 -1.5,0.4c1.5,1.5 14.6,4.1 17.8,3.5c1.5,-0.3 3.9,-1.9 5.3,-3.6c2.5,-3 2.6,-3.6 2.1,-11.1l-0.5,-8l1.9,2.4c2.7,3.4 3.9,6.5 4,10.3c0,3.1 0.1,3.1 1,0.8c1.2,-3 -0.1,-7.1 -3.6,-11.7c-2.5,-3.2 -3.4,-7.1 -1.5,-5.9c0.6,0.4 2.7,3.9 4.7,7.8c3.4,6.6 3.7,7.9 3.7,15.8c0.1,7.9 -0.2,9.2 -3.4,15.5c-5.8,11.4 -15.9,17.4 -29.4,17.4c-4.9,0.1 -5.7,0.3 -4.2,1.2c2.7,1.5 12.4,0.4 18.1,-2.1c2.7,-1.2 6.9,-3.8 9.4,-5.8l4.6,-3.7l-3.5,3.8c-11,11.7 -31.4,12.8 -44.2,2.3c-9.6,-7.8 -13.2,-19.1 -10.5,-32c0.5,-2.4 0.5,-3.7 -0.1,-3.3c-0.5,0.3 -1.5,3.4 -2.2,6.9c-0.9,4.9 -0.9,7.4 0,10.8c1.7,6.5 5.9,13.5 10.3,17.6c10.5,9.4 25.4,11.7 37.7,5.6c8.9,-4.4 14.4,-9.3 17.7,-16.1c2.5,-5.1 2.8,-6.7 2.8,-16.2c0,-10.3 -0.1,-10.6 -3.9,-17.4l-3.9,-6.9l4.2,3.4c5.5,4.3 11.7,16.7 13.1,26.1c3.1,20.3 -7.3,39.8 -26,48.7c-7.3,3.5 -7.8,3.6 -19.5,3.6c-11.4,0 -12.3,-0.2 -18.6,-3.1c-7.2,-3.4 -13.6,-8.7 -18,-14.7c-1.6,-2.2 -3,-3.3 -3.4,-2.7c-1,1.6 13.3,15.3 18.8,17.9c23.2,11.1 50,3 62.5,-18.9c1.8,-3 3.2,-5 3.2,-4.4c0,2.5 -7.4,13.3 -12.2,17.7c-6.2,5.6 -15.1,10.3 -21.4,11.3c-2.4,0.3 -4.7,1.1 -5.1,1.7c-1.3,2 8.2,-0.3 15.7,-4c20.2,-9.9 31.5,-32.7 26.9,-54.5c-1.5,-6.9 -5.8,-16.3 -9.8,-21.2c-5,-6.2 -3.5,-5.7 2.4,0.9c20.5,22.5 20.7,56.6 0.5,78.5c-2.8,3 -5,5.7 -5,6c0,1 -5.2,4.6 -10.6,7.3c-20.3,10.3 -45.2,7.6 -63,-6.9c-3,-2.4 -5.4,-4 -5.4,-3.4c0,1.8 10.4,9.3 17.5,12.5c8.7,4.1 15.4,5.5 25.3,5.5c16,0 28.7,-5.4 40.8,-17.5c12.6,-12.4 17.9,-25.3 17.7,-43c0,-7.3 -0.6,-10.7 -3,-17.8c-1.7,-4.8 -2.9,-8.7 -2.6,-8.7c0.8,0 5.2,10.7 6.8,16.5c0.9,3.3 1.6,9.9 1.6,14.7c0.1,11.2 1.9,11.6 2,0.5l0.2,-8.2l0.7,6c2.1,18.7 -4.9,38.4 -18.5,51.9c-8,8.1 -15.2,12.6 -25.7,16.3c-6.4,2.3 -8.9,2.7 -20.3,2.7c-11.6,0 -13.9,-0.3 -21.5,-2.8c-10.8,-3.6 -15.8,-6.5 -23.6,-13.9c-12.5,-11.6 -19.3,-26.3 -20.2,-43.5c-0.2,-5.9 -0.9,-10.2 -1.5,-10.2c-1.7,0 -0.1,17.8 2.3,25.5c3.4,11.1 8.4,19.2 17.4,28c13.5,13.4 28.4,19.5 48.1,19.8c18.1,0.3 32.3,-5.9 46.5,-20.2c13.8,-13.9 19.5,-27.7 19.4,-47.6c0,-12.2 -2.2,-21.6 -7.4,-31.3c-1.6,-3 -2.3,-4.9 -1.5,-4.2c0.7,0.6 2.9,4.4 4.9,8.3c10,20.3 10.3,44.4 0.7,64.1c-9.3,19 -25.8,32.7 -46.1,38.2c-8,2.1 -26.2,2.4 -34,0.5c-19.3,-4.7 -35.7,-16.8 -45.4,-33.6c-4.5,-7.6 -6.1,-8.1 -2,-0.6c9.3,17.2 27.8,31.2 46.8,35.6c9.1,2.1 24.5,2.1 33.3,0c14.9,-3.7 29.5,-12.8 39.4,-24.7c5.5,-6.6 12.1,-19.3 14.4,-27.5c0.7,-2.6 1.4,-3.8 1.4,-2.6c0.1,3.3 -5.1,17.4 -9,23.9c-4.6,7.9 -18,21.1 -25.6,25.4c-6.4,3.6 -8.9,6.4 -3,3.4c29.1,-14.8 45.9,-50 39.2,-81.8c-0.8,-3.8 -1.3,-7.1 -1.1,-7.4c0.6,-0.6 3.4,12.7 4.1,19.8c0.6,5.8 -0.4,17.9 -2.1,24.6c-0.4,1.3 -0.2,2.4 0.4,2.4c1.5,0 3.2,-11.6 3.2,-22.1c0,-11 -2.6,-22.9 -6.9,-32.1c-2.7,-5.7 -2.8,-6 -0.7,-3.7c3.4,3.9 8.2,16.1 10.1,25.8c2.1,10 1.6,28.3 -0.9,37.6c-0.9,3.3 -3.8,10.5 -6.5,16c-8,16.2 -21,28.8 -38.2,37c-9,4.2 -21.4,7.5 -28.6,7.5c-4.1,0 -5.3,0.3 -5.3,1.5c0,1.3 0.9,1.5 5.3,1c22,-2.5 38.7,-10.4 53.5,-25.3c4,-4.1 7.6,-7.1 7.9,-6.8c1.2,1.1 -17.4,18.2 -23.6,21.6c-3.4,1.9 -6.8,4.1 -7.6,4.7c-4.6,4.3 -22.7,8.5 -36.5,8.5c-22.5,-0.1 -42.4,-7.9 -58.2,-22.9c-6.9,-6.6 -9.2,-6.3 -2.7,0.3c15.1,15.6 36.4,24.5 59.4,24.7c34.9,0.4 64.3,-17.7 79.1,-48.9c6.8,-14.1 8.7,-23.9 8.2,-41.4c-0.3,-10.6 -0.2,-13.4 0.5,-10.5c1.8,7.3 1.4,29.2 -0.7,37.5c-4,16 -12.9,31.2 -25.2,43.1c-17.2,16.6 -37,24.3 -61.4,24.2c-12,-0.1 -15,-0.6 -29.7,-4.9c-1.4,-0.4 -2.3,-0.2 -2.3,0.5c0,1.3 11.1,4.7 20,6.1c19.1,3 40,-1.1 57.7,-11.2c8.9,-5 22.8,-17.8 28.3,-25.8c15.3,-22.6 20.1,-49.3 13.5,-75.1c-1.7,-6.7 -7.9,-20.7 -11.5,-26.2l-2.2,-3.2l2.7,3c4.1,4.7 12.3,22.2 14.6,31c1.1,4.4 2.3,11.7 2.6,16.2c0.3,4.6 1,8.3 1.4,8.3c2.5,0 -1.1,-22.5 -5.5,-34.2c-1.9,-5.1 -2.9,-8.5 -2.1,-7.4c2.2,2.9 7.2,17.5 8.9,25.9c2,9.8 2,27.6 0,37.4c-4.2,20.5 -12.6,35.8 -27.8,50.8c-13.6,13.4 -26.1,20.4 -45.4,25.7c-11.9,3.2 -33.3,3 -46.5,-0.5c-39.9,-10.6 -68.1,-43.8 -72.8,-85.4c-2.5,-22.6 4.5,-47.8 18.6,-66.5c5.5,-7.3 7.7,-11.9 3,-6.3c-7.6,9 -17.1,25.8 -19.1,33.8c-0.5,2 -0.9,2.5 -1.5,1.6c-0.6,-1 -1.1,-0.6 -1.8,1.3c-5.2,13.8 -6,39.8 -1.7,56.2c11.1,42.5 47,72.8 90.4,76.5c14.9,1.2 15.5,1.2 26.2,-0.6c20.4,-3.3 37.9,-12 54.3,-27l7.2,-6.6l-7.5,7.4c-11,10.9 -23.9,18.9 -39.3,24.3c-1,0.3 -1.6,1 -1.2,1.5c1.4,2.3 20.5,-6.8 31.5,-15c9,-6.7 19.8,-17.9 25.1,-26.2c4.8,-7.3 6,-8.7 3,-3.1c-3.9,7 -11.8,16.9 -18.6,23.2c-51.7,48.4 -134.7,33.2 -165.5,-30.3c-2.7,-5.5 -5.7,-12.8 -6.6,-16.3c-1.9,-6.7 -4.1,-8.6 -2.9,-2.5c2.1,11.2 12,30.4 21.6,42.1c10.6,12.8 28.8,25.6 44,30.9c4.9,1.7 7.7,3.3 7.5,4c-0.3,0.6 0,1.4 0.7,1.7c3.4,1.6 -4.8,-1 -11.3,-3.6c-29.7,-11.7 -53.3,-38.2 -62.4,-70c-3,-10.3 -5.1,-28.1 -4.2,-35c0.9,-6.3 -1,-6.4 -2,-0.1c-1,6.9 1.1,25.3 4.1,35.8c5.2,18 13.5,32.3 26.7,46.1c45.4,47.3 123,43.7 164.1,-7.6c11.5,-14.4 20.2,-34.3 22.8,-51.8c1.7,-12.3 0.7,-31.5 -2.4,-43.2c-2.9,-11 -2.8,-13.4 0.1,-3.3c6.7,23 6.6,44.1 -0.3,66.3c-20.3,64.9 -93.2,96.4 -154.2,66.5c-6.1,-3 -14.1,-7.7 -17.7,-10.4c-3.9,-3 -6.8,-4.6 -7.2,-3.9c-1.5,2.4 -18.7,-17.7 -24.4,-28.5c-1.4,-2.6 -3.1,-4.7 -3.8,-4.7c-1,0 -0.4,1.9 1.8,5.7c11.1,19.9 29.2,36.7 50.1,46.7c30.7,14.7 64.3,15.4 95.6,1.8c4.9,-2.1 11.3,-5.4 14.3,-7.3c3,-2 6.7,-3.9 8.2,-4.2c3.5,-0.9 19.1,-16.3 25,-24.7c2.5,-3.6 6.4,-9.9 8.7,-14c4.8,-8.8 5.5,-8.7 1,0.3c-12.5,24.6 -35.6,45.9 -60.2,55.3c-4,1.5 -7.6,3.1 -8.2,3.6c-2,1.7 3,0.7 10.2,-2.2c20.3,-8.1 38.6,-22.9 51.4,-41.5c2.7,-3.8 5.3,-7.5 5.8,-8.1c2.2,-2.6 7.4,-14.2 10,-22.2c3.2,-9.8 4.8,-18.3 6,-32.2c0.6,-6.9 0.9,-8.1 1,-4.2c0,2.9 -0.4,9.6 -1,14.9c-5.5,49.3 -38.7,89 -85.9,102.6c-4.7,1.4 -11.2,2.8 -14.5,3.2c-7.4,0.8 -9.5,1.4 -9.5,2.5c0,0.5 1.7,0.7 3.8,0.4c29.7,-3.9 51.2,-14 72.2,-33.8l9.5,-9l-8.5,8.8c-14.8,15.3 -34.6,26.7 -56,32.3c-14.1,3.7 -36.4,4.3 -51.6,1.4c-12.7,-2.4 -12.4,-2.4 -12.4,-1.3c0,1.9 15.9,4.5 30.5,4.9c22.9,0.8 39.9,-2.9 59.5,-12.7c28.4,-14.3 50.2,-39.4 61.2,-70.5c1.6,-4.4 2.6,-6.4 2.2,-4.5c-0.3,1.9 -2.1,7.5 -4,12.3c-18.2,47.5 -63.8,78.7 -115,78.7c-37.3,0 -71.9,-16.7 -96.1,-46.4c-1.8,-2.2 -3.5,-3.7 -3.9,-3.3c-1,1 7.2,11.1 14.5,17.9c51,46.9 128.1,44.9 175.8,-4.6c22.1,-22.8 33.1,-48.8 35.3,-83.1l0.8,-13l-0.3,15.5c-0.2,9.4 -0.9,18.4 -1.9,22.8c-3.8,17.4 -11.5,34.7 -21.4,48.5c-6.7,9.4 -23.6,25.8 -31.5,30.7c-3.1,1.9 -5.6,3.8 -5.7,4.2c-0.3,6.1 30.5,-20.9 39.5,-34.5c2.1,-3.1 4.2,-5.7 4.6,-5.7c1.5,0 10.5,-19.2 13.7,-29c1.7,-5.2 3.6,-13.3 4.2,-18c1.4,-10.2 1.7,-11.3 2.8,-10.6c1.2,0.7 -0.4,14.4 -2.8,24.5c-1.2,4.7 -3.7,12.6 -5.7,17.5c-16.2,41 -51.4,70.3 -95.5,79.7c-8,1.7 -13.7,2.2 -25.8,2.3c-16.9,0 -26.9,-1.5 -40.7,-6c-47,-15.7 -80.9,-55.3 -88.9,-104.2c-2,-12 -1.4,-34.7 1.2,-47c1.5,-7.1 1.5,-10.6 0,-9.1c-1.4,1.3 -3.9,18.2 -4.3,28.6c-0.4,7.3 -1,12.3 -1.6,12.3c-1.3,0 -0.3,13.1 1.8,23.6c4.8,23.1 16.3,46.1 31.5,62.6c3.4,3.7 5.9,7.2 5.6,7.7c-0.9,1.3 10.5,11.3 20,17.7c13.9,9.2 30.8,16.2 48.4,20c9.1,1.9 35.3,2.6 46.3,1.1c3.2,-0.4 5.7,-0.3 5.7,0.2c0,1.4 -4.7,2.1 -19.5,2.7c-12.7,0.6 -20.3,0.1 -33.7,-2.2c-2.3,-0.4 -3.8,-0.3 -3.8,0.3c0,1.1 10.8,3 23.7,4.3l7.8,0.7l-6.6,0.2c-14.7,0.3 -37.1,-5.5 -54.2,-14c-38.5,-19.2 -65.4,-54.4 -74.3,-97.4c-2.5,-12.2 -2.6,-38.3 -0.1,-50.8c5.9,-29.3 19.9,-55.3 40.2,-74.5c14.7,-13.9 13.4,-13.3 53.2,-25.3c20.9,-6.2 37.2,-10.1 45.3,-10.9c4.1,-0.4 8.1,-0.8 8.7,-0.8z"/><path d="M200.17663,179.6948c-0.5,0.5 -54,13.5 -55.4,13.5c-0.5,0 2.7,-1.7 7.1,-3.7c6.1,-2.7 12.3,-4.3 26,-6.8c17.6,-3.3 23.4,-4 22.3,-3z"/><path d="M-99.22337,180.2948c1.1,-0.1 1.7,0.2 1.3,0.5c-0.3,0.3 -1.2,0.4 -1.9,0.1c-0.8,-0.3 -0.5,-0.6 0.6,-0.6z"/><path d="M387.77663,183.2948c1.1,-0.1 1.7,0.2 1.3,0.5c-0.3,0.3 -1.2,0.4 -1.9,0.1c-0.8,-0.3 -0.5,-0.6 0.6,-0.6z"/><path d="M-110.12337,184.4948c2.2,-0.1 3.2,0.1 2.3,0.4c-1,0.2 -2.8,0.2 -4,0c-1.3,-0.2 -0.5,-0.4 1.7,-0.4z"/><path d="M336.77663,185.2948c1.1,-0.1 1.7,0.2 1.3,0.5c-0.3,0.3 -1.2,0.4 -1.9,0.1c-0.8,-0.3 -0.5,-0.6 0.6,-0.6z"/><path d="M427.77663,185.2948c1.1,-0.1 1.7,0.2 1.3,0.5c-0.3,0.3 -1.2,0.4 -1.9,0.1c-0.8,-0.3 -0.5,-0.6 0.6,-0.6z"/><path d="M341.77663,186.2948c1.1,-0.1 1.7,0.2 1.3,0.5c-0.3,0.3 -1.2,0.4 -1.9,0.1c-0.8,-0.3 -0.5,-0.6 0.6,-0.6z"/><path d="M-62.12337,187.4948c2.2,-0.1 3.2,0.1 2.3,0.4c-1,0.2 -2.8,0.2 -4,0c-1.3,-0.2 -0.5,-0.4 1.7,-0.4z"/><path d="M144.27663,191.1948c-6.9,3.5 -19.6,7.7 -20.5,6.7c-0.6,-0.6 12.3,-6.3 18.6,-8.2c3,-0.9 6,-1.8 6.5,-2c3.7,-1.2 1.9,0.2 -4.6,3.5z"/><path d="M24.77663,189.2948c1.1,-0.1 1.7,0.2 1.3,0.5c-0.3,0.3 -1.2,0.4 -1.9,0.1c-0.8,-0.3 -0.5,-0.6 0.6,-0.6z"/><path d="M386.77663,191.2948c1.1,-0.1 1.7,0.2 1.3,0.5c-0.3,0.3 -1.2,0.4 -1.9,0.1c-0.8,-0.3 -0.5,-0.6 0.6,-0.6z"/><path d="M146.37662,196.0948c-6.3,2 -11.5,4.1 -11.5,4.6c0,0.6 -5.4,6.4 -12.1,13c-29.8,29.8 -43.8,64.5 -42.1,104.5c1.6,36.8 15.3,67.8 41.1,93.5c26.7,26.6 60.8,40.5 99.2,40.5c10.2,0 13.4,-0.3 13.4,-1.3c0,-0.8 3.4,-1.8 9.8,-2.9c54.9,-9.4 99.7,-52.6 111.7,-107.9c0.7,-3.5 1.4,-5.2 1.4,-3.7c0.1,1.4 0.6,2.8 1.3,3c3.2,1.1 -7.6,33 -16,47.5c-9.5,16.3 -25.8,34.3 -39.9,44.3c-5.7,3.9 -7.6,6 -5.6,6c0.4,0 4.8,-3.2 9.9,-7c16.4,-12.5 30.4,-29.1 40.1,-47.5c5.1,-9.6 5.7,-9.3 0.9,0.3c-20.4,40.6 -59.8,69.3 -105.1,76.7c-11.9,2 -34.7,1.9 -46.6,-0.1c-13.1,-2.2 -35.5,-9.9 -45.8,-15.7c-35,-19.9 -60.3,-53 -69.5,-90.8c-1.1,-4.9 -2.4,-8.9 -2.8,-8.9c-1.2,0 -0.9,2.6 1.2,11.2c7,27.2 23.8,54.2 45,72.5c34.6,29.8 79,41.8 123,33.3c37.3,-7.1 71.7,-29.9 93.1,-61.6c9.1,-13.5 19.3,-35.9 16.9,-37.4c-0.6,-0.4 -0.1,-4.2 1.5,-10.3c7.6,-30 5.5,-61.2 -5.8,-89.1c-4.4,-10.8 -14.2,-27.2 -21.2,-35.6c-10.7,-12.8 -11.5,-14.4 -3,-5.5c14.7,15.2 26.5,35.2 33.4,56.2c9.3,28.5 10.1,63.2 2,88.2c-0.7,1.9 -1.3,5.3 -1.4,7.7c-0.6,8.8 -12.9,32.3 -24.5,46.8c-7.5,9.6 -23.6,24.4 -33.3,30.9c-21.7,14.6 -53.6,25.7 -73.9,25.7c-2.9,0 -4.8,0.4 -4.8,1.1c0,1.5 12.6,0.6 23.6,-1.6c25.2,-5.2 48.2,-16.3 68.2,-32.7c4,-3.3 7.6,-5.7 7.9,-5.4c0.4,0.4 2.3,-0.8 4.3,-2.6c2,-1.8 0,0.2 -4.4,4.5c-15.2,14.6 -36,27.4 -56.1,34.3c-4.4,1.5 -8.3,3.2 -8.6,3.7c-1.1,1.6 -15.8,4.6 -28.3,5.7c-12.9,1.2 -24.9,0.7 -38.6,-1.6c-10,-1.7 -10,-1.6 -10,-0.5c0,0.5 4.7,1.6 10.4,2.5c12.1,1.8 35.7,2.1 47.2,0.5c40.3,-5.6 78.7,-28.2 103.3,-60.8c6.3,-8.5 12.8,-19 12.4,-20.3c-0.1,-0.3 1.5,-4.4 3.6,-9c19,-41.2 19.7,-87.4 1.9,-128.3c-3.5,-8.1 -10.9,-21.1 -13.5,-24c-1,-1.1 -4.1,-4.9 -6.8,-8.5c-2.7,-3.6 -7.6,-9.4 -10.9,-13c-3.2,-3.6 -1.6,-2.1 3.7,3.2c20,20.3 35.2,49.3 41.9,80.2c3.1,13.9 3.3,49.5 0.4,62.6c-4.3,20.1 -14.3,44.7 -24.1,59.5c-13.5,20.4 -34.1,39.3 -54.8,50.5c-8.9,4.8 -10.5,7.5 -1.9,3.1c22.6,-11.4 47.9,-35.3 62.2,-58.6c9.7,-15.8 16.9,-34.1 21.2,-53.8c1.9,-8.7 2.2,-13.4 2.2,-31.7c0,-18.7 -0.3,-22.9 -2.2,-32c-2.8,-12.7 -8,-28.6 -12.2,-37.2c-1.7,-3.5 -2.4,-5.5 -1.6,-4.4c2.5,3.2 10.4,22.1 13.5,32.3c5,16.9 6.5,27.9 6.5,47.8c0,19.7 -1.4,28.6 -7.5,49c-3.5,11.5 -13.7,33.7 -15.3,33.2c-0.6,-0.2 -3.9,3.7 -7.3,8.7c-22.8,33.3 -57.1,57.5 -95.2,67.1c-9.3,2.3 -19.9,4.1 -17.3,2.9c3.1,-1.5 0.6,-2 -5.5,-1.1c-10.8,1.5 -40.2,0.2 -51.6,-2.3c-21.3,-4.5 -40.4,-12.6 -58.5,-24.7c-11.7,-7.8 -29,-23.3 -35.9,-32.4c-3.5,-4.6 -5.3,-6 -5.3,-4.1c0,1.8 16.2,19.2 24.1,25.8c30.1,25.6 63.6,38.5 103.9,40.3c13.5,0.7 14.7,0.8 6.7,0.9c-7,0.2 -9.6,0.5 -9.1,1.3c0.9,1.6 21.5,0.3 36.3,-2.2c25.8,-4.4 54.3,-17.2 75.1,-33.7c2.5,-2 8.1,-7 12.6,-11.2l8,-7.5l-8.6,8.6c-18.6,18.6 -44.7,34.1 -68.2,40.5c-3.5,0.9 -6.8,2.3 -7.4,3.1c-1.5,1.8 -12,3.9 -26.4,5.4c-33,3.3 -70.9,-5.4 -100,-23c-11.6,-7.1 -14.2,-8.9 -26,-19.3c-23.7,-20.5 -42,-50.4 -50.5,-81.8c-8.1,-30.4 -7.2,-64 2.7,-94.9c2.8,-8.8 13,-32.1 14.1,-32.1c0.3,0 -1.7,4.9 -4.4,10.9c-5.8,13 -10.1,27.9 -12.4,42.7c-2.3,14.7 -1.6,43.6 1.4,57.2c9.4,42.5 33.4,78.5 68,102c10.7,7.4 22.1,13.7 22.1,12.4c0,-0.6 -3.8,-3.2 -8.5,-5.8c-40.4,-22.7 -69.4,-62.2 -79.6,-108.6c-2.6,-11.9 -3.7,-40.4 -2,-53.3c3,-22.7 10.6,-44.2 22.7,-64.2c2.4,-3.9 4.2,-7.8 3.9,-8.5c-0.8,-2 13.8,-19.2 23.1,-27.2c4.3,-3.8 12.3,-9.8 17.6,-13.3c8.2,-5.6 11.1,-6.9 19,-8.8c13.6,-3.3 13.9,-2.8 0.8,1.4zM82.37663,378.1948c0,0.6 2.1,5.2 4.6,10.3c17.2,34.2 49.2,62.3 84.9,74.2c30.3,10.2 63.3,10.5 93.7,0.9c4.3,-1.4 7.6,-2.9 7.3,-3.3c-0.2,-0.5 -4.5,0.4 -9.4,1.9c-14.4,4.5 -26.8,6.3 -43.6,6.3c-24.7,0 -42.6,-4.2 -65,-15.3c-7.8,-3.9 -17.8,-9.8 -22.5,-13.4c-17.9,-13.5 -36.8,-36.5 -45.1,-55c-3.1,-6.9 -4.9,-9.3 -4.9,-6.6zM86.07663,415.8948c-2,-3.2 -3.8,-5.3 -4.1,-4.8c-0.4,0.5 1.3,4.1 3.7,7.8c13.1,20.4 32.4,38.9 53.5,51.3c3.9,2.4 7.2,4.9 7.2,5.5c0,2.6 21.9,11 39.5,15.1c11.3,2.7 13.3,2.8 34,2.8c19,0 23.4,-0.3 32.1,-2.2c20.3,-4.4 40.6,-12.9 56.9,-23.8c10.2,-6.8 12,-8.3 11.3,-8.9c-0.3,-0.3 -4.9,2.4 -10.2,6c-16,10.8 -31.7,17.9 -50.6,23c-6.4,1.7 -9.6,2.1 -10.1,1.4c-0.4,-0.8 -3.5,-0.7 -10.4,0.1c-13.2,1.7 -38,0.7 -50.7,-1.9c-37.6,-8.1 -71.5,-29.6 -94.5,-60.1c-2.3,-3 -5.7,-8.1 -7.6,-11.3zM118.37663,436.8948c0,1.2 10.6,9.4 19.5,15.3c14.9,9.7 31.7,16.6 51,21c11.5,2.7 37.3,3.7 50,2.1c24.1,-3.2 50.6,-13.4 69,-26.8c8.1,-5.9 3.6,-4.8 -5.6,1.3c-14.9,10.1 -33.4,17.8 -52.9,22c-12.1,2.7 -45.8,2.7 -58,0.1c-25.3,-5.5 -49.2,-16.8 -66.9,-31.7c-4.7,-4 -6.1,-4.7 -6.1,-3.3z"/><path d="M203.77663,491.2948c1.1,-0.1 1.7,0.2 1.3,0.5c-0.3,0.3 -1.2,0.4 -1.9,0.1c-0.8,-0.3 -0.5,-0.6 0.6,-0.6z"/><path d="M235.77663,491.2948c1.1,-0.1 1.7,0.2 1.3,0.5c-0.3,0.3 -1.2,0.4 -1.9,0.1c-0.8,-0.3 -0.5,-0.6 0.6,-0.6z"/><path d="M390.87663,192.3948c1.1,0 3.1,0.4 4.5,0.8c2,0.6 2.1,0.8 0.5,0.8c-1.1,0 -3.1,-0.4 -4.5,-0.8c-2,-0.6 -2.1,-0.8 -0.5,-0.8z"/><path d="M-40.62338,193.3948c1.4,0 1.9,0.2 1.3,0.5c-0.7,0.2 -1.9,0.2 -2.5,0c-0.7,-0.3 -0.2,-0.5 1.2,-0.5z"/><path d="M413.77663,194.2948c1.1,-0.1 1.7,0.2 1.3,0.5c-0.3,0.3 -1.2,0.4 -1.9,0.1c-0.8,-0.3 -0.5,-0.6 0.6,-0.6z"/><path d="M442.77663,197.2948c1.1,-0.1 1.7,0.2 1.3,0.5c-0.3,0.3 -1.2,0.4 -1.9,0.1c-0.8,-0.3 -0.5,-0.6 0.6,-0.6z"/><path d="M535.77663,197.2948c1.1,-0.1 1.7,0.2 1.3,0.5c-0.3,0.3 -1.2,0.4 -1.9,0.1c-0.8,-0.3 -0.5,-0.6 0.6,-0.6z"/><path d="M542.37663,198.3948c1.4,0 1.9,0.2 1.3,0.5c-0.7,0.2 -1.9,0.2 -2.5,0c-0.7,-0.3 -0.2,-0.5 1.2,-0.5z"/><path d="M451.77663,199.2948c1.1,-0.1 1.7,0.2 1.3,0.5c-0.3,0.3 -1.2,0.4 -1.9,0.1c-0.8,-0.3 -0.5,-0.6 0.6,-0.6z"/><path d="M548.37663,199.3948c1.4,0 1.9,0.2 1.3,0.5c-0.7,0.2 -1.9,0.2 -2.5,0c-0.7,-0.3 -0.2,-0.5 1.2,-0.5z"/><path d="M5.77663,200.2948c1.1,-0.1 1.7,0.2 1.3,0.5c-0.3,0.3 -1.2,0.4 -1.9,0.1c-0.8,-0.3 -0.5,-0.6 0.6,-0.6z"/><path d="M109.37663,201.4948c0,0.8 -17.2,10.8 -17.7,10.4c-0.4,-0.4 5.4,-4 15.2,-9.5c2.2,-1.3 2.5,-1.4 2.5,-0.9z"/><path d="M358.87663,202.2948c0.6,0 2.1,0.6 3.5,1.4c1.4,0.8 2.1,1.4 1.5,1.4c-0.5,0 -2.1,-0.6 -3.5,-1.4c-1.4,-0.8 -2,-1.4 -1.5,-1.4z"/><path d="M-31.22337,204.2948c1.1,-0.1 1.7,0.2 1.3,0.5c-0.3,0.3 -1.2,0.4 -1.9,0.1c-0.8,-0.3 -0.5,-0.6 0.6,-0.6z"/><path d="M97.37663,205.6948c0,0.2 -1,0.9 -2.2,1.5c-2.2,1.1 -2.2,1 -0.4,-0.4c2.1,-1.7 2.6,-1.9 2.6,-1.1z"/><path d="M314.57662,208.1948c0.3,0 1.3,0.9 2.3,2c1,1.1 1.6,2 1.3,2c-0.3,0 -1.3,-0.9 -2.3,-2c-1,-1.1 -1.6,-2 -1.3,-2z"/><path d="M-63.22337,209.2948c1.1,-0.1 1.7,0.2 1.3,0.5c-0.3,0.3 -1.2,0.4 -1.9,0.1c-0.8,-0.3 -0.5,-0.6 0.6,-0.6z"/><path d="M-67.22337,210.2948c1.1,-0.1 1.7,0.2 1.3,0.5c-0.3,0.3 -1.2,0.4 -1.9,0.1c-0.8,-0.3 -0.5,-0.6 0.6,-0.6z"/><path d="M353.87663,210.0948l2,1c1.1,0.5 2.9,1.7 4,2.6l2,1.6l-2,-1c-1.1,-0.5 -2.9,-1.7 -4,-2.6z"/><path d="M-119.22337,211.2948c1.1,-0.1 1.7,0.2 1.3,0.5c-0.3,0.3 -1.2,0.4 -1.9,0.1c-0.8,-0.3 -0.5,-0.6 0.6,-0.6z"/><path d="M-117.22337,213.2948c1.1,-0.1 1.7,0.2 1.3,0.5c-0.3,0.3 -1.2,0.4 -1.9,0.1c-0.8,-0.3 -0.5,-0.6 0.6,-0.6z"/><path d="M-121.22337,214.2948c1.1,-0.1 1.7,0.2 1.3,0.5c-0.3,0.3 -1.2,0.4 -1.9,0.1c-0.8,-0.3 -0.5,-0.6 0.6,-0.6z"/><path d="M-125.22337,215.2948c1.1,-0.1 1.7,0.2 1.3,0.5c-0.3,0.3 -1.2,0.4 -1.9,0.1c-0.8,-0.3 -0.5,-0.6 0.6,-0.6z"/><path d="M348.37663,220.8948c8.3,6.8 18.6,17 17.9,17.7c-0.2,0.2 -6,-5.1 -12.9,-11.7c-10.1,-9.8 -11,-10.9 -5,-6z"/><path d="M-24.12337,216.1948c0.6,0 0.3,0.5 -0.5,1c-0.8,0.5 -1.9,1 -2.5,1c-0.5,0 -0.3,-0.5 0.5,-1c0.8,-0.5 2,-1 2.5,-1z"/><path d="M416.87663,227.7948c1.1,0.8 1.4,1.4 0.8,1.4c-1,0 -17.6,-9.4 -21.3,-12c-2.1,-1.5 18,9 20.5,10.6z"/><path d="M476.87663,223.1948c0.6,0 1.7,0.5 2.5,1c0.8,0.5 1.1,1 0.5,1c-0.5,0 -1.7,-0.5 -2.5,-1c-0.8,-0.5 -1,-1 -0.5,-1z"/><path d="M284.07662,224.8948c0.2,0.7 0.2,1.9 0,2.5c-0.3,0.7 -0.5,0.2 -0.5,-1.2c0,-1.4 0.2,-1.9 0.5,-1.3z"/><path d="M-10.62337,230.6948c0,0.2 -1.3,1.1 -3,2c-3.8,1.9 -4,1.1 -0.2,-0.9c3.1,-1.7 3.2,-1.8 3.2,-1.1z"/><path d="M6.37663,230.6948c0,0.2 -1,0.9 -2.2,1.5c-2.2,1.1 -2.2,1 -0.4,-0.4c2.1,-1.7 2.6,-1.9 2.6,-1.1z"/><path d="M10.37663,231.6948c0,0.2 -1,0.9 -2.2,1.5c-2.2,1.1 -2.2,1 -0.4,-0.4c2.1,-1.7 2.6,-1.9 2.6,-1.1z"/><path d="M-126.12337,238.1948c0.6,0 0.3,0.5 -0.5,1c-0.8,0.5 -1.9,1 -2.5,1c-0.5,0 -0.3,-0.5 0.5,-1c0.8,-0.5 2,-1 2.5,-1z"/><path d="M23.37663,238.5948c0,0.2 -0.8,1 -1.7,1.7c-1.6,1.3 -1.7,1.2 -0.4,-0.4c1.3,-1.6 2.1,-2.1 2.1,-1.3z"/><path d="M304.97663,238.4948c0.3,0.3 0.4,1.2 0.1,1.9c-0.3,0.8 -0.6,0.5 -0.6,-0.6c-0.1,-1.1 0.2,-1.7 0.5,-1.3z"/><path d="M381.27663,246.1948c4.5,4.7 8.1,8.9 8.1,9.5c-0.1,0.5 -1,-0.1 -2.1,-1.5c-1.1,-1.4 -4.7,-5.7 -8,-9.5c-5.4,-6.3 -5.2,-6.1 2,1.5z"/><path d="M414.47663,239.8948c1.3,1.6 1.2,1.7 -0.3,0.4c-1,-0.7 -1.8,-1.5 -1.8,-1.7c0,-0.8 0.8,-0.3 2.1,1.3z"/><path d="M334.77663,239.1948c2,0 15.5,31.4 14.2,32.8c-0.3,0.2 -0.8,-0.1 -1,-0.9c-0.3,-0.8 -1.7,-4.8 -3.2,-8.9c-1.5,-4.1 -4.4,-11 -6.5,-15.3c-2.2,-4.2 -3.7,-7.7 -3.5,-7.7z"/><path d="M123.97663,246.3948c0.2,0.2 -0.4,4.2 -1.2,8.9c-2.4,12.7 -1.5,33.5 2,45.2c6.2,20.9 18.5,38.7 35.5,51.5c38.9,29.3 93,26.1 129,-7.7c5.9,-5.5 6.6,-5.2 1.1,0.5c-31.9,32.8 -84.7,38.7 -123.3,13.8c-3.9,-2.6 -8.7,-6 -10.6,-7.6c-1.8,-1.6 -3.9,-2.7 -4.7,-2.4c-1.5,0.6 -10.8,-9.9 -16.2,-18.3c-5.4,-8.4 -10.1,-19.4 -12.9,-30c-3.4,-12.6 -3.8,-34.3 -1,-46.4c1,-4.3 2,-7.7 2.3,-7.5z"/><path d="M293.07662,255.8948c0.2,0.7 0.2,2.1 0,3c-0.3,1 -0.5,0.4 -0.5,-1.2c0,-1.7 0.2,-2.4 0.5,-1.8z"/><path d="M563.37663,261.1948c2.2,1.1 4,2.3 4,2.5c0,0.3 -1.8,-0.4 -4,-1.5c-2.2,-1.1 -4,-2.3 -4,-2.5c0,-0.3 1.8,0.4 4,1.5z"/><path d="M337.07663,270.8948c0.2,0.7 0.2,1.9 0,2.5c-0.3,0.7 -0.5,0.2 -0.5,-1.2c0,-1.4 0.2,-1.9 0.5,-1.3z"/><path d="M325.07662,274.8948c0.2,1.3 0.2,3.3 0,4.5c-0.2,1.3 -0.4,0.3 -0.4,-2.2c0,-2.5 0.2,-3.5 0.4,-2.3z"/><path d="M338.07663,277.3948c0.2,1 0.2,2.8 0,4c-0.2,1.3 -0.4,0.5 -0.4,-1.7c-0.1,-2.2 0.1,-3.2 0.4,-2.3z"/><path d="M343.97663,276.4948c0.3,0.3 0.4,1.2 0.1,1.9c-0.3,0.8 -0.6,0.5 -0.6,-0.6c-0.1,-1.1 0.2,-1.7 0.5,-1.3z"/><path d="M-104.62337,277.5948c0,0.2 -0.8,1 -1.7,1.7c-1.6,1.3 -1.7,1.2 -0.4,-0.4c1.3,-1.6 2.1,-2.1 2.1,-1.3z"/><path d="M350.97663,278.4948c0.3,0.3 0.4,1.2 0.1,1.9c-0.3,0.8 -0.6,0.5 -0.6,-0.6c-0.1,-1.1 0.2,-1.7 0.5,-1.3z"/><path d="M393.07663,278.1948c0.2,0 2.4,4.2 4.8,9.4c7.6,16.4 14.5,37.6 12.2,37.6c-0.7,0 -2.4,-4.6 -3.9,-10.5c-1.5,-5.8 -5.1,-16.4 -8.1,-23.5c-3,-7.2 -5.2,-13 -5,-13z"/><path d="M345.07663,282.3948c0.2,1 0.2,2.6 0,3.5c-0.3,1 -0.5,0.2 -0.5,-1.7c0,-1.9 0.2,-2.7 0.5,-1.8z"/><path d="M352.07663,282.8948c0.2,0.7 0.2,1.9 0,2.5c-0.3,0.7 -0.5,0.2 -0.5,-1.2c0,-1.4 0.2,-1.9 0.5,-1.3z"/><path d="M485.47663,285.1948c0.3,0 2,1.6 3.9,3.5c1.9,1.9 3.2,3.5 2.9,3.5c-0.3,0 -2,-1.6 -3.9,-3.5c-1.9,-1.9 -3.2,-3.5 -2.9,-3.5z"/><path d="M-5.02337,287.1948c0.8,0 0.3,0.8 -1.3,2.1c-1.6,1.3 -1.7,1.2 -0.4,-0.4c0.7,-0.9 1.5,-1.7 1.7,-1.7z"/><path d="M353.57663,292.6948c1.3,8.3 0.3,36.5 -1.6,44.8c-3,13.5 -11.9,33.3 -21.4,47.7c-6.7,10.1 -25.8,29.8 -27.4,28.2c-0.7,-0.7 -2.8,0.3 -6.9,3.3c-13.4,9.9 -35,18.9 -53.3,22.2c-13.3,2.4 -35.2,2.2 -48.3,-0.6c-28,-5.9 -50.1,-17.9 -69.6,-38c-7.7,-8 -16.1,-18.8 -20.2,-26.1c-1.7,-3.2 0.8,0 5.8,7.3c19.5,28.3 49,48 82.7,55.3c11.8,2.6 41,2.7 52.7,0.1c42.5,-9.1 76,-35.4 94.4,-74.1c9.2,-19.4 13.5,-40.7 12.7,-63.1c-0.4,-10.2 -0.3,-11.7 0.4,-7z"/><path d="M-27.62337,291.5948c0,0.2 -0.8,1 -1.7,1.7c-1.6,1.3 -1.7,1.2 -0.4,-0.4c1.3,-1.6 2.1,-2.1 2.1,-1.3z"/><path d="M-109.62337,292.4948c0,0.2 -1,1.2 -2.2,2.3l-2.3,1.9l1.9,-2.3c1.8,-2.1 2.6,-2.7 2.6,-1.9z"/><path d="M-115.62337,297.4948c0,0.2 -1.5,1.6 -3.2,3.3l-3.3,2.9l2.9,-3.3c2.8,-3 3.6,-3.7 3.6,-2.9z"/><path d="M406.17663,300.1948c0.5,0.8 1.3,2.6 1.6,4c0.5,1.7 0.4,2 -0.2,1c-0.5,-0.8 -1.3,-2.6 -1.6,-4c-0.5,-1.7 -0.4,-2 0.2,-1z"/><path d="M499.47663,303.8948c1.3,1.6 1.2,1.7 -0.3,0.4c-1,-0.7 -1.8,-1.5 -1.8,-1.7c0,-0.8 0.8,-0.3 2.1,1.3z"/><path d="M501.57663,307.1948c0.3,0 1.3,0.9 2.3,2c1,1.1 1.6,2 1.3,2c-0.3,0 -1.3,-0.9 -2.3,-2c-1,-1.1 -1.6,-2 -1.3,-2z"/><path d="M359.07663,317.8948c0.2,1.3 0.2,3.3 0,4.5c-0.2,1.3 -0.4,0.3 -0.4,-2.2c0,-2.5 0.2,-3.5 0.4,-2.3z"/><path d="M39.07663,318.8948c0.2,0.7 0.2,1.9 0,2.5c-0.3,0.7 -0.5,0.2 -0.5,-1.2c0,-1.4 0.2,-1.9 0.5,-1.3z"/><path d="M341.07663,318.8948c0.2,0.7 0.2,1.9 0,2.5c-0.3,0.7 -0.5,0.2 -0.5,-1.2c0,-1.4 0.2,-1.9 0.5,-1.3z"/><path d="M-98.02337,321.1948c0.8,0 0.3,0.8 -1.3,2.1c-1.6,1.3 -1.7,1.2 -0.4,-0.4c0.7,-0.9 1.5,-1.7 1.7,-1.7z"/><path d="M37.27663,331.8948c-1.9,11.4 -1.6,41.5 0.5,53.8c1.5,9.1 5.4,25.4 7.1,29.7c0.5,1.3 0.2,1.8 -0.9,1.8c-0.9,0 -1.9,-1.4 -2.5,-3.8c-2.8,-10.1 -5.1,-21.6 -6.2,-29.6c-1.4,-10.7 -0.7,-44 1.2,-53.9c1.7,-9.3 2.4,-7.7 0.8,2z"/><path d="M339.97663,323.4948c0.3,0.3 0.4,1.2 0.1,1.9c-0.3,0.8 -0.6,0.5 -0.6,-0.6c-0.1,-1.1 0.2,-1.7 0.5,-1.3z"/><path d="M358.07663,328.3948c0.2,1 0.2,2.6 0,3.5c-0.3,1 -0.5,0.2 -0.5,-1.7c0,-1.9 0.2,-2.7 0.5,-1.8z"/><path d="M328.07662,330.5948c0.3,0.2 0,1.3 -0.6,2.3c-1.2,2 -1.4,1.4 -0.5,-1.2c0.4,-0.9 0.9,-1.4 1.1,-1.1z"/><path d="M442.77663,341.4948c2.1,5.3 6.8,26.6 6.3,28.6c-0.2,0.9 -0.7,-0.2 -1.1,-2.4c-0.4,-2.2 -1.8,-8.7 -3.1,-14.5c-1.4,-5.8 -2.7,-11.6 -3,-13c-0.3,-1.4 0.1,-0.8 0.9,1.3z"/><path d="M301.97663,339.1948c0.8,0 0.3,0.8 -1.3,2.1c-1.6,1.3 -1.7,1.2 -0.4,-0.4c0.7,-0.9 1.5,-1.7 1.7,-1.7z"/><path d="M398.07663,348.3948c0.2,3.2 0.2,8.6 0,12c-0.2,3.5 -0.3,0.9 -0.3,-5.7c0,-6.6 0.1,-9.4 0.3,-6.3z"/><path d="M413.07663,348.3948c0.2,1 0.2,2.8 0,4c-0.2,1.3 -0.4,0.5 -0.4,-1.7c-0.1,-2.2 0.1,-3.2 0.4,-2.3z"/><path d="M-35.92337,348.5948c0.3,0.2 0,1.3 -0.6,2.3c-1.2,2 -1.4,1.4 -0.5,-1.2c0.4,-0.9 0.9,-1.4 1.1,-1.1z"/><path d="M416.07663,354.8948c0.2,0.7 0.2,1.9 0,2.5c-0.3,0.7 -0.5,0.2 -0.5,-1.2c0,-1.4 0.2,-1.9 0.5,-1.3z"/><path d="M-9.02337,365.4948c0.3,0.3 0.4,1.2 0.1,1.9c-0.3,0.8 -0.6,0.5 -0.6,-0.6c-0.1,-1.1 0.2,-1.7 0.5,-1.3z"/><path d="M316.97663,367.1948c0.8,0 0.3,0.8 -1.3,2.1c-1.6,1.3 -1.7,1.2 -0.4,-0.4c0.7,-0.9 1.5,-1.7 1.7,-1.7z"/><path d="M-9.92337,371.8948c0.2,0.7 0.2,1.9 0,2.5c-0.3,0.7 -0.5,0.2 -0.5,-1.2c0,-1.4 0.2,-1.9 0.5,-1.3z"/><path d="M-2.92337,371.8948c0.2,0.7 0.2,2.1 0,3c-0.3,1 -0.5,0.4 -0.5,-1.2c0,-1.7 0.2,-2.4 0.5,-1.8z"/><path d="M457.97663,374.4948c0.3,0.3 0.4,1.2 0.1,1.9c-0.3,0.8 -0.6,0.5 -0.6,-0.6c-0.1,-1.1 0.2,-1.7 0.5,-1.3z"/><path d="M-10.92337,379.3948c0.2,1 0.2,2.6 0,3.5c-0.3,1 -0.5,0.2 -0.5,-1.7c0,-1.9 0.2,-2.7 0.5,-1.8z"/><path d="M459.07663,380.8948c0.2,0.7 0.2,2.1 0,3c-0.3,1 -0.5,0.4 -0.5,-1.2c0,-1.7 0.2,-2.4 0.5,-1.8z"/><path d="M242.77663,384.2948c1.1,-0.1 1.7,0.2 1.3,0.5c-0.3,0.3 -1.2,0.4 -1.9,0.1c-0.8,-0.3 -0.5,-0.6 0.6,-0.6z"/><path d="M202.37663,385.3948c1.4,0 1.9,0.2 1.3,0.5c-0.7,0.2 -1.9,0.2 -2.5,0c-0.7,-0.3 -0.2,-0.5 1.2,-0.5z"/><path d="M237.77663,385.2948c1.1,-0.1 1.7,0.2 1.3,0.5c-0.3,0.3 -1.2,0.4 -1.9,0.1c-0.8,-0.3 -0.5,-0.6 0.6,-0.6z"/><path d="M210.87663,386.4948c2.2,-0.1 3.2,0.1 2.3,0.4c-1,0.2 -2.8,0.2 -4,0c-1.3,-0.2 -0.5,-0.4 1.7,-0.4z"/><path d="M229.87663,386.4948c2.2,-0.1 3.2,0.1 2.3,0.4c-1,0.2 -2.8,0.2 -4,0c-1.3,-0.2 -0.5,-0.4 1.7,-0.4z"/><path d="M170.67663,387.7948c1,0.3 1.5,0.9 1.2,1.2c-0.3,0.3 -1.1,0 -1.8,-0.7c-0.9,-1 -0.8,-1.1 0.6,-0.5z"/><path d="M241.77663,387.2948c1.1,-0.1 1.7,0.2 1.3,0.5c-0.3,0.3 -1.2,0.4 -1.9,0.1c-0.8,-0.3 -0.5,-0.6 0.6,-0.6z"/><path d="M460.07663,388.8948c0.2,1.3 0.2,3.3 0,4.5c-0.2,1.3 -0.4,0.3 -0.4,-2.2c0,-2.5 0.2,-3.5 0.4,-2.3z"/><path d="M203.77663,388.2948c1.1,-0.1 1.7,0.2 1.3,0.5c-0.3,0.3 -1.2,0.4 -1.9,0.1c-0.8,-0.3 -0.5,-0.6 0.6,-0.6z"/><path d="M236.37663,388.3948c1.4,0 1.9,0.2 1.3,0.5c-0.7,0.2 -1.9,0.2 -2.5,0c-0.7,-0.3 -0.2,-0.5 1.2,-0.5z"/><path d="M219.87663,389.5948c6.1,0 8.7,0.1 5.8,0.3c-2.9,0.2 -7.8,0.2 -11,0c-3.2,-0.2 -0.8,-0.3 5.2,-0.3z"/><path d="M266.87663,389.1948c0.6,0 0.3,0.5 -0.5,1c-0.8,0.5 -1.9,1 -2.5,1c-0.5,0 -0.3,-0.5 0.5,-1c0.8,-0.5 2,-1 2.5,-1z"/><path d="M180.87663,392.1948c0.6,0 1.7,0.5 2.5,1c0.8,0.5 1.1,1 0.5,1c-0.5,0 -1.7,-0.5 -2.5,-1c-0.8,-0.5 -1,-1 -0.5,-1z"/><path d="M186.77663,394.2948c1.1,-0.1 1.7,0.2 1.3,0.5c-0.3,0.3 -1.2,0.4 -1.9,0.1c-0.8,-0.3 -0.5,-0.6 0.6,-0.6z"/><path d="M249.77663,395.2948c1.1,-0.1 1.7,0.2 1.3,0.5c-0.3,0.3 -1.2,0.4 -1.9,0.1c-0.8,-0.3 -0.5,-0.6 0.6,-0.6z"/><path d="M194.37663,396.3948c1.4,0 1.9,0.2 1.3,0.5c-0.7,0.2 -1.9,0.2 -2.5,0c-0.7,-0.3 -0.2,-0.5 1.2,-0.5z"/><path d="M245.77663,396.2948c1.1,-0.1 1.7,0.2 1.3,0.5c-0.3,0.3 -1.2,0.4 -1.9,0.1c-0.8,-0.3 -0.5,-0.6 0.6,-0.6z"/><path d="M199.37663,397.3948c1.4,0 1.9,0.2 1.3,0.5c-0.7,0.2 -1.9,0.2 -2.5,0c-0.7,-0.3 -0.2,-0.5 1.2,-0.5z"/><path d="M241.37663,397.3948c1.4,0 1.9,0.2 1.3,0.5c-0.7,0.2 -1.9,0.2 -2.5,0c-0.7,-0.3 -0.2,-0.5 1.2,-0.5z"/><path d="M461.07663,403.8948c0.2,4 0.2,10.7 0,15c-0.1,4.3 -0.3,1 -0.3,-7.2c0,-8.3 0.2,-11.8 0.3,-7.8z"/><path d="M205.37663,398.3948c1.9,0 2.7,0.2 1.8,0.5c-1,0.2 -2.6,0.2 -3.5,0c-1,-0.3 -0.2,-0.5 1.7,-0.5z"/><path d="M234.87663,398.4948c2.2,-0.1 3.2,0.1 2.3,0.4c-1,0.2 -2.8,0.2 -4,0c-1.3,-0.2 -0.5,-0.4 1.7,-0.4z"/><path d="M219.87663,399.5948c5.5,0 7.9,0.1 5.3,0.3c-2.6,0.2 -7.1,0.2 -10,0c-2.9,-0.2 -0.8,-0.3 4.7,-0.3z"/><path d="M427.07663,418.8948c0.2,0.7 0.2,2.1 0,3c-0.3,1 -0.5,0.4 -0.5,-1.2c0,-1.7 0.2,-2.4 0.5,-1.8z"/><path d="M-8.92337,421.8948c0.2,1.3 0.2,3.3 0,4.5c-0.2,1.3 -0.4,0.3 -0.4,-2.2c0,-2.5 0.2,-3.5 0.4,-2.3z"/><path d="M47.37663,422.1948c0.5,0.8 1,1.9 1,2.5c0,0.5 -0.5,0.3 -1,-0.5c-0.5,-0.8 -1,-2 -1,-2.5c0,-0.6 0.5,-0.3 1,0.5z"/><path d="M426.07663,424.5948c0.2,0.2 0.1,2 -0.3,4c-0.3,2.1 -0.8,3.5 -1.1,3.2c-0.2,-0.2 -0.1,-2 0.3,-4c0.3,-2.1 0.8,-3.5 1.1,-3.2z"/><path d="M49.37663,427.1948c0.5,0.8 1,1.9 1,2.5c0,0.5 -0.5,0.3 -1,-0.5c-0.5,-0.8 -1,-2 -1,-2.5c0,-0.6 0.5,-0.3 1,0.5z"/><path d="M339.07663,426.1948c0.8,0 0.2,0.8 -1.9,2.6l-2.3,1.9l1.9,-2.3c1.1,-1.2 2.1,-2.2 2.3,-2.2z"/><path d="M-7.92337,431.3948c0.2,1 0.2,2.6 0,3.5c-0.3,1 -0.5,0.2 -0.5,-1.7c0,-1.9 0.2,-2.7 0.5,-1.8z"/><path d="M56.17663,441.6948c6.7,12.7 14.1,24 21.8,33.1c3,3.5 5,6.4 4.5,6.4c-2.9,0 -19.6,-24.1 -27.2,-39.1c-2.7,-5.4 -4.9,-10.2 -4.9,-10.6c0,-0.5 2.6,4.1 5.8,10.2z"/><path d="M459.97663,432.4948c0.3,0.3 0.4,1.2 0.1,1.9c-0.3,0.8 -0.6,0.5 -0.6,-0.6c-0.1,-1.1 0.2,-1.7 0.5,-1.3z"/><path d="M54.77663,444.8948c1.4,2.9 2.4,5.3 2.1,5.3c-0.5,0 -5.5,-9.5 -5.5,-10.6c0,-1.2 0.6,-0.2 3.4,5.3z"/><path d="M189.77663,439.2948c1.1,-0.1 1.7,0.2 1.3,0.5c-0.3,0.3 -1.2,0.4 -1.9,0.1c-0.8,-0.3 -0.5,-0.6 0.6,-0.6z"/><path d="M194.77663,440.2948c1.1,-0.1 1.7,0.2 1.3,0.5c-0.3,0.3 -1.2,0.4 -1.9,0.1c-0.8,-0.3 -0.5,-0.6 0.6,-0.6z"/><path d="M245.77663,440.2948c1.1,-0.1 1.7,0.2 1.3,0.5c-0.3,0.3 -1.2,0.4 -1.9,0.1c-0.8,-0.3 -0.5,-0.6 0.6,-0.6z"/><path d="M200.37663,441.3948c1.4,0 1.9,0.2 1.3,0.5c-0.7,0.2 -1.9,0.2 -2.5,0c-0.7,-0.3 -0.2,-0.5 1.2,-0.5z"/><path d="M239.37663,441.3948c1.4,0 1.9,0.2 1.3,0.5c-0.7,0.2 -1.9,0.2 -2.5,0c-0.7,-0.3 -0.2,-0.5 1.2,-0.5z"/><path d="M459.07663,441.8948c0.2,0.7 0.2,1.9 0,2.5c-0.3,0.7 -0.5,0.2 -0.5,-1.2c0,-1.4 0.2,-1.9 0.5,-1.3z"/><path d="M209.87663,442.4948c2.2,-0.1 3.2,0.1 2.3,0.4c-1,0.2 -2.8,0.2 -4,0c-1.3,-0.2 -0.5,-0.4 1.7,-0.4z"/><path d="M230.37663,442.4948c2.5,0 3.5,0.2 2.3,0.4c-1.3,0.2 -3.3,0.2 -4.5,0c-1.3,-0.2 -0.3,-0.4 2.2,-0.4z"/><path d="M350.37663,446.5948c0,0.2 -0.8,1 -1.7,1.7c-1.6,1.3 -1.7,1.2 -0.4,-0.4c1.3,-1.6 2.1,-2.1 2.1,-1.3z"/><path d="M457.97663,449.4948c0.3,0.3 0.4,1.2 0.1,1.9c-0.3,0.8 -0.6,0.5 -0.6,-0.6c-0.1,-1.1 0.2,-1.7 0.5,-1.3z"/><path d="M456.97663,455.4948c0.3,0.3 0.4,1.2 0.1,1.9c-0.3,0.8 -0.6,0.5 -0.6,-0.6c-0.1,-1.1 0.2,-1.7 0.5,-1.3z"/><path d="M456.07663,460.8948c0.2,0.7 0.2,1.9 0,2.5c-0.3,0.7 -0.5,0.2 -0.5,-1.2c0,-1.4 0.2,-1.9 0.5,-1.3z"/><path d="M454.97663,465.4948c0.3,0.3 0.4,1.2 0.1,1.9c-0.3,0.8 -0.6,0.5 -0.6,-0.6c-0.1,-1.1 0.2,-1.7 0.5,-1.3z"/><path d="M237.87663,504.4948c2.2,-0.1 3.2,0.1 2.3,0.4c-1,0.2 -2.8,0.2 -4,0c-1.3,-0.2 -0.5,-0.4 1.7,-0.4z"/><path d="M186.77663,509.2948c1.1,-0.1 1.7,0.2 1.3,0.5c-0.3,0.3 -1.2,0.4 -1.9,0.1c-0.8,-0.3 -0.5,-0.6 0.6,-0.6z"/><path d="M247.77663,510.2948c1.1,-0.1 1.7,0.2 1.3,0.5c-0.3,0.3 -1.2,0.4 -1.9,0.1c-0.8,-0.3 -0.5,-0.6 0.6,-0.6z"/><path d="M199.37663,511.3948c1.4,0 1.9,0.2 1.3,0.5c-0.7,0.2 -1.9,0.2 -2.5,0c-0.7,-0.3 -0.2,-0.5 1.2,-0.5z"/><path d="M240.37663,511.3948c1.4,0 1.9,0.2 1.3,0.5c-0.7,0.2 -1.9,0.2 -2.5,0c-0.7,-0.3 -0.2,-0.5 1.2,-0.5z"/><path d="M211.87663,512.4948c2.8,0 4,0.2 2.8,0.4c-1.3,0.2 -3.5,0.2 -5,0c-1.6,-0.2 -0.5,-0.4 2.2,-0.4z"/><path d="M228.37663,512.4948c3,0 4.3,0.2 2.8,0.4c-1.6,0.2 -4,0.2 -5.5,0c-1.6,-0.2 -0.3,-0.4 2.7,-0.4z"/><path d="M20.97663,422.4948c0.3,0.3 0.4,1.2 0.1,1.9c-0.3,0.8 -0.6,0.5 -0.6,-0.6c-0.1,-1.1 0.2,-1.7 0.5,-1.3z"/><path d="M21.97663,426.4948c0.3,0.3 0.4,1.2 0.1,1.9c-0.3,0.8 -0.6,0.5 -0.6,-0.6c-0.1,-1.1 0.2,-1.7 0.5,-1.3z"/><path d="M24.27663,434.5948c0.5,2.2 0.6,3.5 0.2,3c-0.5,-0.5 -1.2,-2.5 -1.6,-4.4c-1,-4.6 0,-3.6 1.4,1.4z"/><path d="M60.47663,503.8948c1.3,1.6 1.2,1.7 -0.3,0.4c-1,-0.7 -1.8,-1.5 -1.8,-1.7c0,-0.8 0.8,-0.3 2.1,1.3z"/><path d="M349.07663,494.1948c0.8,0 0.2,0.8 -1.9,2.6l-2.3,1.9l1.9,-2.3c1.1,-1.2 2.1,-2.2 2.3,-2.2z"/><path d="M341.07663,501.1948c0.8,0 0.2,0.8 -1.9,2.6l-2.3,1.9l1.9,-2.3c1.1,-1.2 2.1,-2.2 2.3,-2.2z"/><path d="M334.97663,506.1948c0.8,0 0.3,0.8 -1.3,2.1c-1.6,1.3 -1.7,1.2 -0.4,-0.4c0.7,-0.9 1.5,-1.7 1.7,-1.7z"/><path d="M331.37663,509.5948c0,0.2 -0.8,1 -1.7,1.7c-1.6,1.3 -1.7,1.2 -0.4,-0.4c1.3,-1.6 2.1,-2.1 2.1,-1.3z"/><path d="M321.37663,516.1948c0.6,0.1 -3,2.8 -5.2,4.1c-3.1,1.7 -2,0.2 1.5,-2c1.7,-1.1 3.4,-2.1 3.7,-2.1z"/><path d="M311.37663,522.6948c0,0.6 -15.7,8.5 -16.7,8.4c-0.5,0 3,-2 7.7,-4.4c9.4,-4.9 9,-4.7 9,-4z"/><path d="M292.87663,531.2948c1.5,0 -3.7,2.6 -6.5,3.3c-1.4,0.3 -0.7,-0.3 1.5,-1.3c2.2,-1.1 4.5,-2 5,-2z"/><path d="M280.87663,536.6948c-1.6,0.8 -3.7,1.4 -4.5,1.4c-0.8,0 0.1,-0.7 2,-1.4c4.6,-1.8 6.4,-1.7 2.5,0z"/><path d="M273.37663,538.2948c0.9,0 0.8,0.4 -0.5,0.9c-1.1,0.5 -2.7,0.9 -3.5,0.9c-0.9,0 -0.8,-0.4 0.5,-0.9c1.1,-0.5 2.7,-0.9 3.5,-0.9z"/><path d="M265.77663,540.2948c1.1,-0.1 1.7,0.2 1.3,0.5c-0.3,0.3 -1.2,0.4 -1.9,0.1c-0.8,-0.3 -0.5,-0.6 0.6,-0.6z"/><path d="M261.77663,541.2948c1.1,-0.1 1.7,0.2 1.3,0.5c-0.3,0.3 -1.2,0.4 -1.9,0.1c-0.8,-0.3 -0.5,-0.6 0.6,-0.6z"/><path d="M257.37663,542.3948c1.4,0 1.9,0.2 1.3,0.5c-0.7,0.2 -1.9,0.2 -2.5,0c-0.7,-0.3 -0.2,-0.5 1.2,-0.5z"/><path d="M251.87663,543.3948c1.7,0 2.4,0.2 1.8,0.5c-0.7,0.2 -2.1,0.2 -3,0c-1,-0.3 -0.4,-0.5 1.2,-0.5z"/></g></g></svg>